<svg height="512" viewBox="0 0 48 60" width="512" xmlns="http://www.w3.org/2000/svg"><g id="021---Grilled-Cheese" fill="none"><g id="Icons" transform="translate(1 1)"><path id="Shape" d="m40 12c3.3137085 0 6 2.6862915 6 6v23c0 2.209139-1.790861 4-4 4h-38c-2.209139 0-4-1.790861-4-4v-23c0-3.3137085 2.6862915-6 6-6-3.3137085 0-6-2.6862915-6-6v-2c0-2.209139 1.790861-4 4-4h38c2.209139 0 4 1.790861 4 4v2c0 3.3137085-2.6862915 6-6 6z" fill="#ffe0b2"/><path id="Shape" d="m46 6v-2c0-2.209139-1.790861-4-4-4h-3c2.209139 0 4 1.790861 4 4v2c0 3.3137085-2.6862915 6-6 6 3.3137085 0 6 2.6862915 6 6v23c0 2.209139-1.790861 4-4 4h3c2.209139 0 4-1.790861 4-4v-23c0-3.3137085-2.6862915-6-6-6 3.3137085 0 6-2.6862915 6-6z" fill="#dfc49c"/><path id="Rectangle-path" d="m16 49h10v4h-10z" fill="#783e22"/><path id="Shape" d="m8 49v4h-4c-2.209139 0-4-1.790861-4-4v-4c0 2.209139 1.790861 4 4 4z" fill="#783e22"/><path id="Shape" d="m46 41v4c0 2.209139-1.790861 4-4 4h-38c-2.209139 0-4-1.790861-4-4v-4c0 2.209139 1.790861 4 4 4h38c2.209139 0 4-1.790861 4-4z" fill="#a0522d"/><path id="Shape" d="m43 44.859c.038273 1.0850793-.366197 2.1390994-1.1205308 2.9200235-.7543338.780924-1.7937154 1.2216513-2.8794692 1.2209773l3-.0000008c2.209139 0 4-1.790861 4-4v-4c-.0028421 1.8199962-1.2369138 3.4074237-3 3.859z" fill="#783e22"/><path id="Shape" d="m46 45v4c0 2.209139-1.790861 4-4 4h-4v-4h4c2.209139 0 4-1.790861 4-4z" fill="#783e22"/><g fill="#ffeb3a"><path id="Shape" d="m38 49v7c0 1.1045695-.8954305 2-2 2s-2-.8954305-2-2v-3c0 1.1045695-.8954305 2-2 2s-2-.8954305-2-2v3c0 1.1045695-.8954305 2-2 2s-2-.8954305-2-2v-7z"/><path id="Shape" d="m16 49v7c0 1.1045695-.8954305 2-2 2s-2-.8954305-2-2v-3c0 1.1045695-.8954305 2-2 2s-2-.8954305-2-2v-4z"/></g></g><g id="Layer_10" fill="#000"><path id="Shape" d="m43 0h-38c-2.76005315.00330612-4.99669388 2.23994685-5 5v2c.00117044 2.45826313 1.29174664 4.7357505 3.4 6-2.10825336 1.2642495-3.39882956 3.5417369-3.4 6v31c.00330612 2.7600532 2.23994685 4.9966939 5 5h3.184c.26321382.7487793.81324768 1.3622381 1.5289781 1.705286.7157304.3430479 1.5384626.3875528 2.2870219.123714-.0305462 1.0717968.5130247 2.0784741 1.4259548 2.6408263s2.0565237.5949446 3.0000001.0855c.9434763-.5094446 1.5434989-1.4835295 1.5740451-2.5553263v-2h8v2c.0305462 1.0717968.6305688 2.0458816 1.5740452 2.5553262.9434763.5094446 2.0870698.4768522 3-.0855.9129301-.5623522 1.456501-1.5690294 1.4259548-2.6408262.648358.2209598 1.351642.2209598 2 0-.0305462 1.0717968.5130247 2.078474 1.4259548 2.6408262.9129302.5623522 2.0565237.5949446 3 .0855.9434764-.5094446 1.543499-1.4835294 1.5740452-2.5553262v-2h3c2.7600532-.0033061 4.9966939-2.2399468 5-5v-31c-.0011704-2.4582631-1.2917466-4.7357505-3.4-6 2.1082534-1.2642495 3.3988296-3.54173687 3.4-6v-2c-.0033061-2.76005315-2.2399468-4.99669388-5-5zm-38 49c-.80017481.0000301-1.56720337-.319607-2.13056591-.887852-.56336253-.568245-.87636894-1.3380032-.86954692-2.138148.86050169.6618067 1.91464356 1.0223232 3.00011283 1.026h38c1.0854693-.0036768 2.1396111-.3641933 3.0001128-1.026.006822.8001448-.3061844 1.569903-.8695469 2.138148s-1.3303911.8878821-2.1305659.887852zm-3 .974c.86038886.6618067 1.91453073 1.0223232 3 1.026h3v2h-3c-.80017481.0000301-1.56720337-.319607-2.13056591-.887852-.56336253-.568245-.87636894-1.3380032-.86943409-2.138148zm14 7.026c0 .5522847-.4477153 1-1 1s-1-.4477153-1-1v-3c0-.5522847-.4477153-1-1-1s-1 .4477153-1 1-.4477153 1-1 1-1-.4477153-1-1v-3h6zm2-4v-2h8v2zm20 4c0 .5522847-.4477153 1-1 1s-1-.4477153-1-1v-3c0-.5522847-.4477153-1-1-1s-1 .4477153-1 1-.4477153 1-1 1-1-.4477153-1-1-.4477153-1-1-1-1 .4477153-1 1v3c0 .5522847-.4477153 1-1 1s-1-.4477153-1-1v-6h10zm5-4h-3v-2h3c1.0854693-.0036768 2.1396111-.3641933 3-1.026.0069348.8001448-.3060716 1.569903-.8694341 2.138148s-1.3303911.8878821-2.1305659.887852zm3-46c-.0033061 2.76005315-2.2399468 4.9966939-5 5-.5522847 0-1 .4477153-1 1s.4477153 1 1 1c2.7600532.0033061 4.9966939 2.2399468 5 5v23c0 1.6568542-1.3431458 3-3 3h-38c-1.65685425 0-3-1.3431458-3-3v-23c.00330612-2.7600532 2.23994685-4.9966939 5-5 .55228475 0 1-.4477153 1-1s-.44771525-1-1-1c-2.76005315-.0033061-4.99669388-2.23994685-5-5v-2c0-1.65685425 1.34314575-3 3-3h38c1.6568542 0 3 1.34314575 3 3z"/><path id="Shape" d="m36.707 17.293c-.3904999-.3903819-1.0235001-.3903819-1.414 0l-22 22c-.2599566.2510745-.3642126.6228779-.2726972.9725073.0915155.3496295.3645604.6226744.7141899.7141899.3496294.0915154.7214328-.0127406.9725073-.2726972l22-22c.3903819-.3904999.3903819-1.0235001 0-1.414z"/><path id="Shape" d="m38.707 6.293c-.3904999-.39038194-1.0235001-.39038194-1.414 0l-31 31c-.25995658.2510745-.3642126.6228779-.27269716.9725073.09151544.3496295.3645604.6226744.71418984.7141899.34962943.0915154.72143285-.0127406.97250732-.2726972l31-31c.3903819-.39049985.3903819-1.02350015 0-1.414z"/><path id="Shape" d="m7 30c.26519481-.0000566.51950727-.1054506.707-.293l22-22c.2599566-.25107447.3642126-.62287789.2726972-.97250732-.0915155-.34962944-.3645604-.6226744-.7141899-.71418984-.3496294-.09151544-.7214328.01274058-.9725073.27269716l-22 22c-.28590792.2859943-.37142191.7160366-.21667798 1.0896546.15474393.3736179.51928208.6172591.92367798.6173454z"/><path id="Shape" d="m7 21c.26519481-.0000566.51950727-.1054506.707-.293l13-13c.2599566-.25107447.3642126-.62287789.2726972-.97250732-.0915155-.34962944-.3645604-.6226744-.7141899-.71418984-.3496294-.09151544-.7214328.01274058-.9725073.27269716l-13 13c-.28590792.2859943-.37142191.7160366-.21667798 1.0896546.15474393.3736179.51928208.6172591.92367798.6173454z"/><path id="Shape" d="m9 10c.543 0 .565-.151 2.707-2.293.2599566-.25107447.3642126-.62287789.2726972-.97250732-.0915155-.34962944-.3645604-.6226744-.7141899-.71418984-.3496294-.09151544-.7214328.01274058-.9725073.27269716l-2 2c-.28590792.28599425-.37142191.71603662-.21667798 1.08965456s.51928208.61725909.92367798.61734544z"/><path id="Shape" d="m22.293 40.707c.3904999.3903819 1.0235001.3903819 1.414 0l18-18c.3789722-.3923789.3735524-1.0160848-.0121814-1.4018186s-1.0094397-.3911536-1.4018186-.0121814l-18 18c-.3903819.3904999-.3903819 1.0235001 0 1.414z"/><path id="Shape" d="m40.293 30.293-9 9c-.3789722.3923789-.3735524 1.0160848.0121814 1.4018186s1.0094397.3911536 1.4018186.0121814l9-9c.3789722-.3923789.3735524-1.0160848-.0121814-1.4018186s-1.0094397-.3911536-1.4018186-.0121814z"/></g></g></svg>