<?xml version="1.0" encoding="UTF-8" standalone="no"?><!-- Generator: Gravit.io --><svg xmlns="http://www.w3.org/2000/svg" xmlns:xlink="http://www.w3.org/1999/xlink" style="isolation:isolate" viewBox="0 0 350 150" width="350pt" height="150pt"><defs><clipPath id="_clipPath_i28mrFkTVT4PUtVVRXdlu2HdBf9PYzbv"><rect width="350" height="150"/></clipPath></defs><g clip-path="url(#_clipPath_i28mrFkTVT4PUtVVRXdlu2HdBf9PYzbv)"><path d=" M 117.166 98.388 C 120.254 84.465 114.911 74.579 114.623 74.073 C 114.4 73.653 114.016 73.341 113.558 73.209 C 113.095 73.093 112.605 73.17 112.199 73.422 C 111.795 73.662 102.69 79.127 95.978 88.892 C 87.786 85.22 78.141 86.491 77.714 86.554 C 77.198 86.624 76.732 86.92 76.45 87.357 C 76.309 87.576 73.03 92.737 71.563 99.348 C 71.139 101.258 70.873 103.134 70.845 104.898 C 59.149 106.856 50.352 112.797 49.967 113.055 C 49.589 113.313 49.309 113.7 49.211 114.143 C 49.206 114.164 49.2 114.169 49.199 114.198 C 49.106 114.657 49.208 115.134 49.478 115.516 C 49.681 115.796 68.699 141.404 99.334 121.893 C 109.072 115.69 115.078 107.789 117.163 98.39 L 117.166 98.388 Z  M 109.021 134.836 C 109.19 134.137 108.927 133.405 108.351 132.974 C 105.678 130.932 103.345 127.424 101.702 124.591 C 101.553 124.686 101.389 124.787 101.238 124.888 C 100.357 125.449 99.472 125.931 98.615 126.418 C 100.424 129.524 103.068 133.43 106.181 135.805 C 106.663 136.159 107.288 136.255 107.854 136.062 C 108.421 135.869 108.857 135.412 109.023 134.837 L 109.021 134.836 Z  M 109.241 71.051 C 105.887 57.189 92.565 50.716 91.95 50.43 C 91.426 50.186 90.848 50.186 90.343 50.472 C 90.04 50.642 82.995 54.767 80.904 64.194 C 80.319 66.832 80.219 69.629 80.531 72.561 C 80.739 74.491 81.637 79.066 82.79 82.711 C 86.08 82.748 90.409 83.18 94.701 84.611 C 100.234 77.424 106.689 72.746 109.243 71.051 L 109.241 71.051 Z  M 79.102 82.864 C 77.98 79.077 77.157 74.833 76.959 72.969 C 76.602 69.651 76.752 66.437 77.421 63.423 C 77.536 62.906 77.675 62.402 77.813 61.912 C 69.263 55.897 59.094 56.246 58.567 56.272 C 57.916 56.286 57.327 56.662 57.039 57.246 C 56.976 57.367 55.597 60.394 54.641 64.705 C 53.882 68.127 53.386 72.52 54.186 77.052 C 57.367 77.578 60.829 78.732 64.459 80.929 C 66.322 82.05 69.349 84.398 72.261 87.456 C 72.868 86.328 73.321 85.636 73.451 85.436 C 74.305 84.121 75.687 83.241 77.24 83.023 C 77.86 82.957 78.481 82.904 79.102 82.864 L 79.102 82.864 Z  M 85.994 49.224 C 79.863 38.451 68.357 36.596 67.804 36.51 C 67.149 36.398 66.487 36.674 66.107 37.219 C 65.971 37.41 62.773 41.953 61.395 48.164 C 61.049 49.721 60.832 51.278 60.773 52.763 C 64.528 52.955 72.108 53.945 79.033 58.47 C 80.617 54.896 82.998 51.733 85.995 49.224 L 85.994 49.224 Z  M 70.58 90.909 C 67.66 87.634 64.379 85.086 62.58 83.995 C 49.353 76 38.856 83.235 38.414 83.544 C 38.051 83.806 37.821 84.162 37.726 84.59 C 37.701 84.7 37.7 84.87 37.697 84.984 C 37.678 85.614 37.498 99.683 48.472 109.755 C 50.51 108.451 57.815 104.09 67.508 101.931 C 67.635 100.839 67.832 99.697 68.081 98.576 C 68.725 95.671 69.643 93.049 70.582 90.909 L 70.58 90.909 Z  M 61.307 38.266 C 53.188 33.619 45.014 34.46 44.613 34.506 C 44.034 34.569 43.536 34.952 43.259 35.463 C 43.184 35.61 41.328 39.017 40.288 43.708 C 39.643 46.613 39.448 49.332 39.679 51.853 C 43.963 51.46 50.927 51.758 57.329 55.94 C 57.075 53.193 57.257 50.334 57.91 47.391 C 58.744 43.635 60.151 40.452 61.305 38.266 L 61.307 38.266 Z  M 50.553 76.702 C 49.883 71.972 50.37 67.485 51.158 63.933 C 51.754 61.248 52.51 59.066 53.074 57.622 C 45.106 53.735 36.949 55.893 36.532 56.007 C 36.015 56.148 35.556 56.512 35.34 57 C 35.297 57.103 34.883 58.031 34.532 59.616 C 33.642 63.624 33.251 71.052 38.535 79.404 C 42.263 77.543 46.387 76.616 50.553 76.702 Z " fill="rgb(255,228,202)"/><path d=" M 229.958 98.388 C 226.869 84.465 232.212 74.579 232.5 74.073 C 232.724 73.653 233.108 73.341 233.565 73.209 C 234.029 73.093 234.519 73.17 234.925 73.422 C 235.328 73.662 244.433 79.127 251.145 88.892 C 259.338 85.22 268.983 86.491 269.41 86.554 C 269.926 86.624 270.392 86.92 270.673 87.357 C 270.815 87.576 274.094 92.737 275.56 99.348 C 275.984 101.258 276.251 103.134 276.278 104.898 C 287.974 106.856 296.772 112.797 297.156 113.055 C 297.535 113.313 297.815 113.7 297.913 114.143 C 297.917 114.164 297.924 114.169 297.925 114.198 C 298.017 114.657 297.916 115.134 297.645 115.516 C 297.443 115.796 278.425 141.404 247.79 121.893 C 238.052 115.69 232.045 107.789 229.96 98.39 L 229.958 98.388 Z  M 238.103 134.836 C 237.933 134.137 238.197 133.405 238.773 132.974 C 241.446 130.932 243.779 127.424 245.421 124.591 C 245.57 124.686 245.735 124.787 245.885 124.888 C 246.766 125.449 247.651 125.931 248.509 126.418 C 246.7 129.524 244.055 133.43 240.943 135.805 C 240.461 136.159 239.836 136.255 239.269 136.062 C 238.703 135.869 238.266 135.412 238.101 134.837 L 238.103 134.836 Z  M 237.882 71.051 C 241.236 57.189 254.559 50.716 255.173 50.43 C 255.698 50.186 256.275 50.186 256.781 50.472 C 257.084 50.642 264.128 54.767 266.22 64.194 C 266.805 66.832 266.905 69.629 266.592 72.561 C 266.385 74.491 265.487 79.066 264.333 82.711 C 261.044 82.748 256.715 83.18 252.423 84.611 C 246.889 77.424 240.435 72.746 237.881 71.051 L 237.882 71.051 Z  M 268.021 82.864 C 269.143 79.077 269.966 74.833 270.165 72.969 C 270.521 69.651 270.371 66.437 269.703 63.423 C 269.588 62.906 269.448 62.402 269.311 61.912 C 277.86 55.897 288.03 56.246 288.556 56.272 C 289.207 56.286 289.796 56.662 290.084 57.246 C 290.148 57.367 291.526 60.394 292.483 64.705 C 293.242 68.127 293.738 72.52 292.938 77.052 C 289.757 77.578 286.295 78.732 282.665 80.929 C 280.801 82.05 277.774 84.398 274.862 87.456 C 274.256 86.328 273.803 85.636 273.673 85.436 C 272.818 84.121 271.436 83.241 269.883 83.023 C 269.264 82.957 268.643 82.904 268.021 82.864 L 268.021 82.864 Z  M 261.13 49.224 C 267.261 38.451 278.767 36.596 279.32 36.51 C 279.975 36.398 280.636 36.674 281.017 37.219 C 281.153 37.41 284.351 41.953 285.729 48.164 C 286.074 49.721 286.292 51.278 286.351 52.763 C 282.595 52.955 275.015 53.945 268.09 58.47 C 266.507 54.896 264.125 51.733 261.128 49.224 L 261.13 49.224 Z  M 276.544 90.909 C 279.464 87.634 282.744 85.086 284.543 83.995 C 297.771 76 308.268 83.235 308.709 83.544 C 309.072 83.806 309.303 84.162 309.398 84.59 C 309.422 84.7 309.423 84.87 309.427 84.984 C 309.446 85.614 309.626 99.683 298.651 109.755 C 296.613 108.451 289.308 104.09 279.616 101.931 C 279.489 100.839 279.292 99.697 279.043 98.576 C 278.399 95.671 277.481 93.049 276.542 90.909 L 276.544 90.909 Z  M 285.817 38.266 C 293.935 33.619 302.109 34.46 302.511 34.506 C 303.089 34.569 303.587 34.952 303.865 35.463 C 303.94 35.61 305.795 39.017 306.836 43.708 C 307.48 46.613 307.676 49.332 307.444 51.853 C 303.161 51.46 296.196 51.758 289.794 55.94 C 290.049 53.193 289.866 50.334 289.213 47.391 C 288.38 43.635 286.972 40.452 285.819 38.266 L 285.817 38.266 Z  M 296.571 76.702 C 297.241 71.972 296.753 67.485 295.965 63.933 C 295.369 61.248 294.613 59.066 294.05 57.622 C 302.017 53.735 310.175 55.893 310.591 56.007 C 311.108 56.148 311.567 56.512 311.783 57 C 311.826 57.103 312.24 58.031 312.592 59.616 C 313.481 63.624 313.872 71.052 308.589 79.404 C 304.861 77.543 300.737 76.616 296.571 76.702 Z " fill="rgb(255,228,202)"/><path d=" M 81.096 79.264 L 81.096 79.264 L 81.096 79.264 Q 81.096 80.715 80.723 82.055 L 80.723 82.055 L 80.723 82.055 Q 80.349 83.395 79.661 84.56 L 79.661 84.56 L 79.661 84.56 Q 78.972 85.724 78.02 86.684 L 78.02 86.684 L 78.02 86.684 Q 77.068 87.643 75.896 88.332 L 75.896 88.332 L 75.896 88.332 Q 74.724 89.02 73.384 89.394 L 73.384 89.394 L 73.384 89.394 Q 72.044 89.767 70.593 89.767 L 70.593 89.767 L 64.265 89.767 L 64.265 68.761 L 70.593 68.761 L 70.593 68.761 Q 72.044 68.761 73.384 69.135 L 73.384 69.135 L 73.384 69.135 Q 74.724 69.508 75.896 70.197 L 75.896 70.197 L 75.896 70.197 Q 77.068 70.885 78.02 71.845 L 78.02 71.845 L 78.02 71.845 Q 78.972 72.804 79.661 73.969 L 79.661 73.969 L 79.661 73.969 Q 80.349 75.133 80.723 76.474 L 80.723 76.474 L 80.723 76.474 Q 81.096 77.814 81.096 79.264 Z  M 76.892 79.264 L 76.892 79.264 L 76.892 79.264 Q 76.892 77.961 76.401 76.818 L 76.401 76.818 L 76.401 76.818 Q 75.911 75.675 75.054 74.819 L 75.054 74.819 L 75.054 74.819 Q 74.197 73.962 73.047 73.464 L 73.047 73.464 L 73.047 73.464 Q 71.897 72.965 70.593 72.965 L 70.593 72.965 L 68.499 72.965 L 68.499 85.563 L 70.593 85.563 L 70.593 85.563 Q 71.897 85.563 73.047 85.072 L 73.047 85.072 L 73.047 85.072 Q 74.197 84.582 75.054 83.725 L 75.054 83.725 L 75.054 83.725 Q 75.911 82.868 76.401 81.718 L 76.401 81.718 L 76.401 81.718 Q 76.892 80.568 76.892 79.264 Z  M 97.195 76.891 L 89.695 85.929 L 89.695 85.929 Q 89.929 86.003 90.164 86.025 L 90.164 86.025 L 90.164 86.025 Q 90.398 86.047 90.632 86.047 L 90.632 86.047 L 90.632 86.047 Q 91.218 86.047 91.76 85.885 L 91.76 85.885 L 91.76 85.885 Q 92.302 85.724 92.778 85.424 L 92.778 85.424 L 92.778 85.424 Q 93.254 85.124 93.628 84.692 L 93.628 84.692 L 93.628 84.692 Q 94.002 84.259 94.236 83.732 L 94.236 83.732 L 97.166 86.676 L 97.166 86.676 Q 96.609 87.467 95.884 88.097 L 95.884 88.097 L 95.884 88.097 Q 95.159 88.727 94.316 89.167 L 94.316 89.167 L 94.316 89.167 Q 93.474 89.606 92.544 89.833 L 92.544 89.833 L 92.544 89.833 Q 91.614 90.06 90.632 90.06 L 90.632 90.06 L 90.632 90.06 Q 88.977 90.06 87.52 89.445 L 87.52 89.445 L 87.52 89.445 Q 86.062 88.83 84.971 87.731 L 84.971 87.731 L 84.971 87.731 Q 83.879 86.632 83.25 85.116 L 83.25 85.116 L 83.25 85.116 Q 82.62 83.6 82.62 81.784 L 82.62 81.784 L 82.62 81.784 Q 82.62 79.923 83.25 78.385 L 83.25 78.385 L 83.25 78.385 Q 83.879 76.847 84.971 75.763 L 84.971 75.763 L 84.971 75.763 Q 86.062 74.679 87.52 74.079 L 87.52 74.079 L 87.52 74.079 Q 88.977 73.478 90.632 73.478 L 90.632 73.478 L 90.632 73.478 Q 91.614 73.478 92.551 73.713 L 92.551 73.713 L 92.551 73.713 Q 93.489 73.947 94.331 74.386 L 94.331 74.386 L 94.331 74.386 Q 95.173 74.826 95.906 75.463 L 95.906 75.463 L 95.906 75.463 Q 96.638 76.1 97.195 76.891 L 97.195 76.891 L 97.195 76.891 Z  M 87.087 83.864 L 91.746 77.682 L 91.746 77.682 Q 91.467 77.58 91.196 77.55 L 91.196 77.55 L 91.196 77.55 Q 90.925 77.521 90.632 77.521 L 90.632 77.521 L 90.632 77.521 Q 89.812 77.521 89.087 77.821 L 89.087 77.821 L 89.087 77.821 Q 88.362 78.122 87.827 78.678 L 87.827 78.678 L 87.827 78.678 Q 87.293 79.235 86.985 80.019 L 86.985 80.019 L 86.985 80.019 Q 86.677 80.802 86.677 81.784 L 86.677 81.784 L 86.677 81.784 Q 86.677 82.004 86.699 82.282 L 86.699 82.282 L 86.699 82.282 Q 86.721 82.56 86.773 82.846 L 86.773 82.846 L 86.773 82.846 Q 86.824 83.132 86.897 83.395 L 86.897 83.395 L 86.897 83.395 Q 86.97 83.659 87.087 83.864 L 87.087 83.864 L 87.087 83.864 Z " fill="rgb(255,114,19)"/><path d=" M 55.266 125.621 L 55.266 132.348 L 29.25 132.348 L 43.594 105.465 L 29.25 105.465 L 29.25 98.738 L 55.266 98.738 L 40.969 125.621 L 55.266 125.621 L 55.266 125.621 Z  M 74.273 121.824 L 74.273 132.348 L 67.57 132.348 L 67.57 121.824 L 67.57 121.824 Q 65.344 121.262 63.48 120.02 L 63.48 120.02 L 63.48 120.02 Q 61.617 118.777 60.281 117.055 L 60.281 117.055 L 60.281 117.055 Q 58.945 115.332 58.207 113.234 L 58.207 113.234 L 58.207 113.234 Q 57.469 111.137 57.469 108.816 L 57.469 108.816 L 57.469 98.738 L 64.195 98.738 L 64.195 108.816 L 64.195 108.816 Q 64.195 110.199 64.723 111.43 L 64.723 111.43 L 64.723 111.43 Q 65.25 112.66 66.164 113.574 L 66.164 113.574 L 66.164 113.574 Q 67.078 114.488 68.309 115.016 L 68.309 115.016 L 68.309 115.016 Q 69.539 115.543 70.922 115.543 L 70.922 115.543 L 70.922 115.543 Q 72.305 115.543 73.535 115.016 L 73.535 115.016 L 73.535 115.016 Q 74.766 114.488 75.68 113.574 L 75.68 113.574 L 75.68 113.574 Q 76.594 112.66 77.121 111.43 L 77.121 111.43 L 77.121 111.43 Q 77.648 110.199 77.648 108.816 L 77.648 108.816 L 77.648 98.738 L 84.352 98.738 L 84.352 108.816 L 84.352 108.816 Q 84.352 111.137 83.613 113.234 L 83.613 113.234 L 83.613 113.234 Q 82.875 115.332 81.539 117.055 L 81.539 117.055 L 81.539 117.055 Q 80.203 118.777 78.352 120.02 L 78.352 120.02 L 78.352 120.02 Q 76.5 121.262 74.273 121.824 L 74.273 121.824 L 74.273 121.824 Z  M 103.031 105.465 L 103.031 132.348 L 96.328 132.348 L 96.328 105.465 L 86.227 105.465 L 86.227 98.738 L 113.109 98.738 L 113.109 105.465 L 103.031 105.465 L 103.031 105.465 Z  M 123.398 118.918 L 123.398 132.348 L 116.672 132.348 L 116.672 98.738 L 123.398 98.738 L 123.398 112.191 L 136.828 112.191 L 136.828 98.738 L 143.555 98.738 L 143.555 132.348 L 136.828 132.348 L 136.828 118.918 L 123.398 118.918 L 123.398 118.918 Z  M 182.719 115.684 L 182.719 115.684 L 182.719 115.684 Q 182.719 118.074 182.098 120.289 L 182.098 120.289 L 182.098 120.289 Q 181.477 122.504 180.352 124.438 L 180.352 124.438 L 180.352 124.438 Q 179.227 126.371 177.633 127.965 L 177.633 127.965 L 177.633 127.965 Q 176.039 129.559 174.117 130.695 L 174.117 130.695 L 174.117 130.695 Q 172.195 131.832 169.969 132.453 L 169.969 132.453 L 169.969 132.453 Q 167.742 133.074 165.352 133.074 L 165.352 133.074 L 165.352 133.074 Q 162.961 133.074 160.746 132.453 L 160.746 132.453 L 160.746 132.453 Q 158.531 131.832 156.598 130.695 L 156.598 130.695 L 156.598 130.695 Q 154.664 129.559 153.07 127.965 L 153.07 127.965 L 153.07 127.965 Q 151.477 126.371 150.34 124.438 L 150.34 124.438 L 150.34 124.438 Q 149.203 122.504 148.582 120.289 L 148.582 120.289 L 148.582 120.289 Q 147.961 118.074 147.961 115.684 L 147.961 115.684 L 147.961 115.684 Q 147.961 113.293 148.582 111.066 L 148.582 111.066 L 148.582 111.066 Q 149.203 108.84 150.34 106.918 L 150.34 106.918 L 150.34 106.918 Q 151.477 104.996 153.07 103.402 L 153.07 103.402 L 153.07 103.402 Q 154.664 101.809 156.598 100.684 L 156.598 100.684 L 156.598 100.684 Q 158.531 99.559 160.746 98.938 L 160.746 98.938 L 160.746 98.938 Q 162.961 98.316 165.352 98.316 L 165.352 98.316 L 165.352 98.316 Q 167.742 98.316 169.969 98.938 L 169.969 98.938 L 169.969 98.938 Q 172.195 99.559 174.117 100.684 L 174.117 100.684 L 174.117 100.684 Q 176.039 101.809 177.633 103.402 L 177.633 103.402 L 177.633 103.402 Q 179.227 104.996 180.352 106.918 L 180.352 106.918 L 180.352 106.918 Q 181.477 108.84 182.098 111.066 L 182.098 111.066 L 182.098 111.066 Q 182.719 113.293 182.719 115.684 Z  M 176.039 115.684 L 176.039 115.684 L 176.039 115.684 Q 176.039 113.481 175.195 111.524 L 175.195 111.524 L 175.195 111.524 Q 174.352 109.566 172.91 108.125 L 172.91 108.125 L 172.91 108.125 Q 171.469 106.684 169.512 105.84 L 169.512 105.84 L 169.512 105.84 Q 167.555 104.996 165.352 104.996 L 165.352 104.996 L 165.352 104.996 Q 163.125 104.996 161.18 105.84 L 161.18 105.84 L 161.18 105.84 Q 159.234 106.684 157.781 108.125 L 157.781 108.125 L 157.781 108.125 Q 156.328 109.566 155.484 111.524 L 155.484 111.524 L 155.484 111.524 Q 154.641 113.481 154.641 115.684 L 154.641 115.684 L 154.641 115.684 Q 154.641 117.887 155.484 119.82 L 155.484 119.82 L 155.484 119.82 Q 156.328 121.754 157.781 123.207 L 157.781 123.207 L 157.781 123.207 Q 159.234 124.66 161.18 125.504 L 161.18 125.504 L 161.18 125.504 Q 163.125 126.348 165.352 126.348 L 165.352 126.348 L 165.352 126.348 Q 167.555 126.348 169.512 125.504 L 169.512 125.504 L 169.512 125.504 Q 171.469 124.66 172.91 123.207 L 172.91 123.207 L 172.91 123.207 Q 174.352 121.754 175.195 119.82 L 175.195 119.82 L 175.195 119.82 Q 176.039 117.887 176.039 115.684 Z  M 210.656 125.621 L 210.656 132.348 L 187.125 132.348 L 187.125 98.738 L 193.852 98.738 L 193.852 125.621 L 210.656 125.621 L 210.656 125.621 Z  M 245.93 115.684 L 245.93 115.684 L 245.93 115.684 Q 245.93 118.074 245.309 120.289 L 245.309 120.289 L 245.309 120.289 Q 244.688 122.504 243.563 124.438 L 243.563 124.438 L 243.563 124.438 Q 242.438 126.371 240.844 127.965 L 240.844 127.965 L 240.844 127.965 Q 239.25 129.559 237.328 130.695 L 237.328 130.695 L 237.328 130.695 Q 235.406 131.832 233.18 132.453 L 233.18 132.453 L 233.18 132.453 Q 230.953 133.074 228.563 133.074 L 228.563 133.074 L 228.563 133.074 Q 226.172 133.074 223.957 132.453 L 223.957 132.453 L 223.957 132.453 Q 221.742 131.832 219.809 130.695 L 219.809 130.695 L 219.809 130.695 Q 217.875 129.559 216.281 127.965 L 216.281 127.965 L 216.281 127.965 Q 214.688 126.371 213.551 124.438 L 213.551 124.438 L 213.551 124.438 Q 212.414 122.504 211.793 120.289 L 211.793 120.289 L 211.793 120.289 Q 211.172 118.074 211.172 115.684 L 211.172 115.684 L 211.172 115.684 Q 211.172 113.293 211.793 111.066 L 211.793 111.066 L 211.793 111.066 Q 212.414 108.84 213.551 106.918 L 213.551 106.918 L 213.551 106.918 Q 214.688 104.996 216.281 103.402 L 216.281 103.402 L 216.281 103.402 Q 217.875 101.809 219.809 100.684 L 219.809 100.684 L 219.809 100.684 Q 221.742 99.559 223.957 98.938 L 223.957 98.938 L 223.957 98.938 Q 226.172 98.316 228.563 98.316 L 228.563 98.316 L 228.563 98.316 Q 230.953 98.316 233.18 98.938 L 233.18 98.938 L 233.18 98.938 Q 235.406 99.559 237.328 100.684 L 237.328 100.684 L 237.328 100.684 Q 239.25 101.809 240.844 103.402 L 240.844 103.402 L 240.844 103.402 Q 242.438 104.996 243.563 106.918 L 243.563 106.918 L 243.563 106.918 Q 244.688 108.84 245.309 111.066 L 245.309 111.066 L 245.309 111.066 Q 245.93 113.293 245.93 115.684 Z  M 239.25 115.684 L 239.25 115.684 L 239.25 115.684 Q 239.25 113.481 238.406 111.524 L 238.406 111.524 L 238.406 111.524 Q 237.563 109.566 236.121 108.125 L 236.121 108.125 L 236.121 108.125 Q 234.68 106.684 232.723 105.84 L 232.723 105.84 L 232.723 105.84 Q 230.766 104.996 228.563 104.996 L 228.563 104.996 L 228.563 104.996 Q 226.336 104.996 224.391 105.84 L 224.391 105.84 L 224.391 105.84 Q 222.445 106.684 220.992 108.125 L 220.992 108.125 L 220.992 108.125 Q 219.539 109.566 218.695 111.524 L 218.695 111.524 L 218.695 111.524 Q 217.852 113.481 217.852 115.684 L 217.852 115.684 L 217.852 115.684 Q 217.852 117.887 218.695 119.82 L 218.695 119.82 L 218.695 119.82 Q 219.539 121.754 220.992 123.207 L 220.992 123.207 L 220.992 123.207 Q 222.445 124.66 224.391 125.504 L 224.391 125.504 L 224.391 125.504 Q 226.336 126.348 228.563 126.348 L 228.563 126.348 L 228.563 126.348 Q 230.766 126.348 232.723 125.504 L 232.723 125.504 L 232.723 125.504 Q 234.68 124.66 236.121 123.207 L 236.121 123.207 L 236.121 123.207 Q 237.563 121.754 238.406 119.82 L 238.406 119.82 L 238.406 119.82 Q 239.25 117.887 239.25 115.684 Z  M 277.078 115.684 L 277.078 128.949 L 277.078 128.949 Q 274.734 130.941 271.852 132.008 L 271.852 132.008 L 271.852 132.008 Q 268.969 133.074 265.852 133.074 L 265.852 133.074 L 265.852 133.074 Q 263.461 133.074 261.246 132.453 L 261.246 132.453 L 261.246 132.453 Q 259.031 131.832 257.109 130.695 L 257.109 130.695 L 257.109 130.695 Q 255.188 129.559 253.594 127.977 L 253.594 127.977 L 253.594 127.977 Q 252 126.395 250.875 124.461 L 250.875 124.461 L 250.875 124.461 Q 249.75 122.527 249.129 120.301 L 249.129 120.301 L 249.129 120.301 Q 248.508 118.074 248.508 115.684 L 248.508 115.684 L 248.508 115.684 Q 248.508 113.293 249.129 111.09 L 249.129 111.09 L 249.129 111.09 Q 249.75 108.887 250.875 106.953 L 250.875 106.953 L 250.875 106.953 Q 252 105.02 253.594 103.438 L 253.594 103.438 L 253.594 103.438 Q 255.188 101.856 257.109 100.731 L 257.109 100.731 L 257.109 100.731 Q 259.031 99.606 261.246 98.984 L 261.246 98.984 L 261.246 98.984 Q 263.461 98.363 265.852 98.363 L 265.852 98.363 L 265.852 98.363 Q 268.969 98.363 271.852 99.43 L 271.852 99.43 L 271.852 99.43 Q 274.734 100.496 277.078 102.488 L 277.078 102.488 L 273.563 108.348 L 273.563 108.348 Q 272.039 106.801 270.047 105.922 L 270.047 105.922 L 270.047 105.922 Q 268.055 105.043 265.852 105.043 L 265.852 105.043 L 265.852 105.043 Q 263.648 105.043 261.715 105.887 L 261.715 105.887 L 261.715 105.887 Q 259.781 106.731 258.328 108.172 L 258.328 108.172 L 258.328 108.172 Q 256.875 109.613 256.031 111.547 L 256.031 111.547 L 256.031 111.547 Q 255.188 113.481 255.188 115.684 L 255.188 115.684 L 255.188 115.684 Q 255.188 117.91 256.031 119.856 L 256.031 119.856 L 256.031 119.856 Q 256.875 121.801 258.328 123.254 L 258.328 123.254 L 258.328 123.254 Q 259.781 124.707 261.715 125.551 L 261.715 125.551 L 261.715 125.551 Q 263.648 126.395 265.852 126.395 L 265.852 126.395 L 265.852 126.395 Q 267.117 126.395 268.313 126.09 L 268.313 126.09 L 268.313 126.09 Q 269.508 125.785 270.586 125.246 L 270.586 125.246 L 270.586 115.684 L 277.078 115.684 L 277.078 115.684 Z  M 288.984 98.738 L 288.984 132.348 L 282.258 132.348 L 282.258 98.738 L 288.984 98.738 L 288.984 98.738 Z  M 318.258 125.621 L 318.258 132.348 L 295.219 132.348 L 295.219 98.738 L 318.258 98.738 L 318.258 105.465 L 301.945 105.465 L 301.945 112.191 L 312.984 112.191 L 312.984 118.918 L 301.945 118.918 L 301.945 125.621 L 318.258 125.621 L 318.258 125.621 Z " fill="rgb(0,0,0)"/><path d=" M 76.04 33.258 L 76.04 60.141 L 69.337 60.141 L 69.337 33.258 L 59.236 33.258 L 59.236 26.532 L 86.119 26.532 L 86.119 33.258 L 76.04 33.258 L 76.04 33.258 Z  M 95.001 46.712 L 108.455 46.712 L 108.455 39.985 L 108.455 39.985 Q 108.455 38.602 107.927 37.372 L 107.927 37.372 L 107.927 37.372 Q 107.4 36.141 106.486 35.227 L 106.486 35.227 L 106.486 35.227 Q 105.572 34.313 104.341 33.786 L 104.341 33.786 L 104.341 33.786 Q 103.111 33.258 101.728 33.258 L 101.728 33.258 L 101.728 33.258 Q 100.345 33.258 99.115 33.786 L 99.115 33.786 L 99.115 33.786 Q 97.884 34.313 96.97 35.227 L 96.97 35.227 L 96.97 35.227 Q 96.056 36.141 95.529 37.372 L 95.529 37.372 L 95.529 37.372 Q 95.001 38.602 95.001 39.985 L 95.001 39.985 L 95.001 46.712 L 95.001 46.712 Z  M 115.181 39.985 L 115.181 60.141 L 108.455 60.141 L 108.455 53.415 L 95.001 53.415 L 95.001 60.141 L 88.298 60.141 L 88.298 39.985 L 88.298 39.985 Q 88.298 37.196 89.353 34.747 L 89.353 34.747 L 89.353 34.747 Q 90.408 32.297 92.224 30.469 L 92.224 30.469 L 92.224 30.469 Q 94.04 28.641 96.49 27.587 L 96.49 27.587 L 96.49 27.587 Q 98.939 26.532 101.728 26.532 L 101.728 26.532 L 101.728 26.532 Q 104.517 26.532 106.966 27.587 L 106.966 27.587 L 106.966 27.587 Q 109.415 28.641 111.244 30.469 L 111.244 30.469 L 111.244 30.469 Q 113.072 32.297 114.126 34.747 L 114.126 34.747 L 114.126 34.747 Q 115.181 37.196 115.181 39.985 L 115.181 39.985 L 115.181 39.985 Z " fill="rgb(0,0,0)"/><path d=" M 186.111 53.415 L 186.111 60.141 L 163.072 60.141 L 163.072 26.532 L 186.111 26.532 L 186.111 33.258 L 169.798 33.258 L 169.798 39.985 L 180.838 39.985 L 180.838 46.712 L 169.798 46.712 L 169.798 53.415 L 186.111 53.415 L 186.111 53.415 Z  M 204.275 33.258 L 197.548 33.258 L 197.548 46.712 L 204.275 46.712 L 204.275 46.712 Q 205.658 46.712 206.877 46.184 L 206.877 46.184 L 206.877 46.184 Q 208.095 45.657 209.009 44.743 L 209.009 44.743 L 209.009 44.743 Q 209.923 43.829 210.451 42.598 L 210.451 42.598 L 210.451 42.598 Q 210.978 41.368 210.978 39.985 L 210.978 39.985 L 210.978 39.985 Q 210.978 38.602 210.451 37.372 L 210.451 37.372 L 210.451 37.372 Q 209.923 36.141 209.009 35.227 L 209.009 35.227 L 209.009 35.227 Q 208.095 34.313 206.877 33.786 L 206.877 33.786 L 206.877 33.786 Q 205.658 33.258 204.275 33.258 L 204.275 33.258 L 204.275 33.258 Z  M 197.548 53.415 L 197.548 60.141 L 190.822 60.141 L 190.822 26.532 L 204.275 26.532 L 204.275 26.532 Q 206.127 26.532 207.838 27.012 L 207.838 27.012 L 207.838 27.012 Q 209.548 27.493 211.037 28.372 L 211.037 28.372 L 211.037 28.372 Q 212.525 29.251 213.755 30.481 L 213.755 30.481 L 213.755 30.481 Q 214.986 31.712 215.865 33.212 L 215.865 33.212 L 215.865 33.212 Q 216.744 34.712 217.224 36.422 L 217.224 36.422 L 217.224 36.422 Q 217.705 38.133 217.705 39.985 L 217.705 39.985 L 217.705 39.985 Q 217.705 41.719 217.271 43.36 L 217.271 43.36 L 217.271 43.36 Q 216.838 45.001 216.029 46.477 L 216.029 46.477 L 216.029 46.477 Q 215.22 47.954 214.048 49.196 L 214.048 49.196 L 214.048 49.196 Q 212.877 50.438 211.423 51.352 L 211.423 51.352 L 215.15 60.141 L 208.002 60.141 L 205.072 53.368 L 197.548 53.415 L 197.548 53.415 Z  M 248.994 26.532 L 248.994 60.141 L 241.798 60.141 L 228.838 38.016 L 228.838 60.141 L 222.111 60.141 L 222.111 26.532 L 229.306 26.532 L 242.267 48.68 L 242.267 26.532 L 248.994 26.532 L 248.994 26.532 Z  M 278.267 53.415 L 278.267 60.141 L 255.228 60.141 L 255.228 26.532 L 278.267 26.532 L 278.267 33.258 L 261.955 33.258 L 261.955 39.985 L 272.994 39.985 L 272.994 46.712 L 261.955 46.712 L 261.955 53.415 L 278.267 53.415 L 278.267 53.415 Z " fill="rgb(0,0,0)"/><path d=" M 163.931 68.761 L 163.931 89.767 L 159.727 89.767 L 159.727 68.761 L 163.931 68.761 L 163.931 68.761 Z  M 184.629 68.761 L 184.629 89.767 L 180.132 89.767 L 172.031 75.939 L 172.031 89.767 L 167.827 89.767 L 167.827 68.761 L 172.324 68.761 L 180.425 82.604 L 180.425 68.761 L 184.629 68.761 L 184.629 68.761 Z  M 187.295 75.06 L 187.295 75.06 L 187.295 75.06 Q 187.295 73.757 187.793 72.614 L 187.793 72.614 L 187.793 72.614 Q 188.291 71.471 189.148 70.614 L 189.148 70.614 L 189.148 70.614 Q 190.005 69.757 191.148 69.259 L 191.148 69.259 L 191.148 69.259 Q 192.29 68.761 193.594 68.761 L 193.594 68.761 L 203.233 68.761 L 203.233 72.965 L 193.594 72.965 L 193.594 72.965 Q 193.154 72.965 192.774 73.127 L 192.774 73.127 L 192.774 73.127 Q 192.393 73.288 192.107 73.573 L 192.107 73.573 L 192.107 73.573 Q 191.821 73.859 191.66 74.24 L 191.66 74.24 L 191.66 74.24 Q 191.499 74.621 191.499 75.06 L 191.499 75.06 L 191.499 75.06 Q 191.499 75.5 191.66 75.888 L 191.66 75.888 L 191.66 75.888 Q 191.821 76.276 192.107 76.562 L 192.107 76.562 L 192.107 76.562 Q 192.393 76.847 192.774 77.008 L 192.774 77.008 L 192.774 77.008 Q 193.154 77.17 193.594 77.17 L 193.594 77.17 L 197.798 77.17 L 197.798 77.17 Q 199.102 77.17 200.252 77.66 L 200.252 77.66 L 200.252 77.66 Q 201.401 78.151 202.258 79.008 L 202.258 79.008 L 202.258 79.008 Q 203.115 79.865 203.606 81.015 L 203.606 81.015 L 203.606 81.015 Q 204.097 82.165 204.097 83.468 L 204.097 83.468 L 204.097 83.468 Q 204.097 84.772 203.606 85.915 L 203.606 85.915 L 203.606 85.915 Q 203.115 87.057 202.258 87.914 L 202.258 87.914 L 202.258 87.914 Q 201.401 88.771 200.252 89.269 L 200.252 89.269 L 200.252 89.269 Q 199.102 89.767 197.798 89.767 L 197.798 89.767 L 188.467 89.767 L 188.467 85.563 L 197.798 85.563 L 197.798 85.563 Q 198.237 85.563 198.618 85.402 L 198.618 85.402 L 198.618 85.402 Q 198.999 85.241 199.285 84.955 L 199.285 84.955 L 199.285 84.955 Q 199.57 84.67 199.732 84.289 L 199.732 84.289 L 199.732 84.289 Q 199.893 83.908 199.893 83.468 L 199.893 83.468 L 199.893 83.468 Q 199.893 83.029 199.732 82.648 L 199.732 82.648 L 199.732 82.648 Q 199.57 82.267 199.285 81.982 L 199.285 81.982 L 199.285 81.982 Q 198.999 81.696 198.618 81.535 L 198.618 81.535 L 198.618 81.535 Q 198.237 81.374 197.798 81.374 L 197.798 81.374 L 193.594 81.374 L 193.594 81.374 Q 192.29 81.374 191.148 80.876 L 191.148 80.876 L 191.148 80.876 Q 190.005 80.378 189.148 79.521 L 189.148 79.521 L 189.148 79.521 Q 188.291 78.664 187.793 77.514 L 187.793 77.514 L 187.793 77.514 Q 187.295 76.364 187.295 75.06 Z  M 210.806 81.374 L 219.214 81.374 L 219.214 77.17 L 219.214 77.17 Q 219.214 76.305 218.884 75.536 L 218.884 75.536 L 218.884 75.536 Q 218.555 74.767 217.983 74.196 L 217.983 74.196 L 217.983 74.196 Q 217.412 73.625 216.643 73.295 L 216.643 73.295 L 216.643 73.295 Q 215.874 72.965 215.01 72.965 L 215.01 72.965 L 215.01 72.965 Q 214.146 72.965 213.377 73.295 L 213.377 73.295 L 213.377 73.295 Q 212.608 73.625 212.036 74.196 L 212.036 74.196 L 212.036 74.196 Q 211.465 74.767 211.135 75.536 L 211.135 75.536 L 211.135 75.536 Q 210.806 76.305 210.806 77.17 L 210.806 77.17 L 210.806 81.374 L 210.806 81.374 Z  M 223.418 77.17 L 223.418 89.767 L 219.214 89.767 L 219.214 85.563 L 210.806 85.563 L 210.806 89.767 L 206.616 89.767 L 206.616 77.17 L 206.616 77.17 Q 206.616 75.426 207.275 73.896 L 207.275 73.896 L 207.275 73.896 Q 207.935 72.365 209.07 71.222 L 209.07 71.222 L 209.07 71.222 Q 210.205 70.08 211.736 69.421 L 211.736 69.421 L 211.736 69.421 Q 213.267 68.761 215.01 68.761 L 215.01 68.761 L 215.01 68.761 Q 216.753 68.761 218.284 69.421 L 218.284 69.421 L 218.284 69.421 Q 219.815 70.08 220.957 71.222 L 220.957 71.222 L 220.957 71.222 Q 222.1 72.365 222.759 73.896 L 222.759 73.896 L 222.759 73.896 Q 223.418 75.426 223.418 77.17 L 223.418 77.17 L 223.418 77.17 Z  M 241.773 85.563 L 241.773 89.767 L 227.066 89.767 L 227.066 68.761 L 231.27 68.761 L 231.27 85.563 L 241.773 85.563 L 241.773 85.563 Z  M 248.159 68.761 L 248.159 89.767 L 243.955 89.767 L 243.955 68.761 L 248.159 68.761 L 248.159 68.761 Z  M 266.455 85.563 L 266.455 89.767 L 252.056 89.767 L 252.056 68.761 L 266.455 68.761 L 266.455 72.965 L 256.26 72.965 L 256.26 77.17 L 263.159 77.17 L 263.159 81.374 L 256.26 81.374 L 256.26 85.563 L 266.455 85.563 L 266.455 85.563 Z  M 286.201 68.761 L 286.201 89.767 L 281.704 89.767 L 273.604 75.939 L 273.604 89.767 L 269.4 89.767 L 269.4 68.761 L 273.897 68.761 L 281.997 82.604 L 281.997 68.761 L 286.201 68.761 L 286.201 68.761 Z  M 306.9 68.761 L 306.9 89.767 L 302.402 89.767 L 294.302 75.939 L 294.302 89.767 L 290.098 89.767 L 290.098 68.761 L 294.595 68.761 L 302.695 82.604 L 302.695 68.761 L 306.9 68.761 L 306.9 68.761 Z  M 325.195 85.563 L 325.195 89.767 L 310.796 89.767 L 310.796 68.761 L 325.195 68.761 L 325.195 72.965 L 315 72.965 L 315 77.17 L 321.9 77.17 L 321.9 81.374 L 315 81.374 L 315 85.563 L 325.195 85.563 L 325.195 85.563 Z " fill="rgb(255,114,19)"/><path d=" M 46.377 55.099 L 46.377 59.303 L 31.67 59.303 L 31.67 38.297 L 35.874 38.297 L 35.874 55.099 L 46.377 55.099 L 46.377 55.099 Z  M 62.929 43.644 L 62.929 59.303 L 61.963 59.303 L 60.41 57.15 L 60.41 57.15 Q 59.839 57.662 59.201 58.109 L 59.201 58.109 L 59.201 58.109 Q 58.564 58.556 57.861 58.886 L 57.861 58.886 L 57.861 58.886 Q 57.158 59.215 56.418 59.406 L 56.418 59.406 L 56.418 59.406 Q 55.679 59.596 54.917 59.596 L 54.917 59.596 L 54.917 59.596 Q 53.262 59.596 51.804 59.039 L 51.804 59.039 L 51.804 59.039 Q 50.346 58.483 49.255 57.421 L 49.255 57.421 L 49.255 57.421 Q 48.164 56.359 47.534 54.821 L 47.534 54.821 L 47.534 54.821 Q 46.904 53.283 46.904 51.32 L 46.904 51.32 L 46.904 51.32 Q 46.904 49.489 47.534 47.958 L 47.534 47.958 L 47.534 47.958 Q 48.164 46.427 49.255 45.328 L 49.255 45.328 L 49.255 45.328 Q 50.346 44.23 51.804 43.622 L 51.804 43.622 L 51.804 43.622 Q 53.262 43.014 54.917 43.014 L 54.917 43.014 L 54.917 43.014 Q 55.679 43.014 56.426 43.204 L 56.426 43.204 L 56.426 43.204 Q 57.173 43.395 57.876 43.732 L 57.876 43.732 L 57.876 43.732 Q 58.579 44.069 59.216 44.523 L 59.216 44.523 L 59.216 44.523 Q 59.853 44.977 60.41 45.504 L 60.41 45.504 L 61.963 43.644 L 62.929 43.644 L 62.929 43.644 Z  M 58.901 51.32 L 58.901 51.32 L 58.901 51.32 Q 58.901 50.499 58.586 49.73 L 58.586 49.73 L 58.586 49.73 Q 58.271 48.961 57.729 48.368 L 57.729 48.368 L 57.729 48.368 Q 57.187 47.775 56.462 47.416 L 56.462 47.416 L 56.462 47.416 Q 55.737 47.057 54.917 47.057 L 54.917 47.057 L 54.917 47.057 Q 54.096 47.057 53.371 47.335 L 53.371 47.335 L 53.371 47.335 Q 52.646 47.614 52.112 48.156 L 52.112 48.156 L 52.112 48.156 Q 51.577 48.698 51.269 49.496 L 51.269 49.496 L 51.269 49.496 Q 50.962 50.294 50.962 51.32 L 50.962 51.32 L 50.962 51.32 Q 50.962 52.345 51.269 53.143 L 51.269 53.143 L 51.269 53.143 Q 51.577 53.942 52.112 54.484 L 52.112 54.484 L 52.112 54.484 Q 52.646 55.026 53.371 55.304 L 53.371 55.304 L 53.371 55.304 Q 54.096 55.582 54.917 55.582 L 54.917 55.582 L 54.917 55.582 Q 55.737 55.582 56.462 55.223 L 56.462 55.223 L 56.462 55.223 Q 57.187 54.865 57.729 54.271 L 57.729 54.271 L 57.729 54.271 Q 58.271 53.678 58.586 52.909 L 58.586 52.909 L 58.586 52.909 Q 58.901 52.14 58.901 51.32 Z " fill="rgb(255,114,19)"/><g><path d=" M 123.535 24.185 C 122.691 29.996 121.684 37.141 122.26 44.899 C 125.137 59.135 130.482 60.096 130.696 69.317 C 130.827 74.994 129.558 77.476 128.019 85.157 C 126 93.588 127.942 92.724 139.902 92.721 C 151.893 92.653 154.06 93.396 152.024 85.157 C 150.8 78.675 149.028 75.011 149.109 69.317 C 149.239 60.088 155.273 59.495 157.525 44.899 C 157.887 35.75 157.197 30.123 156.269 24.185" fill="none" vector-effect="non-scaling-stroke" stroke-width="2" stroke="rgb(0,0,0)" stroke-linejoin="miter" stroke-linecap="square" stroke-miterlimit="3"/><g><g><g><g><path d=" M 157.939 41.268 C 157.724 51.353 152.497 57.874 149.764 64.996 C 148.466 69.877 149.572 72.468 149.572 73.426 C 149.572 74.512 150.63 77.237 150.991 80.686 C 151.302 83.633 152.389 86.974 152.602 89.734 C 152.665 90.505 152.421 91.268 151.93 91.835 C 151.445 92.404 150.758 92.726 150.039 92.722 L 129.838 92.722 L 129.838 92.72 C 129.111 92.72 128.439 92.406 127.947 91.833 C 127.456 91.266 127.211 90.503 127.275 89.732 C 127.488 86.972 128.672 83.632 128.982 80.684 C 129.344 77.237 130.488 74.512 130.488 73.426 C 130.488 72.468 131.354 69.877 130.056 64.996 C 128.111 57.688 122.001 52.324 121.939 41.268 L 157.939 41.268 L 157.939 41.268 Z " fill="rgb(255,114,19)"/><g><g><g><path d=" M 122.51 41.22 L 122.99 31.946 Q 127.169 20.253 131.706 15.387 C 134.477 12.415 139.019 9.335 140.817 8.346 C 142.022 7.684 143.993 6.982 144.698 8.011 C 145.989 9.897 138.51 11.378 135.421 14.147 C 131.932 17.955 130.633 24.223 131.706 24.274 C 132.063 24.291 133.668 22.883 134.931 22.964 C 136.444 23.062 138.356 23.588 138.313 25.299 C 138.296 25.991 138.014 26.565 137.519 27.046 C 136.52 28.013 135.152 26.745 133.926 27.105 C 133.067 27.357 132.285 27.589 131.673 28.261 C 130.411 29.645 130.867 31.537 131.66 33.121 C 133.389 36.577 140.12 35.385 140.817 33.935 C 141.674 32.452 139.108 32.181 139.019 32.136 C 137.975 31.614 135.214 32.27 135.421 30.54 C 135.567 29.314 138.763 28.202 141.282 28.261 C 143.03 28.302 144.662 28.964 145.499 30.54 C 146.767 32.929 142.531 34.27 142.872 36.727 C 143.021 37.806 142.974 39.016 143.995 39.584 C 144.749 40.004 146.023 40.318 146.346 39.584 C 147.002 38.094 145.523 36.98 146.228 35.749 C 147.212 34.031 149.3 34.23 151.121 34.33 C 153.344 34.451 155.505 35.089 156.625 37.095 C 157.122 37.984 157.211 38.87 157.322 39.873 Q 157.412 40.689 157.322 42.205 L 122.51 42.875 L 122.51 41.22 Z " fill="rgb(255,114,19)"/><path d=" M 124.087 39.732 Q 123.903 34.828 124.312 32.203 C 125.079 27.285 127.117 23.321 129.653 19.063 C 132.346 14.54 134.108 15.13 133.198 16.407 C 132.24 17.447 131.313 19.911 130.738 21.957 C 130.348 23.343 129.818 25.956 130.024 25.974 C 130.339 25.988 131.494 24.786 133.622 24.274 C 135.097 24.274 138.113 24.617 137.22 25.974 C 136.348 27.312 135.795 25.418 133.622 25.974 C 131.452 26.388 130.487 27.316 129.849 28.538 C 129.197 29.786 127.796 32.615 130.024 38.639 C 131.081 41.499 134.687 41.149 137.22 40.107 C 139.214 39.287 140.716 35.852 140.817 35.734 C 141.778 34.613 142.775 32.18 141.177 31.135 C 140.094 30.427 137.056 31.598 137.22 30.337 C 137.349 29.341 138.802 29.163 141.023 29.211 C 142.565 29.244 144.348 29.563 144.742 31.062 C 145.043 32.203 143.777 32.887 143.42 33.935 C 142.874 35.537 142.131 36.844 142.616 38.639 C 143.64 42.424 153.084 42.592 152.244 39.332 C 151.725 37.314 147.078 38.234 147.361 36.085 C 147.518 34.891 151.446 34.846 153.468 36.384 C 154.163 36.912 155.056 37.697 155.569 38.639 Q 156.66 40.644 155.209 44.728 L 124.627 44.728 L 124.087 39.732 Z " fill="rgb(255,137,34)"/></g></g></g><path d=" M 155.501 43.222 C 155.501 48.049 149.739 57.672 148.086 64.233 C 146.983 68.615 147.06 69.903 147.063 71.8 C 147.635 75.081 147.959 75.045 148.498 78.317 C 148.762 80.963 150.495 85.515 150.676 87.993 C 150.729 88.685 150.521 89.37 150.105 89.879 C 149.693 90.39 149.109 90.679 148.498 90.675 L 131.338 90.675 L 131.338 90.674 C 130.72 90.674 130.149 90.392 129.731 89.877 C 129.314 89.368 129.106 88.683 129.16 87.991 C 129.341 85.513 131.074 80.963 131.338 78.317 C 132.135 74.937 132.351 75.261 132.742 71.8 C 132.746 69.435 132.821 68.615 131.719 64.233 C 130.066 57.672 124.537 47.757 124.537 42.93 L 155.209 42.93 L 155.501 43.222 Z " fill="rgb(255,137,34)"/></g><circle vector-effect="non-scaling-stroke" cx="148.91265545925145" cy="32.20464084441001" r="0.8994647350362186" fill="rgb(255,137,34)"/><circle vector-effect="non-scaling-stroke" cx="146.33773199496662" cy="13.247190755975495" r="0.8994647350362186" fill="rgb(255,114,19)"/><circle vector-effect="non-scaling-stroke" cx="153.40997913443266" cy="28.53809125159117" r="1.7989294700724372" fill="rgb(255,114,19)"/><circle vector-effect="non-scaling-stroke" cx="140.81747284392546" cy="23.141302841373914" r="1.7989294700724372" fill="rgb(255,137,34)"/></g><path d=" M 156.178 24.185 C 157.022 29.996 158.029 37.141 157.454 44.899 C 154.577 59.135 149.231 60.096 149.017 69.317 C 148.886 74.994 150.156 77.476 151.694 85.157 C 153.713 93.588 151.771 92.724 139.811 92.721 C 127.82 92.653 125.653 93.396 127.689 85.157 C 128.914 78.675 130.685 75.011 130.605 69.317 C 130.474 60.088 124.44 59.495 122.188 44.899 C 121.827 35.75 122.517 30.123 123.444 24.185" fill="none" vector-effect="non-scaling-stroke" stroke-width="2" stroke="rgb(0,0,0)" stroke-linejoin="miter" stroke-linecap="square" stroke-miterlimit="3"/></g></g></g></g></svg>