<?xml version="1.0" encoding="UTF-8" standalone="no"?><!-- Generator: Gravit.io --><svg xmlns="http://www.w3.org/2000/svg" xmlns:xlink="http://www.w3.org/1999/xlink" style="isolation:isolate" viewBox="0 0 300 160" width="300pt" height="160pt"><defs><clipPath id="_clipPath_x7bOM79eGFYARdTMa7KhTfJCIHpWIQUp"><rect width="300" height="160"/></clipPath></defs><g clip-path="url(#_clipPath_x7bOM79eGFYARdTMa7KhTfJCIHpWIQUp)"><path d=" M 31.184 133.847 L 31.184 138.892 L 11.672 138.892 L 22.43 118.73 L 11.672 118.73 L 11.672 113.685 L 31.184 113.685 L 20.461 133.847 L 31.184 133.847 L 31.184 133.847 Z  M 45.44 130.999 L 45.44 138.892 L 40.412 138.892 L 40.412 130.999 L 40.412 130.999 Q 38.742 130.577 37.345 129.646 L 37.345 129.646 L 37.345 129.646 Q 35.948 128.714 34.946 127.422 L 34.946 127.422 L 34.946 127.422 Q 33.944 126.13 33.39 124.557 L 33.39 124.557 L 33.39 124.557 Q 32.836 122.984 32.836 121.243 L 32.836 121.243 L 32.836 113.685 L 37.881 113.685 L 37.881 121.243 L 37.881 121.243 Q 37.881 122.281 38.277 123.203 L 38.277 123.203 L 38.277 123.203 Q 38.672 124.126 39.358 124.812 L 39.358 124.812 L 39.358 124.812 Q 40.043 125.497 40.966 125.893 L 40.966 125.893 L 40.966 125.893 Q 41.889 126.288 42.926 126.288 L 42.926 126.288 L 42.926 126.288 Q 43.963 126.288 44.886 125.893 L 44.886 125.893 L 44.886 125.893 Q 45.809 125.497 46.494 124.812 L 46.494 124.812 L 46.494 124.812 Q 47.18 124.126 47.575 123.203 L 47.575 123.203 L 47.575 123.203 Q 47.971 122.281 47.971 121.243 L 47.971 121.243 L 47.971 113.685 L 52.998 113.685 L 52.998 121.243 L 52.998 121.243 Q 52.998 122.984 52.445 124.557 L 52.445 124.557 L 52.445 124.557 Q 51.891 126.13 50.889 127.422 L 50.889 127.422 L 50.889 127.422 Q 49.887 128.714 48.498 129.646 L 48.498 129.646 L 48.498 129.646 Q 47.11 130.577 45.44 130.999 L 45.44 130.999 L 45.44 130.999 Z  M 67.008 118.73 L 67.008 138.892 L 61.981 138.892 L 61.981 118.73 L 54.405 118.73 L 54.405 113.685 L 74.567 113.685 L 74.567 118.73 L 67.008 118.73 L 67.008 118.73 Z  M 82.283 128.82 L 82.283 138.892 L 77.239 138.892 L 77.239 113.685 L 82.283 113.685 L 82.283 123.775 L 92.356 123.775 L 92.356 113.685 L 97.401 113.685 L 97.401 138.892 L 92.356 138.892 L 92.356 128.82 L 82.283 128.82 L 82.283 128.82 Z  M 126.774 126.394 L 126.774 126.394 L 126.774 126.394 Q 126.774 128.187 126.308 129.848 L 126.308 129.848 L 126.308 129.848 Q 125.842 131.509 124.998 132.959 L 124.998 132.959 L 124.998 132.959 Q 124.155 134.41 122.959 135.605 L 122.959 135.605 L 122.959 135.605 Q 121.764 136.8 120.323 137.653 L 120.323 137.653 L 120.323 137.653 Q 118.881 138.505 117.211 138.971 L 117.211 138.971 L 117.211 138.971 Q 115.541 139.437 113.748 139.437 L 113.748 139.437 L 113.748 139.437 Q 111.955 139.437 110.294 138.971 L 110.294 138.971 L 110.294 138.971 Q 108.633 138.505 107.183 137.653 L 107.183 137.653 L 107.183 137.653 Q 105.733 136.8 104.537 135.605 L 104.537 135.605 L 104.537 135.605 Q 103.342 134.41 102.49 132.959 L 102.49 132.959 L 102.49 132.959 Q 101.637 131.509 101.171 129.848 L 101.171 129.848 L 101.171 129.848 Q 100.705 128.187 100.705 126.394 L 100.705 126.394 L 100.705 126.394 Q 100.705 124.601 101.171 122.931 L 101.171 122.931 L 101.171 122.931 Q 101.637 121.261 102.49 119.82 L 102.49 119.82 L 102.49 119.82 Q 103.342 118.378 104.537 117.183 L 104.537 117.183 L 104.537 117.183 Q 105.733 115.988 107.183 115.144 L 107.183 115.144 L 107.183 115.144 Q 108.633 114.3 110.294 113.834 L 110.294 113.834 L 110.294 113.834 Q 111.955 113.368 113.748 113.368 L 113.748 113.368 L 113.748 113.368 Q 115.541 113.368 117.211 113.834 L 117.211 113.834 L 117.211 113.834 Q 118.881 114.3 120.323 115.144 L 120.323 115.144 L 120.323 115.144 Q 121.764 115.988 122.959 117.183 L 122.959 117.183 L 122.959 117.183 Q 124.155 118.378 124.998 119.82 L 124.998 119.82 L 124.998 119.82 Q 125.842 121.261 126.308 122.931 L 126.308 122.931 L 126.308 122.931 Q 126.774 124.601 126.774 126.394 Z  M 121.764 126.394 L 121.764 126.394 L 121.764 126.394 Q 121.764 124.742 121.131 123.274 L 121.131 123.274 L 121.131 123.274 Q 120.498 121.806 119.417 120.725 L 119.417 120.725 L 119.417 120.725 Q 118.336 119.644 116.868 119.011 L 116.868 119.011 L 116.868 119.011 Q 115.401 118.378 113.748 118.378 L 113.748 118.378 L 113.748 118.378 Q 112.078 118.378 110.619 119.011 L 110.619 119.011 L 110.619 119.011 Q 109.16 119.644 108.071 120.725 L 108.071 120.725 L 108.071 120.725 Q 106.981 121.806 106.348 123.274 L 106.348 123.274 L 106.348 123.274 Q 105.715 124.742 105.715 126.394 L 105.715 126.394 L 105.715 126.394 Q 105.715 128.046 106.348 129.496 L 106.348 129.496 L 106.348 129.496 Q 106.981 130.947 108.071 132.036 L 108.071 132.036 L 108.071 132.036 Q 109.16 133.126 110.619 133.759 L 110.619 133.759 L 110.619 133.759 Q 112.078 134.392 113.748 134.392 L 113.748 134.392 L 113.748 134.392 Q 115.401 134.392 116.868 133.759 L 116.868 133.759 L 116.868 133.759 Q 118.336 133.126 119.417 132.036 L 119.417 132.036 L 119.417 132.036 Q 120.498 130.947 121.131 129.496 L 121.131 129.496 L 121.131 129.496 Q 121.764 128.046 121.764 126.394 Z  M 147.727 133.847 L 147.727 138.892 L 130.078 138.892 L 130.078 113.685 L 135.123 113.685 L 135.123 133.847 L 147.727 133.847 L 147.727 133.847 Z  M 174.182 126.394 L 174.182 126.394 L 174.182 126.394 Q 174.182 128.187 173.716 129.848 L 173.716 129.848 L 173.716 129.848 Q 173.25 131.509 172.407 132.959 L 172.407 132.959 L 172.407 132.959 Q 171.563 134.41 170.367 135.605 L 170.367 135.605 L 170.367 135.605 Q 169.172 136.8 167.731 137.653 L 167.731 137.653 L 167.731 137.653 Q 166.289 138.505 164.619 138.971 L 164.619 138.971 L 164.619 138.971 Q 162.949 139.437 161.157 139.437 L 161.157 139.437 L 161.157 139.437 Q 159.364 139.437 157.702 138.971 L 157.702 138.971 L 157.702 138.971 Q 156.041 138.505 154.591 137.653 L 154.591 137.653 L 154.591 137.653 Q 153.141 136.8 151.946 135.605 L 151.946 135.605 L 151.946 135.605 Q 150.75 134.41 149.898 132.959 L 149.898 132.959 L 149.898 132.959 Q 149.045 131.509 148.579 129.848 L 148.579 129.848 L 148.579 129.848 Q 148.114 128.187 148.114 126.394 L 148.114 126.394 L 148.114 126.394 Q 148.114 124.601 148.579 122.931 L 148.579 122.931 L 148.579 122.931 Q 149.045 121.261 149.898 119.82 L 149.898 119.82 L 149.898 119.82 Q 150.75 118.378 151.946 117.183 L 151.946 117.183 L 151.946 117.183 Q 153.141 115.988 154.591 115.144 L 154.591 115.144 L 154.591 115.144 Q 156.041 114.3 157.702 113.834 L 157.702 113.834 L 157.702 113.834 Q 159.364 113.368 161.157 113.368 L 161.157 113.368 L 161.157 113.368 Q 162.949 113.368 164.619 113.834 L 164.619 113.834 L 164.619 113.834 Q 166.289 114.3 167.731 115.144 L 167.731 115.144 L 167.731 115.144 Q 169.172 115.988 170.367 117.183 L 170.367 117.183 L 170.367 117.183 Q 171.563 118.378 172.407 119.82 L 172.407 119.82 L 172.407 119.82 Q 173.25 121.261 173.716 122.931 L 173.716 122.931 L 173.716 122.931 Q 174.182 124.601 174.182 126.394 Z  M 169.172 126.394 L 169.172 126.394 L 169.172 126.394 Q 169.172 124.742 168.539 123.274 L 168.539 123.274 L 168.539 123.274 Q 167.907 121.806 166.825 120.725 L 166.825 120.725 L 166.825 120.725 Q 165.744 119.644 164.277 119.011 L 164.277 119.011 L 164.277 119.011 Q 162.809 118.378 161.157 118.378 L 161.157 118.378 L 161.157 118.378 Q 159.487 118.378 158.028 119.011 L 158.028 119.011 L 158.028 119.011 Q 156.569 119.644 155.479 120.725 L 155.479 120.725 L 155.479 120.725 Q 154.389 121.806 153.756 123.274 L 153.756 123.274 L 153.756 123.274 Q 153.123 124.742 153.123 126.394 L 153.123 126.394 L 153.123 126.394 Q 153.123 128.046 153.756 129.496 L 153.756 129.496 L 153.756 129.496 Q 154.389 130.947 155.479 132.036 L 155.479 132.036 L 155.479 132.036 Q 156.569 133.126 158.028 133.759 L 158.028 133.759 L 158.028 133.759 Q 159.487 134.392 161.157 134.392 L 161.157 134.392 L 161.157 134.392 Q 162.809 134.392 164.277 133.759 L 164.277 133.759 L 164.277 133.759 Q 165.744 133.126 166.825 132.036 L 166.825 132.036 L 166.825 132.036 Q 167.907 130.947 168.539 129.496 L 168.539 129.496 L 168.539 129.496 Q 169.172 128.046 169.172 126.394 Z  M 197.543 126.394 L 197.543 136.343 L 197.543 136.343 Q 195.785 137.837 193.623 138.637 L 193.623 138.637 L 193.623 138.637 Q 191.461 139.437 189.123 139.437 L 189.123 139.437 L 189.123 139.437 Q 187.33 139.437 185.669 138.971 L 185.669 138.971 L 185.669 138.971 Q 184.008 138.505 182.567 137.653 L 182.567 137.653 L 182.567 137.653 Q 181.125 136.8 179.93 135.614 L 179.93 135.614 L 179.93 135.614 Q 178.735 134.427 177.891 132.977 L 177.891 132.977 L 177.891 132.977 Q 177.047 131.527 176.581 129.857 L 176.581 129.857 L 176.581 129.857 Q 176.115 128.187 176.115 126.394 L 176.115 126.394 L 176.115 126.394 Q 176.115 124.601 176.581 122.949 L 176.581 122.949 L 176.581 122.949 Q 177.047 121.296 177.891 119.846 L 177.891 119.846 L 177.891 119.846 Q 178.735 118.396 179.93 117.209 L 179.93 117.209 L 179.93 117.209 Q 181.125 116.023 182.567 115.179 L 182.567 115.179 L 182.567 115.179 Q 184.008 114.335 185.669 113.869 L 185.669 113.869 L 185.669 113.869 Q 187.33 113.404 189.123 113.404 L 189.123 113.404 L 189.123 113.404 Q 191.461 113.404 193.623 114.203 L 193.623 114.203 L 193.623 114.203 Q 195.785 115.003 197.543 116.497 L 197.543 116.497 L 194.907 120.892 L 194.907 120.892 Q 193.764 119.732 192.27 119.073 L 192.27 119.073 L 192.27 119.073 Q 190.776 118.413 189.123 118.413 L 189.123 118.413 L 189.123 118.413 Q 187.471 118.413 186.021 119.046 L 186.021 119.046 L 186.021 119.046 Q 184.571 119.679 183.481 120.76 L 183.481 120.76 L 183.481 120.76 Q 182.391 121.841 181.758 123.291 L 181.758 123.291 L 181.758 123.291 Q 181.125 124.742 181.125 126.394 L 181.125 126.394 L 181.125 126.394 Q 181.125 128.064 181.758 129.523 L 181.758 129.523 L 181.758 129.523 Q 182.391 130.982 183.481 132.072 L 183.481 132.072 L 183.481 132.072 Q 184.571 133.161 186.021 133.794 L 186.021 133.794 L 186.021 133.794 Q 187.471 134.427 189.123 134.427 L 189.123 134.427 L 189.123 134.427 Q 190.073 134.427 190.969 134.199 L 190.969 134.199 L 190.969 134.199 Q 191.865 133.97 192.674 133.566 L 192.674 133.566 L 192.674 126.394 L 197.543 126.394 L 197.543 126.394 Z  M 206.473 113.685 L 206.473 138.892 L 201.428 138.892 L 201.428 113.685 L 206.473 113.685 L 206.473 113.685 Z  M 228.428 133.847 L 228.428 138.892 L 211.149 138.892 L 211.149 113.685 L 228.428 113.685 L 228.428 118.73 L 216.194 118.73 L 216.194 123.775 L 224.473 123.775 L 224.473 128.82 L 216.194 128.82 L 216.194 133.847 L 228.428 133.847 L 228.428 133.847 Z " fill="rgb(0,0,0)"/><path d=" M 33.879 43.469 L 33.879 70.352 L 27.176 70.352 L 27.176 43.469 L 17.074 43.469 L 17.074 36.743 L 43.957 36.743 L 43.957 43.469 L 33.879 43.469 L 33.879 43.469 Z  M 52.84 56.923 L 66.293 56.923 L 66.293 50.196 L 66.293 50.196 Q 66.293 48.813 65.766 47.583 L 65.766 47.583 L 65.766 47.583 Q 65.239 46.352 64.324 45.438 L 64.324 45.438 L 64.324 45.438 Q 63.41 44.524 62.18 43.997 L 62.18 43.997 L 62.18 43.997 Q 60.949 43.469 59.567 43.469 L 59.567 43.469 L 59.567 43.469 Q 58.184 43.469 56.953 43.997 L 56.953 43.997 L 56.953 43.997 Q 55.723 44.524 54.809 45.438 L 54.809 45.438 L 54.809 45.438 Q 53.895 46.352 53.367 47.583 L 53.367 47.583 L 53.367 47.583 Q 52.84 48.813 52.84 50.196 L 52.84 50.196 L 52.84 56.923 L 52.84 56.923 Z  M 73.02 50.196 L 73.02 70.352 L 66.293 70.352 L 66.293 63.626 L 52.84 63.626 L 52.84 70.352 L 46.137 70.352 L 46.137 50.196 L 46.137 50.196 Q 46.137 47.407 47.192 44.958 L 47.192 44.958 L 47.192 44.958 Q 48.246 42.509 50.063 40.68 L 50.063 40.68 L 50.063 40.68 Q 51.879 38.852 54.328 37.798 L 54.328 37.798 L 54.328 37.798 Q 56.778 36.743 59.567 36.743 L 59.567 36.743 L 59.567 36.743 Q 62.356 36.743 64.805 37.798 L 64.805 37.798 L 64.805 37.798 Q 67.254 38.852 69.082 40.68 L 69.082 40.68 L 69.082 40.68 Q 70.91 42.509 71.965 44.958 L 71.965 44.958 L 71.965 44.958 Q 73.02 47.407 73.02 50.196 L 73.02 50.196 L 73.02 50.196 Z  M 96.129 36.743 L 103.817 36.743 L 92.778 70.352 L 86.051 70.352 L 75.059 36.743 L 82.699 36.743 L 89.403 59.173 L 96.129 36.743 L 96.129 36.743 Z  M 130.067 63.626 L 130.067 70.352 L 107.028 70.352 L 107.028 36.743 L 130.067 36.743 L 130.067 43.469 L 113.754 43.469 L 113.754 50.196 L 124.793 50.196 L 124.793 56.923 L 113.754 56.923 L 113.754 63.626 L 130.067 63.626 L 130.067 63.626 Z  M 148.231 43.469 L 141.504 43.469 L 141.504 56.923 L 148.231 56.923 L 148.231 56.923 Q 149.614 56.923 150.832 56.395 L 150.832 56.395 L 150.832 56.395 Q 152.051 55.868 152.965 54.954 L 152.965 54.954 L 152.965 54.954 Q 153.879 54.04 154.407 52.809 L 154.407 52.809 L 154.407 52.809 Q 154.934 51.579 154.934 50.196 L 154.934 50.196 L 154.934 50.196 Q 154.934 48.813 154.407 47.583 L 154.407 47.583 L 154.407 47.583 Q 153.879 46.352 152.965 45.438 L 152.965 45.438 L 152.965 45.438 Q 152.051 44.524 150.832 43.997 L 150.832 43.997 L 150.832 43.997 Q 149.614 43.469 148.231 43.469 L 148.231 43.469 L 148.231 43.469 Z  M 141.504 63.626 L 141.504 70.352 L 134.778 70.352 L 134.778 36.743 L 148.231 36.743 L 148.231 36.743 Q 150.082 36.743 151.793 37.223 L 151.793 37.223 L 151.793 37.223 Q 153.504 37.704 154.992 38.583 L 154.992 38.583 L 154.992 38.583 Q 156.481 39.462 157.711 40.692 L 157.711 40.692 L 157.711 40.692 Q 158.942 41.923 159.821 43.423 L 159.821 43.423 L 159.821 43.423 Q 160.699 44.923 161.18 46.634 L 161.18 46.634 L 161.18 46.634 Q 161.66 48.344 161.66 50.196 L 161.66 50.196 L 161.66 50.196 Q 161.66 51.93 161.227 53.571 L 161.227 53.571 L 161.227 53.571 Q 160.793 55.212 159.985 56.688 L 159.985 56.688 L 159.985 56.688 Q 159.176 58.165 158.004 59.407 L 158.004 59.407 L 158.004 59.407 Q 156.832 60.649 155.379 61.563 L 155.379 61.563 L 159.106 70.352 L 151.957 70.352 L 149.028 63.579 L 141.504 63.626 L 141.504 63.626 Z  M 192.949 36.743 L 192.949 70.352 L 185.754 70.352 L 172.793 48.227 L 172.793 70.352 L 166.067 70.352 L 166.067 36.743 L 173.262 36.743 L 186.223 58.891 L 186.223 36.743 L 192.949 36.743 L 192.949 36.743 Z  M 222.223 63.626 L 222.223 70.352 L 199.184 70.352 L 199.184 36.743 L 222.223 36.743 L 222.223 43.469 L 205.91 43.469 L 205.91 50.196 L 216.949 50.196 L 216.949 56.923 L 205.91 56.923 L 205.91 63.626 L 222.223 63.626 L 222.223 63.626 Z " fill="rgb(0,0,0)"/><path d=" M 209.737 92.475 L 209.737 92.475 L 209.737 92.475 Q 209.737 93.926 209.363 95.266 L 209.363 95.266 L 209.363 95.266 Q 208.99 96.606 208.301 97.771 L 208.301 97.771 L 208.301 97.771 Q 207.613 98.935 206.66 99.895 L 206.66 99.895 L 206.66 99.895 Q 205.708 100.854 204.536 101.543 L 204.536 101.543 L 204.536 101.543 Q 203.365 102.231 202.024 102.605 L 202.024 102.605 L 202.024 102.605 Q 200.684 102.978 199.234 102.978 L 199.234 102.978 L 192.906 102.978 L 192.906 81.972 L 199.234 81.972 L 199.234 81.972 Q 200.684 81.972 202.024 82.346 L 202.024 82.346 L 202.024 82.346 Q 203.365 82.72 204.536 83.408 L 204.536 83.408 L 204.536 83.408 Q 205.708 84.097 206.66 85.056 L 206.66 85.056 L 206.66 85.056 Q 207.613 86.015 208.301 87.18 L 208.301 87.18 L 208.301 87.18 Q 208.99 88.345 209.363 89.685 L 209.363 89.685 L 209.363 89.685 Q 209.737 91.025 209.737 92.475 Z  M 205.532 92.475 L 205.532 92.475 L 205.532 92.475 Q 205.532 91.172 205.042 90.029 L 205.042 90.029 L 205.042 90.029 Q 204.551 88.887 203.694 88.03 L 203.694 88.03 L 203.694 88.03 Q 202.837 87.173 201.687 86.675 L 201.687 86.675 L 201.687 86.675 Q 200.537 86.177 199.234 86.177 L 199.234 86.177 L 197.139 86.177 L 197.139 98.774 L 199.234 98.774 L 199.234 98.774 Q 200.537 98.774 201.687 98.284 L 201.687 98.284 L 201.687 98.284 Q 202.837 97.793 203.694 96.936 L 203.694 96.936 L 203.694 96.936 Q 204.551 96.079 205.042 94.929 L 205.042 94.929 L 205.042 94.929 Q 205.532 93.779 205.532 92.475 Z  M 225.835 90.102 L 218.335 99.14 L 218.335 99.14 Q 218.57 99.214 218.804 99.236 L 218.804 99.236 L 218.804 99.236 Q 219.038 99.258 219.273 99.258 L 219.273 99.258 L 219.273 99.258 Q 219.859 99.258 220.401 99.097 L 220.401 99.097 L 220.401 99.097 Q 220.943 98.935 221.419 98.635 L 221.419 98.635 L 221.419 98.635 Q 221.895 98.335 222.268 97.903 L 222.268 97.903 L 222.268 97.903 Q 222.642 97.471 222.876 96.943 L 222.876 96.943 L 225.806 99.888 L 225.806 99.888 Q 225.249 100.679 224.524 101.308 L 224.524 101.308 L 224.524 101.308 Q 223.799 101.938 222.957 102.378 L 222.957 102.378 L 222.957 102.378 Q 222.115 102.817 221.184 103.044 L 221.184 103.044 L 221.184 103.044 Q 220.254 103.271 219.273 103.271 L 219.273 103.271 L 219.273 103.271 Q 217.617 103.271 216.16 102.656 L 216.16 102.656 L 216.16 102.656 Q 214.702 102.041 213.611 100.942 L 213.611 100.942 L 213.611 100.942 Q 212.52 99.844 211.89 98.327 L 211.89 98.327 L 211.89 98.327 Q 211.26 96.811 211.26 94.995 L 211.26 94.995 L 211.26 94.995 Q 211.26 93.135 211.89 91.597 L 211.89 91.597 L 211.89 91.597 Q 212.52 90.058 213.611 88.974 L 213.611 88.974 L 213.611 88.974 Q 214.702 87.89 216.16 87.29 L 216.16 87.29 L 216.16 87.29 Q 217.617 86.689 219.273 86.689 L 219.273 86.689 L 219.273 86.689 Q 220.254 86.689 221.192 86.924 L 221.192 86.924 L 221.192 86.924 Q 222.129 87.158 222.971 87.597 L 222.971 87.597 L 222.971 87.597 Q 223.814 88.037 224.546 88.674 L 224.546 88.674 L 224.546 88.674 Q 225.279 89.311 225.835 90.102 L 225.835 90.102 L 225.835 90.102 Z  M 215.728 97.075 L 220.386 90.893 L 220.386 90.893 Q 220.108 90.791 219.837 90.762 L 219.837 90.762 L 219.837 90.762 Q 219.566 90.732 219.273 90.732 L 219.273 90.732 L 219.273 90.732 Q 218.452 90.732 217.727 91.033 L 217.727 91.033 L 217.727 91.033 Q 217.002 91.333 216.468 91.889 L 216.468 91.889 L 216.468 91.889 Q 215.933 92.446 215.625 93.23 L 215.625 93.23 L 215.625 93.23 Q 215.318 94.014 215.318 94.995 L 215.318 94.995 L 215.318 94.995 Q 215.318 95.215 215.34 95.493 L 215.34 95.493 L 215.34 95.493 Q 215.362 95.771 215.413 96.057 L 215.413 96.057 L 215.413 96.057 Q 215.464 96.343 215.537 96.606 L 215.537 96.606 L 215.537 96.606 Q 215.611 96.87 215.728 97.075 L 215.728 97.075 L 215.728 97.075 Z  M 20.303 81.972 L 20.303 102.978 L 16.099 102.978 L 16.099 81.972 L 20.303 81.972 L 20.303 81.972 Z  M 41.001 81.972 L 41.001 102.978 L 36.504 102.978 L 28.404 89.15 L 28.404 102.978 L 24.199 102.978 L 24.199 81.972 L 28.697 81.972 L 36.797 95.815 L 36.797 81.972 L 41.001 81.972 L 41.001 81.972 Z  M 43.667 88.271 L 43.667 88.271 L 43.667 88.271 Q 43.667 86.968 44.165 85.825 L 44.165 85.825 L 44.165 85.825 Q 44.663 84.682 45.52 83.826 L 45.52 83.826 L 45.52 83.826 Q 46.377 82.969 47.52 82.471 L 47.52 82.471 L 47.52 82.471 Q 48.662 81.972 49.966 81.972 L 49.966 81.972 L 59.605 81.972 L 59.605 86.177 L 49.966 86.177 L 49.966 86.177 Q 49.527 86.177 49.146 86.338 L 49.146 86.338 L 49.146 86.338 Q 48.765 86.499 48.479 86.785 L 48.479 86.785 L 48.479 86.785 Q 48.194 87.07 48.032 87.451 L 48.032 87.451 L 48.032 87.451 Q 47.871 87.832 47.871 88.271 L 47.871 88.271 L 47.871 88.271 Q 47.871 88.711 48.032 89.099 L 48.032 89.099 L 48.032 89.099 Q 48.194 89.487 48.479 89.773 L 48.479 89.773 L 48.479 89.773 Q 48.765 90.058 49.146 90.22 L 49.146 90.22 L 49.146 90.22 Q 49.527 90.381 49.966 90.381 L 49.966 90.381 L 54.17 90.381 L 54.17 90.381 Q 55.474 90.381 56.624 90.871 L 56.624 90.871 L 56.624 90.871 Q 57.774 91.362 58.631 92.219 L 58.631 92.219 L 58.631 92.219 Q 59.488 93.076 59.978 94.226 L 59.978 94.226 L 59.978 94.226 Q 60.469 95.376 60.469 96.68 L 60.469 96.68 L 60.469 96.68 Q 60.469 97.983 59.978 99.126 L 59.978 99.126 L 59.978 99.126 Q 59.488 100.268 58.631 101.125 L 58.631 101.125 L 58.631 101.125 Q 57.774 101.982 56.624 102.48 L 56.624 102.48 L 56.624 102.48 Q 55.474 102.978 54.17 102.978 L 54.17 102.978 L 44.839 102.978 L 44.839 98.774 L 54.17 98.774 L 54.17 98.774 Q 54.61 98.774 54.99 98.613 L 54.99 98.613 L 54.99 98.613 Q 55.371 98.452 55.657 98.166 L 55.657 98.166 L 55.657 98.166 Q 55.943 97.881 56.104 97.5 L 56.104 97.5 L 56.104 97.5 Q 56.265 97.119 56.265 96.68 L 56.265 96.68 L 56.265 96.68 Q 56.265 96.24 56.104 95.859 L 56.104 95.859 L 56.104 95.859 Q 55.943 95.478 55.657 95.193 L 55.657 95.193 L 55.657 95.193 Q 55.371 94.907 54.99 94.746 L 54.99 94.746 L 54.99 94.746 Q 54.61 94.585 54.17 94.585 L 54.17 94.585 L 49.966 94.585 L 49.966 94.585 Q 48.662 94.585 47.52 94.087 L 47.52 94.087 L 47.52 94.087 Q 46.377 93.589 45.52 92.732 L 45.52 92.732 L 45.52 92.732 Q 44.663 91.875 44.165 90.725 L 44.165 90.725 L 44.165 90.725 Q 43.667 89.575 43.667 88.271 Z  M 67.178 94.585 L 75.586 94.585 L 75.586 90.381 L 75.586 90.381 Q 75.586 89.516 75.257 88.747 L 75.257 88.747 L 75.257 88.747 Q 74.927 87.978 74.356 87.407 L 74.356 87.407 L 74.356 87.407 Q 73.784 86.836 73.015 86.506 L 73.015 86.506 L 73.015 86.506 Q 72.246 86.177 71.382 86.177 L 71.382 86.177 L 71.382 86.177 Q 70.518 86.177 69.749 86.506 L 69.749 86.506 L 69.749 86.506 Q 68.98 86.836 68.408 87.407 L 68.408 87.407 L 68.408 87.407 Q 67.837 87.978 67.508 88.747 L 67.508 88.747 L 67.508 88.747 Q 67.178 89.516 67.178 90.381 L 67.178 90.381 L 67.178 94.585 L 67.178 94.585 Z  M 79.79 90.381 L 79.79 102.978 L 75.586 102.978 L 75.586 98.774 L 67.178 98.774 L 67.178 102.978 L 62.989 102.978 L 62.989 90.381 L 62.989 90.381 Q 62.989 88.638 63.648 87.107 L 63.648 87.107 L 63.648 87.107 Q 64.307 85.576 65.442 84.433 L 65.442 84.433 L 65.442 84.433 Q 66.577 83.291 68.108 82.632 L 68.108 82.632 L 68.108 82.632 Q 69.639 81.972 71.382 81.972 L 71.382 81.972 L 71.382 81.972 Q 73.125 81.972 74.656 82.632 L 74.656 82.632 L 74.656 82.632 Q 76.187 83.291 77.329 84.433 L 77.329 84.433 L 77.329 84.433 Q 78.472 85.576 79.131 87.107 L 79.131 87.107 L 79.131 87.107 Q 79.79 88.638 79.79 90.381 L 79.79 90.381 L 79.79 90.381 Z  M 98.145 98.774 L 98.145 102.978 L 83.438 102.978 L 83.438 81.972 L 87.642 81.972 L 87.642 98.774 L 98.145 98.774 L 98.145 98.774 Z  M 104.532 81.972 L 104.532 102.978 L 100.327 102.978 L 100.327 81.972 L 104.532 81.972 L 104.532 81.972 Z  M 122.827 98.774 L 122.827 102.978 L 108.428 102.978 L 108.428 81.972 L 122.827 81.972 L 122.827 86.177 L 112.632 86.177 L 112.632 90.381 L 119.532 90.381 L 119.532 94.585 L 112.632 94.585 L 112.632 98.774 L 122.827 98.774 L 122.827 98.774 Z  M 142.573 81.972 L 142.573 102.978 L 138.076 102.978 L 129.976 89.15 L 129.976 102.978 L 125.772 102.978 L 125.772 81.972 L 130.269 81.972 L 138.369 95.815 L 138.369 81.972 L 142.573 81.972 L 142.573 81.972 Z  M 163.272 81.972 L 163.272 102.978 L 158.775 102.978 L 150.674 89.15 L 150.674 102.978 L 146.47 102.978 L 146.47 81.972 L 150.967 81.972 L 159.068 95.815 L 159.068 81.972 L 163.272 81.972 L 163.272 81.972 Z  M 181.568 98.774 L 181.568 102.978 L 167.168 102.978 L 167.168 81.972 L 181.568 81.972 L 181.568 86.177 L 171.372 86.177 L 171.372 90.381 L 178.272 90.381 L 178.272 94.585 L 171.372 94.585 L 171.372 98.774 L 181.568 98.774 L 181.568 98.774 Z " fill="rgb(255,114,19)"/><g><path d=" M 233.321 33.497 C 231.938 43.021 230.287 54.73 231.23 67.445 C 235.945 90.777 244.706 92.351 245.056 107.463 C 245.272 116.767 243.191 120.836 240.67 133.423 C 237.36 147.24 240.543 145.826 260.144 145.821 C 279.796 145.708 283.348 146.926 280.011 133.423 C 278.004 122.8 275.101 116.796 275.233 107.463 C 275.446 92.338 285.336 91.366 289.026 67.445 C 289.619 52.451 288.488 43.229 286.968 33.497" fill="none" vector-effect="non-scaling-stroke" stroke-width="2" stroke="rgb(0,0,0)" stroke-linejoin="miter" stroke-linecap="square" stroke-miterlimit="3"/><g><g><g><g><path d=" M 289.704 61.494 C 289.352 78.023 280.786 88.71 276.307 100.383 C 274.18 108.382 275.992 112.628 275.992 114.197 C 275.992 115.977 277.726 120.443 278.318 126.096 C 278.827 130.927 280.609 136.402 280.958 140.925 C 281.061 142.188 280.661 143.438 279.857 144.367 C 279.062 145.301 277.936 145.829 276.758 145.822 L 243.65 145.822 L 243.65 145.819 C 242.459 145.819 241.358 145.304 240.551 144.364 C 239.746 143.436 239.346 142.185 239.45 140.922 C 239.798 136.399 241.739 130.924 242.248 126.093 C 242.841 120.443 244.716 115.977 244.716 114.197 C 244.716 112.628 246.135 108.382 244.008 100.383 C 240.819 88.406 230.806 79.614 230.704 61.494 L 289.704 61.494 L 289.704 61.494 Z " fill="rgb(255,114,19)"/><g><g><g><path d=" M 231.641 61.416 L 232.427 46.216 Q 239.275 27.053 246.711 19.079 C 251.253 14.208 258.696 9.159 261.644 7.539 C 263.618 6.455 266.848 5.304 268.004 6.99 C 270.121 10.08 257.862 12.508 252.8 17.045 C 247.083 23.287 244.954 33.56 246.711 33.643 C 247.297 33.671 249.928 31.363 251.997 31.497 C 254.477 31.657 257.611 32.519 257.54 35.322 C 257.512 36.458 257.05 37.398 256.238 38.186 C 254.602 39.772 252.359 37.693 250.35 38.283 C 248.942 38.696 247.661 39.076 246.657 40.177 C 244.59 42.445 245.337 45.547 246.636 48.143 C 249.47 53.806 260.502 51.853 261.644 49.476 C 263.048 47.046 258.844 46.602 258.696 46.528 C 256.986 45.673 252.462 46.748 252.8 43.912 C 253.039 41.903 258.277 40.08 262.406 40.177 C 265.27 40.244 267.945 41.329 269.317 43.912 C 271.396 47.828 264.453 50.026 265.011 54.053 C 265.256 55.82 265.178 57.803 266.852 58.735 C 268.087 59.423 270.176 59.938 270.705 58.735 C 271.781 56.293 269.356 54.467 270.512 52.449 C 272.124 49.634 275.546 49.961 278.531 50.124 C 282.175 50.323 285.715 51.368 287.552 54.655 C 288.366 56.112 288.511 57.565 288.693 59.209 Q 288.841 60.546 288.693 63.03 L 231.641 64.128 L 231.641 61.416 Z " fill="rgb(255,114,19)"/><path d=" M 234.226 58.978 Q 233.923 50.94 234.594 46.637 C 235.851 38.578 239.192 32.082 243.347 25.103 C 247.761 17.69 250.648 18.658 249.156 20.749 C 247.587 22.454 246.068 26.493 245.126 29.845 C 244.487 32.118 243.617 36.399 243.955 36.43 C 244.472 36.452 246.364 34.482 249.851 33.643 C 252.27 33.643 257.213 34.205 255.748 36.43 C 254.319 38.621 253.412 35.518 249.851 36.43 C 246.295 37.107 244.714 38.629 243.668 40.631 C 242.6 42.677 240.304 47.313 243.955 57.186 C 245.688 61.873 251.597 61.299 255.748 59.592 C 259.017 58.248 261.479 52.618 261.644 52.424 C 263.218 50.588 264.852 46.6 262.234 44.888 C 260.459 43.727 255.48 45.646 255.748 43.58 C 255.959 41.948 258.341 41.656 261.982 41.734 C 264.508 41.789 267.431 42.312 268.077 44.767 C 268.569 46.638 266.495 47.759 265.909 49.476 C 265.015 52.102 263.797 54.244 264.593 57.186 C 266.269 63.388 281.748 63.665 280.372 58.321 C 279.521 55.014 271.905 56.521 272.369 53 C 272.627 51.042 279.064 50.969 282.378 53.489 C 283.516 54.355 284.979 55.641 285.82 57.186 Q 287.608 60.471 285.23 67.166 L 235.11 67.166 L 234.226 58.978 Z " fill="rgb(255,137,34)"/></g></g></g><path d=" M 285.709 64.696 C 285.709 72.608 276.265 88.378 273.556 99.131 C 271.75 106.312 271.874 108.423 271.88 111.533 C 272.818 116.91 273.348 116.852 274.233 122.213 C 274.665 126.55 277.505 134.01 277.801 138.071 C 277.888 139.205 277.548 140.327 276.865 141.162 C 276.19 141.999 275.234 142.474 274.233 142.468 L 246.108 142.468 L 246.108 142.465 C 245.096 142.465 244.16 142.003 243.475 141.159 C 242.791 140.325 242.451 139.202 242.54 138.069 C 242.836 134.008 245.676 126.55 246.108 122.213 C 247.415 116.675 247.769 117.205 248.409 111.533 C 248.417 107.657 248.539 106.312 246.733 99.131 C 244.024 88.378 234.963 72.129 234.963 64.217 L 285.23 64.217 L 285.709 64.696 Z " fill="rgb(255,137,34)"/></g><circle vector-effect="non-scaling-stroke" cx="274.9114897736832" cy="46.64051250088391" r="1.4741227601982132" fill="rgb(255,137,34)"/><circle vector-effect="non-scaling-stroke" cx="270.69147631832755" cy="15.571358189283" r="1.4741227601982132" fill="rgb(255,114,19)"/><circle vector-effect="non-scaling-stroke" cx="282.28210357467447" cy="40.6314451126531" r="2.9482455203964832" fill="rgb(255,114,19)"/><circle vector-effect="non-scaling-stroke" cx="261.64438493189886" cy="31.786708551463725" r="2.9482455203964832" fill="rgb(255,137,34)"/></g><path d=" M 286.819 33.497 C 288.202 43.021 289.852 54.73 288.909 67.445 C 284.194 90.777 275.433 92.351 275.083 107.463 C 274.868 116.767 276.948 120.836 279.47 133.423 C 282.779 147.24 279.597 145.826 259.995 145.821 C 240.344 145.708 236.792 146.926 240.129 133.423 C 242.135 122.8 245.038 116.796 244.907 107.463 C 244.693 92.338 234.803 91.366 231.113 67.445 C 230.52 52.451 231.652 43.229 233.171 33.497" fill="none" vector-effect="non-scaling-stroke" stroke-width="2" stroke="rgb(0,0,0)" stroke-linejoin="miter" stroke-linecap="square" stroke-miterlimit="3"/></g></g></g></g></svg>