<?xml version="1.0" encoding="UTF-8" standalone="no"?><!-- Generator: Gravit.io --><svg xmlns="http://www.w3.org/2000/svg" xmlns:xlink="http://www.w3.org/1999/xlink" style="isolation:isolate" viewBox="0 0 560 315" width="560pt" height="315pt"><defs><clipPath id="_clipPath_ncOcBXiYiTIvuNV2TVKUPg9VTLAzsIMv"><rect width="560" height="315"/></clipPath></defs><g clip-path="url(#_clipPath_ncOcBXiYiTIvuNV2TVKUPg9VTLAzsIMv)"><g><g><rect x="107.331" y="182.626" width="61.704" height="7.352" transform="matrix(1,0,0,1,0,0)" fill="rgb(255,255,255)"/><path d=" M 84.479 130.954 L 88.053 136.833 L 88.053 136.833 Q 85.702 138.855 82.786 139.937 L 82.786 139.937 L 82.786 139.937 Q 79.87 141.019 76.742 141.019 L 76.742 141.019 L 76.742 141.019 Q 74.343 141.019 72.121 140.396 L 72.121 140.396 L 72.121 140.396 Q 69.899 139.772 67.959 138.632 L 67.959 138.632 L 67.959 138.632 Q 66.019 137.491 64.42 135.892 L 64.42 135.892 L 64.42 135.892 Q 62.821 134.293 61.68 132.353 L 61.68 132.353 L 61.68 132.353 Q 60.54 130.413 59.917 128.191 L 59.917 128.191 L 59.917 128.191 Q 59.293 125.969 59.293 123.57 L 59.293 123.57 L 59.293 123.57 Q 59.293 121.171 59.917 118.937 L 59.917 118.937 L 59.917 118.937 Q 60.54 116.703 61.68 114.763 L 61.68 114.763 L 61.68 114.763 Q 62.821 112.823 64.42 111.224 L 64.42 111.224 L 64.42 111.224 Q 66.019 109.625 67.959 108.485 L 67.959 108.485 L 67.959 108.485 Q 69.899 107.344 72.121 106.721 L 72.121 106.721 L 72.121 106.721 Q 74.343 106.098 76.742 106.098 L 76.742 106.098 L 76.742 106.098 Q 79.87 106.098 82.786 107.168 L 82.786 107.168 L 82.786 107.168 Q 85.702 108.238 88.053 110.284 L 88.053 110.284 L 84.479 116.163 L 84.479 116.163 Q 82.997 114.564 80.975 113.705 L 80.975 113.705 L 80.975 113.705 Q 78.953 112.847 76.742 112.847 L 76.742 112.847 L 76.742 112.847 Q 74.508 112.847 72.556 113.693 L 72.556 113.693 L 72.556 113.693 Q 70.604 114.54 69.146 115.986 L 69.146 115.986 L 69.146 115.986 Q 67.688 117.432 66.842 119.396 L 66.842 119.396 L 66.842 119.396 Q 65.995 121.36 65.995 123.57 L 65.995 123.57 L 65.995 123.57 Q 65.995 125.781 66.842 127.721 L 66.842 127.721 L 66.842 127.721 Q 67.688 129.661 69.146 131.119 L 69.146 131.119 L 69.146 131.119 Q 70.604 132.577 72.556 133.423 L 72.556 133.423 L 72.556 133.423 Q 74.508 134.27 76.742 134.27 L 76.742 134.27 L 76.742 134.27 Q 78.953 134.27 80.975 133.411 L 80.975 133.411 L 80.975 133.411 Q 82.997 132.553 84.479 130.954 L 84.479 130.954 L 84.479 130.954 Z  M 115.567 133.541 L 115.567 140.29 L 91.957 140.29 L 91.957 106.568 L 98.706 106.568 L 98.706 133.541 L 115.567 133.541 L 115.567 133.541 Z " fill="rgb(0,0,0)"/><mask id="_mask_Zstyq2P3riRYH491v9vnefK8y5jKMt4j" x="-200%" y="-200%" width="400%" height="400%"><rect x="-200%" y="-200%" width="400%" height="400%" style="fill:white;"/><path d=" M 217.002 174.247 L 216.869 139.304 C 216.869 139.304 216.469 133.967 221.938 133.301 C 227.406 132.633 329.974 131.966 329.974 131.966 C 329.974 131.966 337.707 130.633 344.377 139.702 C 351.046 148.772 356.381 147.839 356.381 147.839 L 390.071 147.751 C 390.071 147.751 389.848 146.313 390.997 146.41 C 392.146 146.507 395.4 146.442 395.4 146.442 C 395.4 146.442 396.293 146.474 396.005 147.814 L 398.749 147.783 C 398.749 147.783 400.22 147.94 400.186 149.44 C 400.155 150.942 400.284 162.747 400.284 162.747 C 400.284 162.747 400.537 164.087 399.261 164.214 C 397.984 164.342 396.069 164.214 396.069 164.214 C 396.069 164.214 396.421 165.875 395.209 165.683 L 391.028 165.745 C 391.028 165.745 389.911 165.81 389.976 164.245 L 353.889 164.245 C 353.889 164.245 351.135 164.613 343.976 172.506 C 336.816 180.399 328.921 180.035 328.921 180.035 L 223.184 178.931 C 223.184 178.931 217.676 179.3 217.002 174.247 Z " fill="black" stroke="none"/></mask><path d=" M 217.002 174.247 L 216.869 139.304 C 216.869 139.304 216.469 133.967 221.938 133.301 C 227.406 132.633 329.974 131.966 329.974 131.966 C 329.974 131.966 337.707 130.633 344.377 139.702 C 351.046 148.772 356.381 147.839 356.381 147.839 L 390.071 147.751 C 390.071 147.751 389.848 146.313 390.997 146.41 C 392.146 146.507 395.4 146.442 395.4 146.442 C 395.4 146.442 396.293 146.474 396.005 147.814 L 398.749 147.783 C 398.749 147.783 400.22 147.94 400.186 149.44 C 400.155 150.942 400.284 162.747 400.284 162.747 C 400.284 162.747 400.537 164.087 399.261 164.214 C 397.984 164.342 396.069 164.214 396.069 164.214 C 396.069 164.214 396.421 165.875 395.209 165.683 L 391.028 165.745 C 391.028 165.745 389.911 165.81 389.976 164.245 L 353.889 164.245 C 353.889 164.245 351.135 164.613 343.976 172.506 C 336.816 180.399 328.921 180.035 328.921 180.035 L 223.184 178.931 C 223.184 178.931 217.676 179.3 217.002 174.247 Z " fill="rgb(255,255,255)" mask="url(#_mask_Zstyq2P3riRYH491v9vnefK8y5jKMt4j)" vector-effect="non-scaling-stroke" stroke-width="3.637" stroke="rgb(0,0,0)" stroke-opacity="100" stroke-linejoin="miter" stroke-linecap="butt" stroke-miterlimit="4"/><path d=" M 217.002 174.247 L 216.869 139.304 C 216.869 139.304 216.469 133.967 221.938 133.301 C 227.406 132.633 329.974 131.966 329.974 131.966 C 329.974 131.966 337.707 130.633 344.377 139.702 C 351.046 148.772 356.381 147.839 356.381 147.839 L 390.071 147.751 C 390.071 147.751 389.848 146.313 390.997 146.41 C 392.146 146.507 395.4 146.442 395.4 146.442 C 395.4 146.442 396.293 146.474 396.005 147.814 L 398.749 147.783 C 398.749 147.783 400.22 147.94 400.186 149.44 C 400.155 150.942 400.284 162.747 400.284 162.747 C 400.284 162.747 400.537 164.087 399.261 164.214 C 397.984 164.342 396.069 164.214 396.069 164.214 C 396.069 164.214 396.421 165.875 395.209 165.683 L 391.028 165.745 C 391.028 165.745 389.911 165.81 389.976 164.245 L 353.889 164.245 C 353.889 164.245 351.135 164.613 343.976 172.506 C 336.816 180.399 328.921 180.035 328.921 180.035 L 223.184 178.931 C 223.184 178.931 217.676 179.3 217.002 174.247 Z " fill="rgb(255,255,255)"/><rect x="190.194" y="121.424" width="154.206" height="49.113" transform="matrix(1,0,0,1,0,0)" fill="rgb(255,255,255)"/><linearGradient id="_lgradient_0" x1="0.5410134193982992" y1="0.41045885163538287" x2="0.6038498907815391" y2="0.8133405913328988" gradientTransform="matrix(92.737,0,0,31.117,298.031,144.723)" gradientUnits="userSpaceOnUse"><stop offset="0%" stop-opacity="1" style="stop-color:rgb(255,114,19)"/><stop offset="97.82608695652173%" stop-opacity="1" style="stop-color:rgb(181,72,0)"/></linearGradient><mask id="_mask_WA8OEg3aACBt98r3LskFAkWAenzMeb9x" x="-200%" y="-200%" width="400%" height="400%"><rect x="-200%" y="-200%" width="400%" height="400%" style="fill:white;"/><path d=" M 299.846 170.91 L 304.669 164.436 C 304.669 164.436 306.418 162.345 308.847 160.296 C 311.362 158.172 314.607 156.092 317.39 156.422 C 330.081 157.929 328.231 133.657 350.948 150.995 C 351.969 151.774 381.626 151.988 381.626 151.988 C 381.626 151.988 394.817 155.207 389.509 160.091 C 389.509 160.091 379.515 159.951 374.316 160.005 L 352.754 159.633 C 352.754 159.633 349.999 160.001 342.84 167.894 C 335.681 175.787 327.785 175.423 327.785 175.423 L 304.304 175.731 C 304.304 175.731 293.95 176.995 299.846 170.91 Z " fill="black" stroke="none"/></mask><path d=" M 299.846 170.91 L 304.669 164.436 C 304.669 164.436 306.418 162.345 308.847 160.296 C 311.362 158.172 314.607 156.092 317.39 156.422 C 330.081 157.929 328.231 133.657 350.948 150.995 C 351.969 151.774 381.626 151.988 381.626 151.988 C 381.626 151.988 394.817 155.207 389.509 160.091 C 389.509 160.091 379.515 159.951 374.316 160.005 L 352.754 159.633 C 352.754 159.633 349.999 160.001 342.84 167.894 C 335.681 175.787 327.785 175.423 327.785 175.423 L 304.304 175.731 C 304.304 175.731 293.95 176.995 299.846 170.91 Z " fill="url(#_lgradient_0)" mask="url(#_mask_WA8OEg3aACBt98r3LskFAkWAenzMeb9x)" vector-effect="non-scaling-stroke" stroke-width="3.637" stroke="rgb(0,0,0)" stroke-opacity="100" stroke-linejoin="miter" stroke-linecap="butt" stroke-miterlimit="4"/><path d=" M 299.846 170.91 L 304.669 164.436 C 304.669 164.436 306.418 162.345 308.847 160.296 C 311.362 158.172 314.607 156.092 317.39 156.422 C 330.081 157.929 328.231 133.657 350.948 150.995 C 351.969 151.774 381.626 151.988 381.626 151.988 C 381.626 151.988 394.817 155.207 389.509 160.091 C 389.509 160.091 379.515 159.951 374.316 160.005 L 352.754 159.633 C 352.754 159.633 349.999 160.001 342.84 167.894 C 335.681 175.787 327.785 175.423 327.785 175.423 L 304.304 175.731 C 304.304 175.731 293.95 176.995 299.846 170.91 Z " fill="url(#_lgradient_0)"/><path d=" M 159.868 148.506 L 159.868 168.505 L 155.866 168.505 L 155.866 148.506 L 159.868 148.506 L 159.868 148.506 Z  M 179.574 148.506 L 179.574 168.505 L 175.292 168.505 L 167.58 155.34 L 167.58 168.505 L 163.578 168.505 L 163.578 148.506 L 167.859 148.506 L 175.571 161.685 L 175.571 148.506 L 179.574 148.506 L 179.574 148.506 Z  M 182.112 154.503 L 182.112 154.503 L 182.112 154.503 Q 182.112 153.262 182.586 152.174 L 182.586 152.174 L 182.586 152.174 Q 183.06 151.086 183.876 150.27 L 183.876 150.27 L 183.876 150.27 Q 184.692 149.455 185.78 148.98 L 185.78 148.98 L 185.78 148.98 Q 186.867 148.506 188.109 148.506 L 188.109 148.506 L 197.285 148.506 L 197.285 152.509 L 188.109 152.509 L 188.109 152.509 Q 187.69 152.509 187.328 152.662 L 187.328 152.662 L 187.328 152.662 Q 186.965 152.815 186.693 153.087 L 186.693 153.087 L 186.693 153.087 Q 186.421 153.359 186.268 153.722 L 186.268 153.722 L 186.268 153.722 Q 186.114 154.085 186.114 154.503 L 186.114 154.503 L 186.114 154.503 Q 186.114 154.921 186.268 155.291 L 186.268 155.291 L 186.268 155.291 Q 186.421 155.66 186.693 155.932 L 186.693 155.932 L 186.693 155.932 Q 186.965 156.204 187.328 156.358 L 187.328 156.358 L 187.328 156.358 Q 187.69 156.511 188.109 156.511 L 188.109 156.511 L 192.111 156.511 L 192.111 156.511 Q 193.352 156.511 194.447 156.978 L 194.447 156.978 L 194.447 156.978 Q 195.542 157.446 196.358 158.261 L 196.358 158.261 L 196.358 158.261 Q 197.173 159.077 197.641 160.172 L 197.641 160.172 L 197.641 160.172 Q 198.108 161.267 198.108 162.508 L 198.108 162.508 L 198.108 162.508 Q 198.108 163.749 197.641 164.837 L 197.641 164.837 L 197.641 164.837 Q 197.173 165.925 196.358 166.741 L 196.358 166.741 L 196.358 166.741 Q 195.542 167.556 194.447 168.031 L 194.447 168.031 L 194.447 168.031 Q 193.352 168.505 192.111 168.505 L 192.111 168.505 L 183.228 168.505 L 183.228 164.502 L 192.111 164.502 L 192.111 164.502 Q 192.529 164.502 192.892 164.349 L 192.892 164.349 L 192.892 164.349 Q 193.255 164.195 193.527 163.923 L 193.527 163.923 L 193.527 163.923 Q 193.799 163.651 193.952 163.289 L 193.952 163.289 L 193.952 163.289 Q 194.105 162.926 194.105 162.508 L 194.105 162.508 L 194.105 162.508 Q 194.105 162.09 193.952 161.727 L 193.952 161.727 L 193.952 161.727 Q 193.799 161.364 193.527 161.092 L 193.527 161.092 L 193.527 161.092 Q 193.255 160.82 192.892 160.667 L 192.892 160.667 L 192.892 160.667 Q 192.529 160.514 192.111 160.514 L 192.111 160.514 L 188.109 160.514 L 188.109 160.514 Q 186.867 160.514 185.78 160.039 L 185.78 160.039 L 185.78 160.039 Q 184.692 159.565 183.876 158.749 L 183.876 158.749 L 183.876 158.749 Q 183.06 157.934 182.586 156.839 L 182.586 156.839 L 182.586 156.839 Q 182.112 155.744 182.112 154.503 Z  M 204.495 160.514 L 212.5 160.514 L 212.5 156.511 L 212.5 156.511 Q 212.5 155.688 212.186 154.956 L 212.186 154.956 L 212.186 154.956 Q 211.872 154.224 211.329 153.68 L 211.329 153.68 L 211.329 153.68 Q 210.785 153.136 210.053 152.822 L 210.053 152.822 L 210.053 152.822 Q 209.32 152.509 208.498 152.509 L 208.498 152.509 L 208.498 152.509 Q 207.675 152.509 206.943 152.822 L 206.943 152.822 L 206.943 152.822 Q 206.21 153.136 205.667 153.68 L 205.667 153.68 L 205.667 153.68 Q 205.123 154.224 204.809 154.956 L 204.809 154.956 L 204.809 154.956 Q 204.495 155.688 204.495 156.511 L 204.495 156.511 L 204.495 160.514 L 204.495 160.514 Z  M 216.503 156.511 L 216.503 168.505 L 212.5 168.505 L 212.5 164.502 L 204.495 164.502 L 204.495 168.505 L 200.507 168.505 L 200.507 156.511 L 200.507 156.511 Q 200.507 154.852 201.134 153.394 L 201.134 153.394 L 201.134 153.394 Q 201.762 151.937 202.842 150.849 L 202.842 150.849 L 202.842 150.849 Q 203.923 149.761 205.381 149.134 L 205.381 149.134 L 205.381 149.134 Q 206.838 148.506 208.498 148.506 L 208.498 148.506 L 208.498 148.506 Q 210.157 148.506 211.614 149.134 L 211.614 149.134 L 211.614 149.134 Q 213.072 149.761 214.16 150.849 L 214.16 150.849 L 214.16 150.849 Q 215.247 151.937 215.875 153.394 L 215.875 153.394 L 215.875 153.394 Q 216.503 154.852 216.503 156.511 L 216.503 156.511 L 216.503 156.511 Z " fill="rgb(64,64,64)"/><path d=" M 412.079 200.793 L 412.079 200.793 L 412.079 200.793 Q 412.079 201.479 411.88 202.116 L 411.88 202.116 L 411.88 202.116 Q 411.681 202.752 411.32 203.307 L 411.32 203.307 L 411.32 203.307 Q 410.959 203.863 410.448 204.321 L 410.448 204.321 L 410.448 204.321 Q 409.937 204.778 409.32 205.105 L 409.32 205.105 L 409.32 205.105 Q 408.704 205.431 407.99 205.61 L 407.99 205.61 L 407.99 205.61 Q 407.276 205.788 406.509 205.788 L 406.509 205.788 L 406.509 205.788 Q 405.742 205.788 405.032 205.61 L 405.032 205.61 L 405.032 205.61 Q 404.321 205.431 403.701 205.105 L 403.701 205.105 L 403.701 205.105 Q 403.081 204.778 402.57 204.321 L 402.57 204.321 L 402.57 204.321 Q 402.059 203.863 401.694 203.307 L 401.694 203.307 L 401.694 203.307 Q 401.33 202.752 401.13 202.116 L 401.13 202.116 L 401.13 202.116 Q 400.931 201.479 400.931 200.793 L 400.931 200.793 L 400.931 200.793 Q 400.931 200.106 401.13 199.466 L 401.13 199.466 L 401.13 199.466 Q 401.33 198.827 401.694 198.275 L 401.694 198.275 L 401.694 198.275 Q 402.059 197.723 402.57 197.265 L 402.57 197.265 L 402.57 197.265 Q 403.081 196.807 403.701 196.484 L 403.701 196.484 L 403.701 196.484 Q 404.321 196.161 405.032 195.982 L 405.032 195.982 L 405.032 195.982 Q 405.742 195.804 406.509 195.804 L 406.509 195.804 L 406.509 195.804 Q 407.276 195.804 407.99 195.982 L 407.99 195.982 L 407.99 195.982 Q 408.704 196.161 409.32 196.484 L 409.32 196.484 L 409.32 196.484 Q 409.937 196.807 410.448 197.265 L 410.448 197.265 L 410.448 197.265 Q 410.959 197.723 411.32 198.275 L 411.32 198.275 L 411.32 198.275 Q 411.681 198.827 411.88 199.466 L 411.88 199.466 L 411.88 199.466 Q 412.079 200.106 412.079 200.793 Z  M 409.937 200.793 L 409.937 200.793 L 409.937 200.793 Q 409.937 200.16 409.666 199.598 L 409.666 199.598 L 409.666 199.598 Q 409.396 199.035 408.933 198.621 L 408.933 198.621 L 408.933 198.621 Q 408.471 198.207 407.843 197.965 L 407.843 197.965 L 407.843 197.965 Q 407.216 197.723 406.509 197.723 L 406.509 197.723 L 406.509 197.723 Q 405.795 197.723 405.171 197.965 L 405.171 197.965 L 405.171 197.965 Q 404.547 198.207 404.081 198.621 L 404.081 198.621 L 404.081 198.621 Q 403.615 199.035 403.344 199.598 L 403.344 199.598 L 403.344 199.598 Q 403.074 200.16 403.074 200.793 L 403.074 200.793 L 403.074 200.793 Q 403.074 201.426 403.344 201.981 L 403.344 201.981 L 403.344 201.981 Q 403.615 202.536 404.081 202.954 L 404.081 202.954 L 404.081 202.954 Q 404.547 203.371 405.171 203.614 L 405.171 203.614 L 405.171 203.614 Q 405.795 203.856 406.509 203.856 L 406.509 203.856 L 406.509 203.856 Q 407.216 203.856 407.843 203.614 L 407.843 203.614 L 407.843 203.614 Q 408.471 203.371 408.933 202.954 L 408.933 202.954 L 408.933 202.954 Q 409.396 202.536 409.666 201.981 L 409.666 201.981 L 409.666 201.981 Q 409.937 201.426 409.937 200.793 Z  M 420.882 203.647 L 420.882 205.58 L 413.492 205.58 L 413.492 195.925 L 420.882 195.925 L 420.882 197.857 L 415.65 197.857 L 415.65 199.79 L 419.191 199.79 L 419.191 201.722 L 415.65 201.722 L 415.65 203.647 L 420.882 203.647 L 420.882 203.647 Z  M 431.015 195.925 L 431.015 205.58 L 428.707 205.58 L 424.55 199.224 L 424.55 205.58 L 422.393 205.58 L 422.393 195.925 L 424.701 195.925 L 428.858 202.287 L 428.858 195.925 L 431.015 195.925 L 431.015 195.925 Z  M 443.576 200.793 L 443.576 200.793 L 443.576 200.793 Q 443.576 201.479 443.377 202.116 L 443.377 202.116 L 443.377 202.116 Q 443.178 202.752 442.817 203.307 L 442.817 203.307 L 442.817 203.307 Q 442.456 203.863 441.945 204.321 L 441.945 204.321 L 441.945 204.321 Q 441.434 204.778 440.818 205.105 L 440.818 205.105 L 440.818 205.105 Q 440.201 205.431 439.487 205.61 L 439.487 205.61 L 439.487 205.61 Q 438.773 205.788 438.006 205.788 L 438.006 205.788 L 438.006 205.788 Q 437.239 205.788 436.529 205.61 L 436.529 205.61 L 436.529 205.61 Q 435.819 205.431 435.198 205.105 L 435.198 205.105 L 435.198 205.105 Q 434.578 204.778 434.067 204.321 L 434.067 204.321 L 434.067 204.321 Q 433.556 203.863 433.191 203.307 L 433.191 203.307 L 433.191 203.307 Q 432.827 202.752 432.628 202.116 L 432.628 202.116 L 432.628 202.116 Q 432.428 201.479 432.428 200.793 L 432.428 200.793 L 432.428 200.793 Q 432.428 200.106 432.628 199.466 L 432.628 199.466 L 432.628 199.466 Q 432.827 198.827 433.191 198.275 L 433.191 198.275 L 433.191 198.275 Q 433.556 197.723 434.067 197.265 L 434.067 197.265 L 434.067 197.265 Q 434.578 196.807 435.198 196.484 L 435.198 196.484 L 435.198 196.484 Q 435.819 196.161 436.529 195.982 L 436.529 195.982 L 436.529 195.982 Q 437.239 195.804 438.006 195.804 L 438.006 195.804 L 438.006 195.804 Q 438.773 195.804 439.487 195.982 L 439.487 195.982 L 439.487 195.982 Q 440.201 196.161 440.818 196.484 L 440.818 196.484 L 440.818 196.484 Q 441.434 196.807 441.945 197.265 L 441.945 197.265 L 441.945 197.265 Q 442.456 197.723 442.817 198.275 L 442.817 198.275 L 442.817 198.275 Q 443.178 198.827 443.377 199.466 L 443.377 199.466 L 443.377 199.466 Q 443.576 200.106 443.576 200.793 Z  M 441.434 200.793 L 441.434 200.793 L 441.434 200.793 Q 441.434 200.16 441.163 199.598 L 441.163 199.598 L 441.163 199.598 Q 440.893 199.035 440.43 198.621 L 440.43 198.621 L 440.43 198.621 Q 439.968 198.207 439.34 197.965 L 439.34 197.965 L 439.34 197.965 Q 438.713 197.723 438.006 197.723 L 438.006 197.723 L 438.006 197.723 Q 437.292 197.723 436.668 197.965 L 436.668 197.965 L 436.668 197.965 Q 436.044 198.207 435.578 198.621 L 435.578 198.621 L 435.578 198.621 Q 435.112 199.035 434.841 199.598 L 434.841 199.598 L 434.841 199.598 Q 434.571 200.16 434.571 200.793 L 434.571 200.793 L 434.571 200.793 Q 434.571 201.426 434.841 201.981 L 434.841 201.981 L 434.841 201.981 Q 435.112 202.536 435.578 202.954 L 435.578 202.954 L 435.578 202.954 Q 436.044 203.371 436.668 203.614 L 436.668 203.614 L 436.668 203.614 Q 437.292 203.856 438.006 203.856 L 438.006 203.856 L 438.006 203.856 Q 438.713 203.856 439.34 203.614 L 439.34 203.614 L 439.34 203.614 Q 439.968 203.371 440.43 202.954 L 440.43 202.954 L 440.43 202.954 Q 440.893 202.536 441.163 201.981 L 441.163 201.981 L 441.163 201.981 Q 441.434 201.426 441.434 200.793 Z  M 452.537 203.647 L 452.537 205.58 L 444.99 205.58 L 444.99 195.925 L 447.147 195.925 L 447.147 203.647 L 452.537 203.647 L 452.537 203.647 Z  M 463.85 200.793 L 463.85 200.793 L 463.85 200.793 Q 463.85 201.479 463.651 202.116 L 463.651 202.116 L 463.651 202.116 Q 463.452 202.752 463.091 203.307 L 463.091 203.307 L 463.091 203.307 Q 462.73 203.863 462.219 204.321 L 462.219 204.321 L 462.219 204.321 Q 461.708 204.778 461.092 205.105 L 461.092 205.105 L 461.092 205.105 Q 460.475 205.431 459.761 205.61 L 459.761 205.61 L 459.761 205.61 Q 459.047 205.788 458.28 205.788 L 458.28 205.788 L 458.28 205.788 Q 457.513 205.788 456.803 205.61 L 456.803 205.61 L 456.803 205.61 Q 456.093 205.431 455.472 205.105 L 455.472 205.105 L 455.472 205.105 Q 454.852 204.778 454.341 204.321 L 454.341 204.321 L 454.341 204.321 Q 453.83 203.863 453.465 203.307 L 453.465 203.307 L 453.465 203.307 Q 453.101 202.752 452.902 202.116 L 452.902 202.116 L 452.902 202.116 Q 452.702 201.479 452.702 200.793 L 452.702 200.793 L 452.702 200.793 Q 452.702 200.106 452.902 199.466 L 452.902 199.466 L 452.902 199.466 Q 453.101 198.827 453.465 198.275 L 453.465 198.275 L 453.465 198.275 Q 453.83 197.723 454.341 197.265 L 454.341 197.265 L 454.341 197.265 Q 454.852 196.807 455.472 196.484 L 455.472 196.484 L 455.472 196.484 Q 456.093 196.161 456.803 195.982 L 456.803 195.982 L 456.803 195.982 Q 457.513 195.804 458.28 195.804 L 458.28 195.804 L 458.28 195.804 Q 459.047 195.804 459.761 195.982 L 459.761 195.982 L 459.761 195.982 Q 460.475 196.161 461.092 196.484 L 461.092 196.484 L 461.092 196.484 Q 461.708 196.807 462.219 197.265 L 462.219 197.265 L 462.219 197.265 Q 462.73 197.723 463.091 198.275 L 463.091 198.275 L 463.091 198.275 Q 463.452 198.827 463.651 199.466 L 463.651 199.466 L 463.651 199.466 Q 463.85 200.106 463.85 200.793 Z  M 461.708 200.793 L 461.708 200.793 L 461.708 200.793 Q 461.708 200.16 461.437 199.598 L 461.437 199.598 L 461.437 199.598 Q 461.167 199.035 460.704 198.621 L 460.704 198.621 L 460.704 198.621 Q 460.242 198.207 459.614 197.965 L 459.614 197.965 L 459.614 197.965 Q 458.987 197.723 458.28 197.723 L 458.28 197.723 L 458.28 197.723 Q 457.566 197.723 456.942 197.965 L 456.942 197.965 L 456.942 197.965 Q 456.318 198.207 455.852 198.621 L 455.852 198.621 L 455.852 198.621 Q 455.386 199.035 455.115 199.598 L 455.115 199.598 L 455.115 199.598 Q 454.845 200.16 454.845 200.793 L 454.845 200.793 L 454.845 200.793 Q 454.845 201.426 455.115 201.981 L 455.115 201.981 L 455.115 201.981 Q 455.386 202.536 455.852 202.954 L 455.852 202.954 L 455.852 202.954 Q 456.318 203.371 456.942 203.614 L 456.942 203.614 L 456.942 203.614 Q 457.566 203.856 458.28 203.856 L 458.28 203.856 L 458.28 203.856 Q 458.987 203.856 459.614 203.614 L 459.614 203.614 L 459.614 203.614 Q 460.242 203.371 460.704 202.954 L 460.704 202.954 L 460.704 202.954 Q 461.167 202.536 461.437 201.981 L 461.437 201.981 L 461.437 201.981 Q 461.708 201.426 461.708 200.793 Z  M 473.841 200.793 L 473.841 204.603 L 473.841 204.603 Q 473.089 205.176 472.164 205.482 L 472.164 205.482 L 472.164 205.482 Q 471.24 205.788 470.24 205.788 L 470.24 205.788 L 470.24 205.788 Q 469.473 205.788 468.763 205.61 L 468.763 205.61 L 468.763 205.61 Q 468.053 205.431 467.436 205.105 L 467.436 205.105 L 467.436 205.105 Q 466.82 204.778 466.309 204.324 L 466.309 204.324 L 466.309 204.324 Q 465.797 203.869 465.437 203.314 L 465.437 203.314 L 465.437 203.314 Q 465.076 202.759 464.876 202.119 L 464.876 202.119 L 464.876 202.119 Q 464.677 201.479 464.677 200.793 L 464.677 200.793 L 464.677 200.793 Q 464.677 200.106 464.876 199.473 L 464.876 199.473 L 464.876 199.473 Q 465.076 198.84 465.437 198.285 L 465.437 198.285 L 465.437 198.285 Q 465.797 197.729 466.309 197.275 L 466.309 197.275 L 466.309 197.275 Q 466.82 196.82 467.436 196.497 L 467.436 196.497 L 467.436 196.497 Q 468.053 196.174 468.763 195.996 L 468.763 195.996 L 468.763 195.996 Q 469.473 195.817 470.24 195.817 L 470.24 195.817 L 470.24 195.817 Q 471.24 195.817 472.164 196.124 L 472.164 196.124 L 472.164 196.124 Q 473.089 196.43 473.841 197.002 L 473.841 197.002 L 472.713 198.685 L 472.713 198.685 Q 472.225 198.241 471.586 197.989 L 471.586 197.989 L 471.586 197.989 Q 470.947 197.736 470.24 197.736 L 470.24 197.736 L 470.24 197.736 Q 469.533 197.736 468.913 197.978 L 468.913 197.978 L 468.913 197.978 Q 468.293 198.221 467.827 198.635 L 467.827 198.635 L 467.827 198.635 Q 467.361 199.049 467.09 199.604 L 467.09 199.604 L 467.09 199.604 Q 466.82 200.16 466.82 200.793 L 466.82 200.793 L 466.82 200.793 Q 466.82 201.432 467.09 201.991 L 467.09 201.991 L 467.09 201.991 Q 467.361 202.55 467.827 202.967 L 467.827 202.967 L 467.827 202.967 Q 468.293 203.385 468.913 203.627 L 468.913 203.627 L 468.913 203.627 Q 469.533 203.869 470.24 203.869 L 470.24 203.869 L 470.24 203.869 Q 470.646 203.869 471.029 203.782 L 471.029 203.782 L 471.029 203.782 Q 471.413 203.694 471.759 203.54 L 471.759 203.54 L 471.759 200.793 L 473.841 200.793 L 473.841 200.793 Z  M 477.66 195.925 L 477.66 205.58 L 475.502 205.58 L 475.502 195.925 L 477.66 195.925 L 477.66 195.925 Z  M 487.049 203.647 L 487.049 205.58 L 479.659 205.58 L 479.659 195.925 L 487.049 195.925 L 487.049 197.857 L 481.817 197.857 L 481.817 199.79 L 485.357 199.79 L 485.357 201.722 L 481.817 201.722 L 481.817 203.647 L 487.049 203.647 L 487.049 203.647 Z  M 365.893 202.907 L 367.036 204.59 L 367.036 204.59 Q 366.284 205.169 365.352 205.479 L 365.352 205.479 L 365.352 205.479 Q 364.42 205.788 363.42 205.788 L 363.42 205.788 L 363.42 205.788 Q 362.653 205.788 361.943 205.61 L 361.943 205.61 L 361.943 205.61 Q 361.233 205.431 360.613 205.105 L 360.613 205.105 L 360.613 205.105 Q 359.992 204.778 359.481 204.321 L 359.481 204.321 L 359.481 204.321 Q 358.97 203.863 358.605 203.307 L 358.605 203.307 L 358.605 203.307 Q 358.241 202.752 358.042 202.116 L 358.042 202.116 L 358.042 202.116 Q 357.842 201.479 357.842 200.793 L 357.842 200.793 L 357.842 200.793 Q 357.842 200.106 358.042 199.466 L 358.042 199.466 L 358.042 199.466 Q 358.241 198.827 358.605 198.271 L 358.605 198.271 L 358.605 198.271 Q 358.97 197.716 359.481 197.258 L 359.481 197.258 L 359.481 197.258 Q 359.992 196.8 360.613 196.474 L 360.613 196.474 L 360.613 196.474 Q 361.233 196.147 361.943 195.969 L 361.943 195.969 L 361.943 195.969 Q 362.653 195.79 363.42 195.79 L 363.42 195.79 L 363.42 195.79 Q 364.42 195.79 365.352 196.097 L 365.352 196.097 L 365.352 196.097 Q 366.284 196.403 367.036 196.989 L 367.036 196.989 L 365.893 198.672 L 365.893 198.672 Q 365.42 198.214 364.773 197.968 L 364.773 197.968 L 364.773 197.968 Q 364.127 197.723 363.42 197.723 L 363.42 197.723 L 363.42 197.723 Q 362.706 197.723 362.082 197.965 L 362.082 197.965 L 362.082 197.965 Q 361.458 198.207 360.992 198.621 L 360.992 198.621 L 360.992 198.621 Q 360.526 199.035 360.255 199.598 L 360.255 199.598 L 360.255 199.598 Q 359.985 200.16 359.985 200.793 L 359.985 200.793 L 359.985 200.793 Q 359.985 201.426 360.255 201.981 L 360.255 201.981 L 360.255 201.981 Q 360.526 202.536 360.992 202.954 L 360.992 202.954 L 360.992 202.954 Q 361.458 203.371 362.082 203.614 L 362.082 203.614 L 362.082 203.614 Q 362.706 203.856 363.42 203.856 L 363.42 203.856 L 363.42 203.856 Q 364.127 203.856 364.773 203.61 L 364.773 203.61 L 364.773 203.61 Q 365.42 203.365 365.893 202.907 L 365.893 202.907 L 365.893 202.907 Z  M 375.831 203.647 L 375.831 205.58 L 368.284 205.58 L 368.284 195.925 L 370.441 195.925 L 370.441 203.647 L 375.831 203.647 L 375.831 203.647 Z  M 385.085 195.925 L 385.085 201.722 L 385.085 201.722 Q 385.085 202.523 384.747 203.226 L 384.747 203.226 L 384.747 203.226 Q 384.408 203.93 383.822 204.452 L 383.822 204.452 L 383.822 204.452 Q 383.236 204.974 382.45 205.277 L 382.45 205.277 L 382.45 205.277 Q 381.665 205.58 380.77 205.58 L 380.77 205.58 L 380.77 205.58 Q 379.875 205.58 379.09 205.277 L 379.09 205.277 L 379.09 205.277 Q 378.304 204.974 377.722 204.452 L 377.722 204.452 L 377.722 204.452 Q 377.139 203.93 376.801 203.226 L 376.801 203.226 L 376.801 203.226 Q 376.463 202.523 376.463 201.722 L 376.463 201.722 L 376.463 195.925 L 378.613 195.925 L 378.613 201.722 L 378.613 201.722 Q 378.613 202.119 378.782 202.469 L 378.782 202.469 L 378.782 202.469 Q 378.951 202.819 379.244 203.082 L 379.244 203.082 L 379.244 203.082 Q 379.537 203.344 379.932 203.496 L 379.932 203.496 L 379.932 203.496 Q 380.326 203.647 380.77 203.647 L 380.77 203.647 L 380.77 203.647 Q 381.214 203.647 381.608 203.496 L 381.608 203.496 L 381.608 203.496 Q 382.003 203.344 382.296 203.082 L 382.296 203.082 L 382.296 203.082 Q 382.589 202.819 382.758 202.469 L 382.758 202.469 L 382.758 202.469 Q 382.927 202.119 382.927 201.722 L 382.927 201.722 L 382.927 195.925 L 385.085 195.925 L 385.085 195.925 Z  M 395.579 202.685 L 395.579 202.685 L 395.579 202.685 Q 395.579 203.284 395.323 203.809 L 395.323 203.809 L 395.323 203.809 Q 395.068 204.334 394.628 204.728 L 394.628 204.728 L 394.628 204.728 Q 394.188 205.122 393.602 205.351 L 393.602 205.351 L 393.602 205.351 Q 393.016 205.58 392.347 205.58 L 392.347 205.58 L 386.957 205.58 L 386.957 195.925 L 392.347 195.925 L 392.347 195.925 Q 393.016 195.925 393.602 196.154 L 393.602 196.154 L 393.602 196.154 Q 394.188 196.383 394.628 196.777 L 394.628 196.777 L 394.628 196.777 Q 395.068 197.171 395.323 197.696 L 395.323 197.696 L 395.323 197.696 Q 395.579 198.221 395.579 198.82 L 395.579 198.82 L 395.579 198.82 Q 395.579 199.089 395.496 199.372 L 395.496 199.372 L 395.496 199.372 Q 395.414 199.655 395.263 199.917 L 395.263 199.917 L 395.263 199.917 Q 395.113 200.18 394.902 200.395 L 394.902 200.395 L 394.902 200.395 Q 394.692 200.611 394.436 200.752 L 394.436 200.752 L 394.436 200.752 Q 394.699 200.88 394.91 201.099 L 394.91 201.099 L 394.91 201.099 Q 395.12 201.318 395.271 201.58 L 395.271 201.58 L 395.271 201.58 Q 395.421 201.843 395.5 202.129 L 395.5 202.129 L 395.5 202.129 Q 395.579 202.415 395.579 202.685 Z  M 389.114 201.722 L 389.114 203.647 L 392.347 203.647 L 392.347 203.647 Q 392.572 203.647 392.767 203.573 L 392.767 203.573 L 392.767 203.573 Q 392.963 203.499 393.11 203.368 L 393.11 203.368 L 393.11 203.368 Q 393.256 203.237 393.339 203.062 L 393.339 203.062 L 393.339 203.062 Q 393.421 202.886 393.421 202.685 L 393.421 202.685 L 393.421 202.685 Q 393.421 202.483 393.339 202.307 L 393.339 202.307 L 393.339 202.307 Q 393.256 202.132 393.11 202.001 L 393.11 202.001 L 393.11 202.001 Q 392.963 201.87 392.767 201.796 L 392.767 201.796 L 392.767 201.796 Q 392.572 201.722 392.347 201.722 L 392.347 201.722 L 389.114 201.722 L 389.114 201.722 Z  M 389.114 197.857 L 389.114 199.79 L 392.347 199.79 L 392.347 199.79 Q 392.572 199.79 392.767 199.715 L 392.767 199.715 L 392.767 199.715 Q 392.963 199.641 393.11 199.51 L 393.11 199.51 L 393.11 199.51 Q 393.256 199.379 393.339 199.2 L 393.339 199.2 L 393.339 199.2 Q 393.421 199.022 393.421 198.82 L 393.421 198.82 L 393.421 198.82 Q 393.421 198.618 393.339 198.443 L 393.339 198.443 L 393.339 198.443 Q 393.256 198.268 393.11 198.137 L 393.11 198.137 L 393.11 198.137 Q 392.963 198.005 392.767 197.931 L 392.767 197.931 L 392.767 197.931 Q 392.572 197.857 392.347 197.857 L 392.347 197.857 L 389.114 197.857 L 389.114 197.857 Z  M 343.823 202.685 L 343.823 202.685 L 343.823 202.685 Q 343.823 203.284 343.567 203.809 L 343.567 203.809 L 343.567 203.809 Q 343.312 204.334 342.872 204.728 L 342.872 204.728 L 342.872 204.728 Q 342.432 205.122 341.846 205.351 L 341.846 205.351 L 341.846 205.351 Q 341.259 205.58 340.59 205.58 L 340.59 205.58 L 335.201 205.58 L 335.201 195.925 L 340.59 195.925 L 340.59 195.925 Q 341.259 195.925 341.846 196.154 L 341.846 196.154 L 341.846 196.154 Q 342.432 196.383 342.872 196.777 L 342.872 196.777 L 342.872 196.777 Q 343.312 197.171 343.567 197.696 L 343.567 197.696 L 343.567 197.696 Q 343.823 198.221 343.823 198.82 L 343.823 198.82 L 343.823 198.82 Q 343.823 199.089 343.74 199.372 L 343.74 199.372 L 343.74 199.372 Q 343.657 199.655 343.507 199.917 L 343.507 199.917 L 343.507 199.917 Q 343.357 200.18 343.146 200.395 L 343.146 200.395 L 343.146 200.395 Q 342.936 200.611 342.68 200.752 L 342.68 200.752 L 342.68 200.752 Q 342.943 200.88 343.154 201.099 L 343.154 201.099 L 343.154 201.099 Q 343.364 201.318 343.515 201.58 L 343.515 201.58 L 343.515 201.58 Q 343.665 201.843 343.744 202.129 L 343.744 202.129 L 343.744 202.129 Q 343.823 202.415 343.823 202.685 Z  M 337.358 201.722 L 337.358 203.647 L 340.59 203.647 L 340.59 203.647 Q 340.816 203.647 341.011 203.573 L 341.011 203.573 L 341.011 203.573 Q 341.207 203.499 341.353 203.368 L 341.353 203.368 L 341.353 203.368 Q 341.5 203.237 341.583 203.062 L 341.583 203.062 L 341.583 203.062 Q 341.665 202.886 341.665 202.685 L 341.665 202.685 L 341.665 202.685 Q 341.665 202.483 341.583 202.307 L 341.583 202.307 L 341.583 202.307 Q 341.5 202.132 341.353 202.001 L 341.353 202.001 L 341.353 202.001 Q 341.207 201.87 341.011 201.796 L 341.011 201.796 L 341.011 201.796 Q 340.816 201.722 340.59 201.722 L 340.59 201.722 L 337.358 201.722 L 337.358 201.722 Z  M 337.358 197.857 L 337.358 199.79 L 340.59 199.79 L 340.59 199.79 Q 340.816 199.79 341.011 199.715 L 341.011 199.715 L 341.011 199.715 Q 341.207 199.641 341.353 199.51 L 341.353 199.51 L 341.353 199.51 Q 341.5 199.379 341.583 199.2 L 341.583 199.2 L 341.583 199.2 Q 341.665 199.022 341.665 198.82 L 341.665 198.82 L 341.665 198.82 Q 341.665 198.618 341.583 198.443 L 341.583 198.443 L 341.583 198.443 Q 341.5 198.268 341.353 198.137 L 341.353 198.137 L 341.353 198.137 Q 341.207 198.005 341.011 197.931 L 341.011 197.931 L 341.011 197.931 Q 340.816 197.857 340.59 197.857 L 340.59 197.857 L 337.358 197.857 L 337.358 197.857 Z  M 348.228 208.34 L 347.176 208.326 L 347.176 206.475 L 348.318 206.488 L 348.318 206.488 Q 348.619 206.488 348.897 206.401 L 348.897 206.401 L 348.897 206.401 Q 349.175 206.313 349.412 206.159 L 349.412 206.159 L 349.412 206.159 Q 349.649 206.004 349.829 205.792 L 349.829 205.792 L 349.829 205.792 Q 350.01 205.58 350.122 205.33 L 350.122 205.33 L 350.122 205.33 Q 349.784 205.458 349.434 205.586 L 349.434 205.586 L 349.434 205.586 Q 349.085 205.714 348.732 205.714 L 348.732 205.714 L 348.732 205.714 Q 347.987 205.714 347.333 205.479 L 347.333 205.479 L 347.333 205.479 Q 346.679 205.243 346.187 204.809 L 346.187 204.809 L 346.187 204.809 Q 345.695 204.374 345.413 203.752 L 345.413 203.752 L 345.413 203.752 Q 345.131 203.129 345.131 202.355 L 345.131 202.355 L 345.131 198.369 L 347.176 198.369 L 347.176 202.355 L 347.176 202.355 Q 347.176 202.738 347.3 203.025 L 347.3 203.025 L 347.3 203.025 Q 347.424 203.311 347.634 203.503 L 347.634 203.503 L 347.634 203.503 Q 347.845 203.694 348.126 203.789 L 348.126 203.789 L 348.126 203.789 Q 348.408 203.883 348.732 203.883 L 348.732 203.883 L 348.732 203.883 Q 349.047 203.883 349.329 203.752 L 349.329 203.752 L 349.329 203.752 Q 349.611 203.62 349.822 203.405 L 349.822 203.405 L 349.822 203.405 Q 350.032 203.189 350.152 202.917 L 350.152 202.917 L 350.152 202.917 Q 350.273 202.644 350.273 202.355 L 350.273 202.355 L 350.273 198.369 L 352.34 198.369 L 352.34 204.671 L 352.34 204.671 Q 352.332 205.431 352.009 206.098 L 352.009 206.098 L 352.009 206.098 Q 351.686 206.764 351.126 207.263 L 351.126 207.263 L 351.126 207.263 Q 350.566 207.761 349.822 208.05 L 349.822 208.05 L 349.822 208.05 Q 349.077 208.34 348.228 208.34 L 348.228 208.34 L 348.228 208.34 Z " fill="rgb(64,64,64)"/><path d=" M 238.052 164.502 L 238.052 168.505 L 224.051 168.505 L 224.051 148.506 L 228.053 148.506 L 228.053 164.502 L 238.052 164.502 L 238.052 164.502 Z  M 246.559 162.243 L 246.559 168.505 L 242.571 168.505 L 242.571 162.243 L 242.571 162.243 Q 241.246 161.908 240.137 161.169 L 240.137 161.169 L 240.137 161.169 Q 239.028 160.43 238.234 159.405 L 238.234 159.405 L 238.234 159.405 Q 237.439 158.38 236.999 157.132 L 236.999 157.132 L 236.999 157.132 Q 236.56 155.884 236.56 154.503 L 236.56 154.503 L 236.56 148.506 L 240.563 148.506 L 240.563 154.503 L 240.563 154.503 Q 240.563 155.326 240.876 156.058 L 240.876 156.058 L 240.876 156.058 Q 241.19 156.79 241.734 157.334 L 241.734 157.334 L 241.734 157.334 Q 242.278 157.878 243.01 158.192 L 243.01 158.192 L 243.01 158.192 Q 243.742 158.505 244.565 158.505 L 244.565 158.505 L 244.565 158.505 Q 245.388 158.505 246.12 158.192 L 246.12 158.192 L 246.12 158.192 Q 246.852 157.878 247.396 157.334 L 247.396 157.334 L 247.396 157.334 Q 247.94 156.79 248.254 156.058 L 248.254 156.058 L 248.254 156.058 Q 248.567 155.326 248.567 154.503 L 248.567 154.503 L 248.567 148.506 L 252.556 148.506 L 252.556 154.503 L 252.556 154.503 Q 252.556 155.884 252.117 157.132 L 252.117 157.132 L 252.117 157.132 Q 251.677 158.38 250.883 159.405 L 250.883 159.405 L 250.883 159.405 Q 250.088 160.43 248.986 161.169 L 248.986 161.169 L 248.986 161.169 Q 247.884 161.908 246.559 162.243 L 246.559 162.243 L 246.559 162.243 Z  M 274.87 158.589 L 274.87 158.589 L 274.87 158.589 Q 274.87 160.012 274.5 161.329 L 274.5 161.329 L 274.5 161.329 Q 274.13 162.647 273.461 163.798 L 273.461 163.798 L 273.461 163.798 Q 272.792 164.948 271.843 165.897 L 271.843 165.897 L 271.843 165.897 Q 270.895 166.845 269.751 167.521 L 269.751 167.521 L 269.751 167.521 Q 268.608 168.198 267.283 168.567 L 267.283 168.567 L 267.283 168.567 Q 265.958 168.937 264.536 168.937 L 264.536 168.937 L 264.536 168.937 Q 263.113 168.937 261.795 168.567 L 261.795 168.567 L 261.795 168.567 Q 260.477 168.198 259.327 167.521 L 259.327 167.521 L 259.327 167.521 Q 258.176 166.845 257.228 165.897 L 257.228 165.897 L 257.228 165.897 Q 256.28 164.948 255.603 163.798 L 255.603 163.798 L 255.603 163.798 Q 254.927 162.647 254.557 161.329 L 254.557 161.329 L 254.557 161.329 Q 254.188 160.012 254.188 158.589 L 254.188 158.589 L 254.188 158.589 Q 254.188 157.167 254.557 155.842 L 254.557 155.842 L 254.557 155.842 Q 254.927 154.517 255.603 153.373 L 255.603 153.373 L 255.603 153.373 Q 256.28 152.23 257.228 151.281 L 257.228 151.281 L 257.228 151.281 Q 258.176 150.333 259.327 149.664 L 259.327 149.664 L 259.327 149.664 Q 260.477 148.994 261.795 148.625 L 261.795 148.625 L 261.795 148.625 Q 263.113 148.255 264.536 148.255 L 264.536 148.255 L 264.536 148.255 Q 265.958 148.255 267.283 148.625 L 267.283 148.625 L 267.283 148.625 Q 268.608 148.994 269.751 149.664 L 269.751 149.664 L 269.751 149.664 Q 270.895 150.333 271.843 151.281 L 271.843 151.281 L 271.843 151.281 Q 272.792 152.23 273.461 153.373 L 273.461 153.373 L 273.461 153.373 Q 274.13 154.517 274.5 155.842 L 274.5 155.842 L 274.5 155.842 Q 274.87 157.167 274.87 158.589 Z  M 270.895 158.589 L 270.895 158.589 L 270.895 158.589 Q 270.895 157.278 270.393 156.114 L 270.393 156.114 L 270.393 156.114 Q 269.891 154.949 269.033 154.092 L 269.033 154.092 L 269.033 154.092 Q 268.175 153.234 267.011 152.732 L 267.011 152.732 L 267.011 152.732 Q 265.847 152.23 264.536 152.23 L 264.536 152.23 L 264.536 152.23 Q 263.211 152.23 262.053 152.732 L 262.053 152.732 L 262.053 152.732 Q 260.896 153.234 260.031 154.092 L 260.031 154.092 L 260.031 154.092 Q 259.166 154.949 258.664 156.114 L 258.664 156.114 L 258.664 156.114 Q 258.162 157.278 258.162 158.589 L 258.162 158.589 L 258.162 158.589 Q 258.162 159.9 258.664 161.051 L 258.664 161.051 L 258.664 161.051 Q 259.166 162.201 260.031 163.066 L 260.031 163.066 L 260.031 163.066 Q 260.896 163.93 262.053 164.432 L 262.053 164.432 L 262.053 164.432 Q 263.211 164.935 264.536 164.935 L 264.536 164.935 L 264.536 164.935 Q 265.847 164.935 267.011 164.432 L 267.011 164.432 L 267.011 164.432 Q 268.175 163.93 269.033 163.066 L 269.033 163.066 L 269.033 163.066 Q 269.891 162.201 270.393 161.051 L 270.393 161.051 L 270.393 161.051 Q 270.895 159.9 270.895 158.589 Z  M 293.487 148.506 L 293.487 168.505 L 289.206 168.505 L 281.494 155.34 L 281.494 168.505 L 277.491 168.505 L 277.491 148.506 L 281.773 148.506 L 289.485 161.685 L 289.485 148.506 L 293.487 148.506 L 293.487 148.506 Z " fill="rgb(255,114,19)"/><path d="M 93.2 75.089 L 480.384 75.089 C 481.723 75.089 482.81 75.92 482.81 76.943 L 482.81 76.943 C 482.81 77.967 481.723 78.798 480.384 78.798 L 93.2 78.798 C 91.862 78.798 90.775 77.967 90.775 76.943 L 90.775 76.943 C 90.775 75.92 91.862 75.089 93.2 75.089 Z" style="stroke:none;fill:#FF7213;stroke-miterlimit:10;"/><path d="M 93.454 187.291 L 480.638 187.291 C 481.976 187.291 483.063 188.122 483.063 189.145 L 483.063 189.145 C 483.063 190.169 481.976 191 480.638 191 L 93.454 191 C 92.115 191 91.028 190.169 91.028 189.145 L 91.028 189.145 C 91.028 188.122 92.115 187.291 93.454 187.291 Z" style="stroke:none;fill:#FF7213;stroke-miterlimit:10;"/></g><g><path d=" M 234.388 134.518 L 234.388 141.419 L 207.7 141.419 L 222.415 113.841 L 207.7 113.841 L 207.7 106.941 L 234.388 106.941 L 219.722 134.518 L 234.388 134.518 L 234.388 134.518 Z  M 253.888 130.623 L 253.888 141.419 L 247.011 141.419 L 247.011 130.623 L 247.011 130.623 Q 244.727 130.046 242.816 128.772 L 242.816 128.772 L 242.816 128.772 Q 240.904 127.498 239.534 125.73 L 239.534 125.73 L 239.534 125.73 Q 238.163 123.963 237.406 121.811 L 237.406 121.811 L 237.406 121.811 Q 236.649 119.66 236.649 117.279 L 236.649 117.279 L 236.649 106.941 L 243.549 106.941 L 243.549 117.279 L 243.549 117.279 Q 243.549 118.698 244.09 119.96 L 244.09 119.96 L 244.09 119.96 Q 244.631 121.222 245.569 122.16 L 245.569 122.16 L 245.569 122.16 Q 246.506 123.098 247.769 123.639 L 247.769 123.639 L 247.769 123.639 Q 249.031 124.18 250.449 124.18 L 250.449 124.18 L 250.449 124.18 Q 251.868 124.18 253.13 123.639 L 253.13 123.639 L 253.13 123.639 Q 254.392 123.098 255.33 122.16 L 255.33 122.16 L 255.33 122.16 Q 256.268 121.222 256.809 119.96 L 256.809 119.96 L 256.809 119.96 Q 257.35 118.698 257.35 117.279 L 257.35 117.279 L 257.35 106.941 L 264.226 106.941 L 264.226 117.279 L 264.226 117.279 Q 264.226 119.66 263.469 121.811 L 263.469 121.811 L 263.469 121.811 Q 262.711 123.963 261.341 125.73 L 261.341 125.73 L 261.341 125.73 Q 259.971 127.498 258.071 128.772 L 258.071 128.772 L 258.071 128.772 Q 256.172 130.046 253.888 130.623 L 253.888 130.623 L 253.888 130.623 Z  M 283.389 113.841 L 283.389 141.419 L 276.512 141.419 L 276.512 113.841 L 266.15 113.841 L 266.15 106.941 L 293.727 106.941 L 293.727 113.841 L 283.389 113.841 L 283.389 113.841 Z  M 304.282 127.642 L 304.282 141.419 L 297.382 141.419 L 297.382 106.941 L 304.282 106.941 L 304.282 120.742 L 318.059 120.742 L 318.059 106.941 L 324.96 106.941 L 324.96 141.419 L 318.059 141.419 L 318.059 127.642 L 304.282 127.642 L 304.282 127.642 Z  M 365.136 124.324 L 365.136 124.324 L 365.136 124.324 Q 365.136 126.776 364.499 129.048 L 364.499 129.048 L 364.499 129.048 Q 363.862 131.321 362.708 133.304 L 362.708 133.304 L 362.708 133.304 Q 361.553 135.288 359.919 136.923 L 359.919 136.923 L 359.919 136.923 Q 358.284 138.558 356.312 139.724 L 356.312 139.724 L 356.312 139.724 Q 354.34 140.89 352.056 141.527 L 352.056 141.527 L 352.056 141.527 Q 349.772 142.164 347.32 142.164 L 347.32 142.164 L 347.32 142.164 Q 344.867 142.164 342.595 141.527 L 342.595 141.527 L 342.595 141.527 Q 340.323 140.89 338.34 139.724 L 338.34 139.724 L 338.34 139.724 Q 336.356 138.558 334.721 136.923 L 334.721 136.923 L 334.721 136.923 Q 333.086 135.288 331.92 133.304 L 331.92 133.304 L 331.92 133.304 Q 330.754 131.321 330.117 129.048 L 330.117 129.048 L 330.117 129.048 Q 329.48 126.776 329.48 124.324 L 329.48 124.324 L 329.48 124.324 Q 329.48 121.872 330.117 119.587 L 330.117 119.587 L 330.117 119.587 Q 330.754 117.303 331.92 115.332 L 331.92 115.332 L 331.92 115.332 Q 333.086 113.36 334.721 111.725 L 334.721 111.725 L 334.721 111.725 Q 336.356 110.09 338.34 108.936 L 338.34 108.936 L 338.34 108.936 Q 340.323 107.782 342.595 107.145 L 342.595 107.145 L 342.595 107.145 Q 344.867 106.508 347.32 106.508 L 347.32 106.508 L 347.32 106.508 Q 349.772 106.508 352.056 107.145 L 352.056 107.145 L 352.056 107.145 Q 354.34 107.782 356.312 108.936 L 356.312 108.936 L 356.312 108.936 Q 358.284 110.09 359.919 111.725 L 359.919 111.725 L 359.919 111.725 Q 361.553 113.36 362.708 115.332 L 362.708 115.332 L 362.708 115.332 Q 363.862 117.303 364.499 119.587 L 364.499 119.587 L 364.499 119.587 Q 365.136 121.872 365.136 124.324 Z  M 358.284 124.324 L 358.284 124.324 L 358.284 124.324 Q 358.284 122.064 357.418 120.056 L 357.418 120.056 L 357.418 120.056 Q 356.552 118.049 355.074 116.57 L 355.074 116.57 L 355.074 116.57 Q 353.595 115.091 351.588 114.226 L 351.588 114.226 L 351.588 114.226 Q 349.58 113.36 347.32 113.36 L 347.32 113.36 L 347.32 113.36 Q 345.036 113.36 343.04 114.226 L 343.04 114.226 L 343.04 114.226 Q 341.045 115.091 339.554 116.57 L 339.554 116.57 L 339.554 116.57 Q 338.063 118.049 337.198 120.056 L 337.198 120.056 L 337.198 120.056 Q 336.332 122.064 336.332 124.324 L 336.332 124.324 L 336.332 124.324 Q 336.332 126.584 337.198 128.568 L 337.198 128.568 L 337.198 128.568 Q 338.063 130.551 339.554 132.042 L 339.554 132.042 L 339.554 132.042 Q 341.045 133.533 343.04 134.398 L 343.04 134.398 L 343.04 134.398 Q 345.036 135.264 347.32 135.264 L 347.32 135.264 L 347.32 135.264 Q 349.58 135.264 351.588 134.398 L 351.588 134.398 L 351.588 134.398 Q 353.595 133.533 355.074 132.042 L 355.074 132.042 L 355.074 132.042 Q 356.552 130.551 357.418 128.568 L 357.418 128.568 L 357.418 128.568 Q 358.284 126.584 358.284 124.324 Z  M 393.796 134.518 L 393.796 141.419 L 369.656 141.419 L 369.656 106.941 L 376.556 106.941 L 376.556 134.518 L 393.796 134.518 L 393.796 134.518 Z  M 429.981 124.324 L 429.981 124.324 L 429.981 124.324 Q 429.981 126.776 429.344 129.048 L 429.344 129.048 L 429.344 129.048 Q 428.706 131.321 427.552 133.304 L 427.552 133.304 L 427.552 133.304 Q 426.398 135.288 424.763 136.923 L 424.763 136.923 L 424.763 136.923 Q 423.128 138.558 421.157 139.724 L 421.157 139.724 L 421.157 139.724 Q 419.185 140.89 416.901 141.527 L 416.901 141.527 L 416.901 141.527 Q 414.617 142.164 412.165 142.164 L 412.165 142.164 L 412.165 142.164 Q 409.712 142.164 407.44 141.527 L 407.44 141.527 L 407.44 141.527 Q 405.168 140.89 403.184 139.724 L 403.184 139.724 L 403.184 139.724 Q 401.201 138.558 399.566 136.923 L 399.566 136.923 L 399.566 136.923 Q 397.931 135.288 396.765 133.304 L 396.765 133.304 L 396.765 133.304 Q 395.599 131.321 394.962 129.048 L 394.962 129.048 L 394.962 129.048 Q 394.324 126.776 394.324 124.324 L 394.324 124.324 L 394.324 124.324 Q 394.324 121.872 394.962 119.587 L 394.962 119.587 L 394.962 119.587 Q 395.599 117.303 396.765 115.332 L 396.765 115.332 L 396.765 115.332 Q 397.931 113.36 399.566 111.725 L 399.566 111.725 L 399.566 111.725 Q 401.201 110.09 403.184 108.936 L 403.184 108.936 L 403.184 108.936 Q 405.168 107.782 407.44 107.145 L 407.44 107.145 L 407.44 107.145 Q 409.712 106.508 412.165 106.508 L 412.165 106.508 L 412.165 106.508 Q 414.617 106.508 416.901 107.145 L 416.901 107.145 L 416.901 107.145 Q 419.185 107.782 421.157 108.936 L 421.157 108.936 L 421.157 108.936 Q 423.128 110.09 424.763 111.725 L 424.763 111.725 L 424.763 111.725 Q 426.398 113.36 427.552 115.332 L 427.552 115.332 L 427.552 115.332 Q 428.706 117.303 429.344 119.587 L 429.344 119.587 L 429.344 119.587 Q 429.981 121.872 429.981 124.324 Z  M 423.128 124.324 L 423.128 124.324 L 423.128 124.324 Q 423.128 122.064 422.263 120.056 L 422.263 120.056 L 422.263 120.056 Q 421.397 118.049 419.919 116.57 L 419.919 116.57 L 419.919 116.57 Q 418.44 115.091 416.432 114.226 L 416.432 114.226 L 416.432 114.226 Q 414.425 113.36 412.165 113.36 L 412.165 113.36 L 412.165 113.36 Q 409.88 113.36 407.885 114.226 L 407.885 114.226 L 407.885 114.226 Q 405.889 115.091 404.399 116.57 L 404.399 116.57 L 404.399 116.57 Q 402.908 118.049 402.042 120.056 L 402.042 120.056 L 402.042 120.056 Q 401.177 122.064 401.177 124.324 L 401.177 124.324 L 401.177 124.324 Q 401.177 126.584 402.042 128.568 L 402.042 128.568 L 402.042 128.568 Q 402.908 130.551 404.399 132.042 L 404.399 132.042 L 404.399 132.042 Q 405.889 133.533 407.885 134.398 L 407.885 134.398 L 407.885 134.398 Q 409.88 135.264 412.165 135.264 L 412.165 135.264 L 412.165 135.264 Q 414.425 135.264 416.432 134.398 L 416.432 134.398 L 416.432 134.398 Q 418.44 133.533 419.919 132.042 L 419.919 132.042 L 419.919 132.042 Q 421.397 130.551 422.263 128.568 L 422.263 128.568 L 422.263 128.568 Q 423.128 126.584 423.128 124.324 Z  M 461.934 124.324 L 461.934 137.932 L 461.934 137.932 Q 459.53 139.976 456.573 141.07 L 456.573 141.07 L 456.573 141.07 Q 453.615 142.164 450.417 142.164 L 450.417 142.164 L 450.417 142.164 Q 447.965 142.164 445.693 141.527 L 445.693 141.527 L 445.693 141.527 Q 443.421 140.89 441.449 139.724 L 441.449 139.724 L 441.449 139.724 Q 439.478 138.558 437.843 136.935 L 437.843 136.935 L 437.843 136.935 Q 436.208 135.312 435.054 133.328 L 435.054 133.328 L 435.054 133.328 Q 433.9 131.345 433.263 129.06 L 433.263 129.06 L 433.263 129.06 Q 432.625 126.776 432.625 124.324 L 432.625 124.324 L 432.625 124.324 Q 432.625 121.872 433.263 119.611 L 433.263 119.611 L 433.263 119.611 Q 433.9 117.351 435.054 115.368 L 435.054 115.368 L 435.054 115.368 Q 436.208 113.384 437.843 111.761 L 437.843 111.761 L 437.843 111.761 Q 439.478 110.138 441.449 108.984 L 441.449 108.984 L 441.449 108.984 Q 443.421 107.83 445.693 107.193 L 445.693 107.193 L 445.693 107.193 Q 447.965 106.556 450.417 106.556 L 450.417 106.556 L 450.417 106.556 Q 453.615 106.556 456.573 107.65 L 456.573 107.65 L 456.573 107.65 Q 459.53 108.744 461.934 110.788 L 461.934 110.788 L 458.328 116.798 L 458.328 116.798 Q 456.765 115.212 454.721 114.31 L 454.721 114.31 L 454.721 114.31 Q 452.678 113.408 450.417 113.408 L 450.417 113.408 L 450.417 113.408 Q 448.157 113.408 446.174 114.274 L 446.174 114.274 L 446.174 114.274 Q 444.19 115.139 442.7 116.618 L 442.7 116.618 L 442.7 116.618 Q 441.209 118.097 440.343 120.08 L 440.343 120.08 L 440.343 120.08 Q 439.478 122.064 439.478 124.324 L 439.478 124.324 L 439.478 124.324 Q 439.478 126.608 440.343 128.604 L 440.343 128.604 L 440.343 128.604 Q 441.209 130.599 442.7 132.09 L 442.7 132.09 L 442.7 132.09 Q 444.19 133.581 446.174 134.446 L 446.174 134.446 L 446.174 134.446 Q 448.157 135.312 450.417 135.312 L 450.417 135.312 L 450.417 135.312 Q 451.716 135.312 452.942 134.999 L 452.942 134.999 L 452.942 134.999 Q 454.168 134.687 455.274 134.134 L 455.274 134.134 L 455.274 124.324 L 461.934 124.324 L 461.934 124.324 Z  M 474.148 106.941 L 474.148 141.419 L 467.248 141.419 L 467.248 106.941 L 474.148 106.941 L 474.148 106.941 Z  M 504.178 134.518 L 504.178 141.419 L 480.544 141.419 L 480.544 106.941 L 504.178 106.941 L 504.178 113.841 L 487.444 113.841 L 487.444 120.742 L 498.769 120.742 L 498.769 127.642 L 487.444 127.642 L 487.444 134.518 L 504.178 134.518 L 504.178 134.518 Z  M 190.774 131.08 L 190.774 131.08 L 190.774 131.08 Q 190.774 133.22 189.956 135.095 L 189.956 135.095 L 189.956 135.095 Q 189.139 136.971 187.732 138.377 L 187.732 138.377 L 187.732 138.377 Q 186.326 139.784 184.451 140.601 L 184.451 140.601 L 184.451 140.601 Q 182.575 141.419 180.435 141.419 L 180.435 141.419 L 163.196 141.419 L 163.196 106.941 L 180.435 106.941 L 180.435 106.941 Q 182.575 106.941 184.451 107.758 L 184.451 107.758 L 184.451 107.758 Q 186.326 108.576 187.732 109.982 L 187.732 109.982 L 187.732 109.982 Q 189.139 111.389 189.956 113.264 L 189.956 113.264 L 189.956 113.264 Q 190.774 115.139 190.774 117.279 L 190.774 117.279 L 190.774 117.279 Q 190.774 118.241 190.509 119.251 L 190.509 119.251 L 190.509 119.251 Q 190.245 120.261 189.764 121.198 L 189.764 121.198 L 189.764 121.198 Q 189.283 122.136 188.61 122.905 L 188.61 122.905 L 188.61 122.905 Q 187.937 123.675 187.119 124.18 L 187.119 124.18 L 187.119 124.18 Q 187.961 124.637 188.634 125.418 L 188.634 125.418 L 188.634 125.418 Q 189.307 126.199 189.788 127.137 L 189.788 127.137 L 189.788 127.137 Q 190.269 128.075 190.521 129.097 L 190.521 129.097 L 190.521 129.097 Q 190.774 130.118 190.774 131.08 Z  M 170.097 127.642 L 170.097 134.518 L 180.435 134.518 L 180.435 134.518 Q 181.157 134.518 181.782 134.254 L 181.782 134.254 L 181.782 134.254 Q 182.407 133.989 182.876 133.521 L 182.876 133.521 L 182.876 133.521 Q 183.345 133.052 183.609 132.427 L 183.609 132.427 L 183.609 132.427 Q 183.874 131.801 183.874 131.08 L 183.874 131.08 L 183.874 131.08 Q 183.874 130.359 183.609 129.734 L 183.609 129.734 L 183.609 129.734 Q 183.345 129.109 182.876 128.64 L 182.876 128.64 L 182.876 128.64 Q 182.407 128.171 181.782 127.906 L 181.782 127.906 L 181.782 127.906 Q 181.157 127.642 180.435 127.642 L 180.435 127.642 L 170.097 127.642 L 170.097 127.642 Z  M 170.097 113.841 L 170.097 120.742 L 180.435 120.742 L 180.435 120.742 Q 181.157 120.742 181.782 120.477 L 181.782 120.477 L 181.782 120.477 Q 182.407 120.213 182.876 119.744 L 182.876 119.744 L 182.876 119.744 Q 183.345 119.275 183.609 118.638 L 183.609 118.638 L 183.609 118.638 Q 183.874 118.001 183.874 117.279 L 183.874 117.279 L 183.874 117.279 Q 183.874 116.558 183.609 115.933 L 183.609 115.933 L 183.609 115.933 Q 183.345 115.308 182.876 114.839 L 182.876 114.839 L 182.876 114.839 Q 182.407 114.37 181.782 114.106 L 181.782 114.106 L 181.782 114.106 Q 181.157 113.841 180.435 113.841 L 180.435 113.841 L 170.097 113.841 L 170.097 113.841 Z " fill="rgb(0,0,0)"/></g><path d=" M 130.094 161.401 C 130.249 157.469 128.313 155.047 128.21 154.923 C 128.128 154.82 128.009 154.754 127.878 154.741 C 127.746 154.732 127.617 154.777 127.519 154.866 C 127.421 154.95 125.217 156.881 123.874 159.863 C 121.469 159.268 118.913 160.086 118.8 160.124 C 118.663 160.169 118.551 160.272 118.496 160.404 C 118.469 160.471 117.832 162.033 117.758 163.9 C 117.737 164.44 117.756 164.962 117.836 165.443 C 114.756 166.549 112.659 168.594 112.567 168.683 C 112.477 168.771 112.42 168.89 112.415 169.015 C 112.415 169.021 112.413 169.023 112.414 169.031 C 112.412 169.16 112.463 169.284 112.555 169.375 C 112.624 169.441 119.045 175.461 126.406 168.659 C 128.745 166.496 129.988 164.056 130.093 161.401 L 130.094 161.401 Z  M 129.671 171.698 C 129.683 171.5 129.575 171.314 129.398 171.225 C 128.572 170.802 127.766 169.964 127.181 169.275 C 127.145 169.308 127.106 169.344 127.07 169.379 C 126.858 169.574 126.641 169.748 126.432 169.923 C 127.076 170.677 127.986 171.608 128.948 172.1 C 129.096 172.173 129.27 172.168 129.415 172.088 C 129.559 172.008 129.655 171.862 129.672 171.698 L 129.671 171.698 Z  M 126.6 154.367 C 125.008 150.768 121.073 149.664 120.892 149.617 C 120.738 149.576 120.581 149.604 120.458 149.707 C 120.384 149.768 118.674 151.234 118.569 153.896 C 118.539 154.641 118.649 155.406 118.878 156.186 C 119.029 156.7 119.498 157.898 119.99 158.831 C 120.885 158.68 122.082 158.585 123.317 158.763 C 124.467 156.54 125.99 154.953 126.6 154.367 L 126.6 154.367 Z  M 118.996 159.054 C 118.505 158.081 118.073 156.969 117.928 156.473 C 117.668 155.589 117.551 154.709 117.585 153.858 C 117.591 153.712 117.604 153.568 117.617 153.428 C 115 152.215 112.256 152.809 112.114 152.842 C 111.938 152.878 111.797 153.008 111.747 153.181 C 111.736 153.217 111.51 154.107 111.462 155.324 C 111.424 156.291 111.505 157.508 111.945 158.699 C 112.834 158.686 113.831 158.829 114.925 159.248 C 115.486 159.461 116.423 159.95 117.364 160.637 C 117.473 160.301 117.562 160.091 117.588 160.03 C 117.755 159.631 118.087 159.324 118.498 159.189 C 118.663 159.141 118.829 159.096 118.996 159.054 L 118.996 159.054 Z  M 119.216 149.581 C 117.022 146.957 113.807 147.018 113.652 147.022 C 113.469 147.024 113.303 147.131 113.226 147.298 C 113.199 147.356 112.553 148.747 112.484 150.501 C 112.467 150.941 112.484 151.375 112.541 151.781 C 113.57 151.648 115.677 151.545 117.78 152.434 C 118.034 151.386 118.525 150.41 119.216 149.581 L 119.216 149.581 Z  M 117.077 161.657 C 116.123 160.911 115.107 160.38 114.565 160.172 C 110.581 158.651 108.086 161.131 107.981 161.236 C 107.895 161.325 107.85 161.433 107.845 161.554 C 107.844 161.585 107.852 161.631 107.857 161.663 C 107.883 161.834 108.524 165.664 111.999 167.86 C 112.488 167.406 114.258 165.863 116.784 164.801 C 116.765 164.498 116.762 164.178 116.774 163.862 C 116.807 163.041 116.927 162.284 117.077 161.657 L 117.077 161.657 Z  M 111.974 147.818 C 109.542 146.955 107.363 147.584 107.257 147.616 C 107.103 147.662 106.986 147.79 106.936 147.943 C 106.923 147.986 106.586 149.003 106.534 150.327 C 106.502 151.148 106.582 151.896 106.769 152.569 C 107.913 152.252 109.818 151.991 111.762 152.812 C 111.558 152.079 111.467 151.294 111.5 150.462 C 111.542 149.402 111.768 148.468 111.974 147.818 L 111.974 147.818 Z  M 110.941 158.783 C 110.527 157.531 110.439 156.289 110.479 155.286 C 110.509 154.527 110.607 153.898 110.689 153.478 C 108.335 152.814 106.226 153.8 106.118 153.852 C 105.985 153.915 105.878 154.037 105.843 154.18 C 105.837 154.21 105.77 154.482 105.752 154.93 C 105.707 156.062 105.966 158.098 107.81 160.106 C 108.731 159.418 109.806 158.964 110.941 158.783 Z " fill="rgb(255,114,19)"/><g><g><path d=" M 155.633 123.045 C 155.633 128.301 152.762 139.097 150.86 146.242 C 149.591 151.013 148.929 153.546 148.929 154.482 C 148.929 155.543 149.209 158.207 149.563 161.579 C 149.866 164.461 150.208 167.727 150.416 170.425 C 150.477 171.178 150.238 171.924 149.759 172.478 C 149.285 173.035 148.613 173.35 147.91 173.346 L 128.162 173.346 L 128.162 173.344 C 127.451 173.344 126.795 173.037 126.314 172.476 C 125.833 171.922 125.594 171.176 125.657 170.423 C 125.864 167.725 126.206 164.459 126.51 161.578 C 126.863 158.207 127.143 155.543 127.143 154.482 C 127.143 153.546 126.481 151.013 125.213 146.242 C 123.31 139.097 120.44 128.301 120.44 123.045 L 155.633 123.045 L 155.633 123.045 Z " fill="rgb(255,114,19)"/><g><g><g><path d=" M 120.999 122.998 L 121.467 113.932 Q 125.553 102.501 129.988 97.745 C 132.697 94.839 137.137 91.828 138.895 90.861 C 140.073 90.215 142 89.528 142.689 90.534 C 143.951 92.377 136.639 93.825 133.62 96.532 C 130.21 100.255 128.94 106.383 129.988 106.432 C 130.337 106.449 131.907 105.072 133.141 105.152 C 134.62 105.248 136.49 105.762 136.447 107.434 C 136.43 108.111 136.155 108.672 135.67 109.142 C 134.695 110.088 133.357 108.848 132.158 109.2 C 131.319 109.446 130.554 109.673 129.956 110.33 C 128.723 111.683 129.168 113.533 129.943 115.081 C 131.634 118.459 138.214 117.294 138.895 115.877 C 139.733 114.427 137.225 114.162 137.137 114.118 C 136.117 113.608 133.418 114.249 133.62 112.558 C 133.762 111.359 136.887 110.272 139.35 110.33 C 141.058 110.37 142.654 111.017 143.472 112.558 C 144.712 114.893 140.57 116.205 140.904 118.606 C 141.05 119.661 141.003 120.844 142.002 121.399 C 142.738 121.81 143.984 122.117 144.3 121.399 C 144.942 119.943 143.495 118.853 144.185 117.65 C 145.146 115.971 147.187 116.165 148.968 116.263 C 151.141 116.381 153.253 117.005 154.349 118.966 C 154.834 119.835 154.921 120.701 155.03 121.682 Q 155.118 122.48 155.03 123.961 L 120.999 124.616 L 120.999 122.998 Z " fill="rgb(255,114,19)"/><path d=" M 122.54 121.544 Q 122.36 116.75 122.76 114.183 C 123.51 109.376 125.503 105.501 127.981 101.338 C 130.614 96.916 132.336 97.494 131.446 98.741 C 129.575 100.775 127.941 108.058 128.344 108.094 C 128.652 108.108 129.781 106.932 131.861 106.432 C 133.304 106.432 136.252 106.768 135.378 108.094 C 134.526 109.402 133.985 107.551 131.861 108.094 C 129.74 108.499 128.797 109.407 128.173 110.601 C 127.535 111.821 126.166 114.586 128.344 120.475 C 129.378 123.271 132.902 122.929 135.378 121.911 C 137.328 121.109 138.796 117.751 138.895 117.635 C 139.834 116.54 140.809 114.161 139.247 113.14 C 138.188 112.447 135.219 113.592 135.378 112.359 C 135.504 111.386 136.925 111.212 139.097 111.259 C 140.603 111.291 142.347 111.603 142.732 113.068 C 143.026 114.184 141.788 114.852 141.439 115.877 C 140.906 117.443 140.18 118.721 140.654 120.475 C 141.654 124.175 150.887 124.34 150.066 121.152 C 149.558 119.18 145.015 120.079 145.292 117.978 C 145.446 116.811 149.286 116.767 151.263 118.27 C 151.942 118.787 152.814 119.554 153.316 120.475 Q 154.383 122.435 152.964 126.428 L 123.068 126.428 L 122.54 121.544 Z " fill="rgb(255,132,24)"/><path d=" M 152.964 105.647 C 153.423 108.439 154.805 116.648 154.805 122.713 C 154.805 127.843 151.953 138.566 150.066 145.662 C 148.704 150.782 148.102 153.09 148.102 154.15 C 148.102 155.208 148.345 157.572 148.741 161.341 C 149.042 164.217 149.386 167.479 149.592 170.165 C 149.633 170.666 149.475 171.163 149.157 171.534 C 148.839 171.905 148.391 172.115 147.921 172.114 L 128.173 172.114 C 127.704 172.117 127.257 171.907 126.941 171.535 C 126.62 171.166 126.461 170.667 126.504 170.165 C 126.71 167.477 127.052 164.217 127.355 161.341 C 127.749 157.572 127.992 155.208 127.992 154.15 C 127.992 153.09 127.39 150.782 126.028 145.664 C 124.141 138.568 121.288 127.843 121.288 122.713 C 121.288 116.646 122.609 108.437 123.068 105.647 L 152.964 105.647 Z  M 154.805 105.647 L 133.845 105.647 L 121.288 105.647 C 121.288 105.647 119.367 115.628 119.613 122.713 C 119.672 124.418 119.926 126.527 120.451 128.814 C 123.869 144.98 126.316 152.668 126.316 154.15 C 126.316 156.068 125.272 164.285 124.831 170.019 C 124.753 171.021 125.07 172.011 125.705 172.751 C 126.34 173.49 127.235 173.911 128.173 173.91 L 147.921 173.91 C 148.859 173.911 149.753 173.49 150.388 172.751 C 151.023 172.011 151.341 171.021 151.263 170.019 C 150.822 164.285 149.778 156.068 149.778 154.15 C 149.778 151.719 156.481 131.007 156.481 122.713 C 156.481 114.419 154.805 105.647 154.805 105.647 Z " fill="rgb(62,62,62)"/></g></g></g><path d=" M 153.25 124.955 C 153.25 129.674 150.525 139.081 148.91 145.495 C 147.832 149.779 147.27 152.053 147.27 152.893 C 147.27 153.846 147.507 156.238 147.808 159.265 C 148.065 161.852 148.356 164.784 148.532 167.206 C 148.585 167.882 148.382 168.552 147.974 169.05 C 147.572 169.549 147.001 169.832 146.404 169.829 L 129.628 169.829 L 129.628 169.827 C 129.024 169.827 128.466 169.551 128.058 169.048 C 127.65 168.551 127.447 167.881 127.5 167.205 C 127.676 164.782 127.967 161.85 128.224 159.263 C 128.525 156.238 128.763 153.846 128.763 152.893 C 128.763 152.053 128.2 149.779 127.122 145.495 C 125.507 139.081 122.98 129.388 122.98 124.669 L 152.964 124.669 L 153.25 124.955 Z " fill="rgb(255,132,24)"/></g></g><circle vector-effect="non-scaling-stroke" cx="146.80906018268968" cy="114.18506965781788" r="0.8792976255711835" fill="rgb(255,132,24)"/><circle vector-effect="non-scaling-stroke" cx="143.29186968040494" cy="95.65266899735889" r="0.8792976255711835" fill="rgb(255,114,19)"/><circle vector-effect="non-scaling-stroke" cx="151.20554831054562" cy="110.60072863206904" r="1.758595251142367" fill="rgb(255,114,19)"/><circle vector-effect="non-scaling-stroke" cx="138.89538155254903" cy="105.32494287864193" r="1.758595251142367" fill="rgb(255,132,24)"/></g></g></svg>