<?xml version="1.0" encoding="UTF-8" standalone="no"?><!-- Generator: Gravit.io --><svg xmlns="http://www.w3.org/2000/svg" xmlns:xlink="http://www.w3.org/1999/xlink" style="isolation:isolate" viewBox="0 0 540 216" width="540pt" height="216pt"><defs><clipPath id="_clipPath_dV1KjXjr1pTlCXLAhO6eM2K2fFiWhwjk"><rect width="540" height="216"/></clipPath></defs><g clip-path="url(#_clipPath_dV1KjXjr1pTlCXLAhO6eM2K2fFiWhwjk)"><path d="M 0 184.302 L 540 184.302 L 540 184.302 L 540 216 L 540 216 L 0 216 C 0 216 0 216 0 216 L 0 184.302 C 0 184.302 0 184.302 0 184.302 Z" style="stroke:none;fill:#FF7213;stroke-miterlimit:10;"/><path d="M 0 0 L 540 0 L 540 0 L 540 31.698 L 540 31.698 L 0 31.698 C 0 31.698 0 31.698 0 31.698 L 0 0 C 0 0 0 0 0 0 Z" style="stroke:none;fill:#FF7213;stroke-miterlimit:10;"/><path d=" M 490.419 198.425 C 469.886 198.692 457.552 208.692 444.419 207.092 C 414.219 204.359 408.219 192.692 392.419 193.759 C 359.219 195.359 355.219 206.725 323.086 200.425 C 291.119 196.175 291.119 205.925 258.419 209.092 C 209.819 212.125 201.369 200.175 149.086 201.092 C 134.144 201.092 122.119 209.675 100.619 210.425 C 79.319 206.625 13.124 190.007 -4.381 195.842 C -9.115 197.42 -8.553 220.18 -2.381 222.825 C 15.672 230.562 540.173 225.717 541.619 222.825 Q 545.487 215.088 543.752 209.092 Q 520.552 198.025 490.419 198.425 Z " fill="rgb(255,137,34)"/><path d=" M 514.795 195.976 C 514.795 197.421 513.622 198.594 512.177 198.594 C 510.732 198.594 509.559 197.421 509.559 195.976 C 509.559 194.531 510.732 193.358 512.177 193.358 C 513.622 193.358 514.795 194.531 514.795 195.976 Z " fill="rgb(255,137,34)"/><rect x="0" y="31.698" width="540" height="152.603" transform="matrix(1,0,0,1,0,0)" fill="rgb(255,255,255)"/><g><path d=" M 49.581 17.575 C 70.114 17.308 82.448 7.308 95.581 8.908 C 125.781 11.641 131.781 23.308 147.581 22.241 C 180.781 20.641 184.781 9.275 216.914 15.575 C 248.881 19.825 248.881 10.075 281.581 6.908 C 330.181 3.875 338.631 15.825 390.914 14.908 C 405.856 14.908 417.881 6.325 439.381 5.575 C 460.681 9.375 526.876 25.993 544.381 20.158 C 549.115 18.58 548.553 -4.18 542.381 -6.825 C 524.328 -14.562 -0.173 -9.717 -1.619 -6.825 Q -5.488 0.912 -3.752 6.908 Q 19.448 17.975 49.581 17.575 Z " fill="rgb(255,137,34)"/><circle vector-effect="non-scaling-stroke" cx="87.38109136205685" cy="20.023999708834225" r="4" fill="rgb(255,137,34)"/><circle vector-effect="non-scaling-stroke" cx="78.38109136205685" cy="33.259888335935784" r="3" fill="rgb(255,137,34)"/><circle vector-effect="non-scaling-stroke" cx="110.38109136205685" cy="27.49577696303735" r="3" fill="rgb(255,137,34)"/><circle vector-effect="non-scaling-stroke" cx="22.233400828534748" cy="39.259888335935784" r="3" fill="rgb(255,137,34)"/><circle vector-effect="non-scaling-stroke" cx="13.997512201433185" cy="25.259888335935788" r="5.235888627101563" fill="rgb(255,137,34)"/><circle vector-effect="non-scaling-stroke" cx="27.82335629369426" cy="20.023999708834225" r="2.617944313550783" fill="rgb(255,137,34)"/><circle vector-effect="non-scaling-stroke" cx="170.26314704850606" cy="27.141944022385005" r="3.1179443135507654" fill="rgb(255,137,34)"/><circle vector-effect="non-scaling-stroke" cx="195.7631470485061" cy="22.02399970883423" r="4.617944313550794" fill="rgb(255,137,34)"/><circle vector-effect="non-scaling-stroke" cx="206.76314704850606" cy="24.023999708834225" r="2.617944313550794" fill="rgb(255,137,34)"/><circle vector-effect="non-scaling-stroke" cx="301.7631470485061" cy="15.943658358900874" r="2.6179443135507654" fill="rgb(255,137,34)"/><circle vector-effect="non-scaling-stroke" cx="312.24903567560756" cy="22.641944022385005" r="4.867944313550765" fill="rgb(255,137,34)"/><circle vector-effect="non-scaling-stroke" cx="297.93610994106245" cy="33.70486975693021" r="6.444981420994395" fill="rgb(255,137,34)"/><circle vector-effect="non-scaling-stroke" cx="383.4361099410624" cy="22.506584093446072" r="3.944981420994395" fill="rgb(255,137,34)"/><circle vector-effect="non-scaling-stroke" cx="453.32607278305125" cy="16.702366166594956" r="4.703689228688461" fill="rgb(255,137,34)"/><circle vector-effect="non-scaling-stroke" cx="438.8916655749655" cy="23.989601123656982" r="3.9656014148227428" fill="rgb(255,137,34)"/></g><path d=" M 483.96 33.888 C 482.265 41.532 485.198 46.96 485.356 47.237 C 485.479 47.468 485.69 47.64 485.941 47.712 C 486.195 47.776 486.464 47.733 486.687 47.595 C 486.909 47.464 491.908 44.463 495.593 39.102 C 500.09 41.118 505.386 40.42 505.62 40.386 C 505.903 40.347 506.159 40.184 506.314 39.945 C 506.391 39.824 508.192 36.991 508.997 33.361 C 509.229 32.312 509.376 31.283 509.391 30.314 C 515.812 29.239 520.642 25.978 520.853 25.836 C 521.061 25.694 521.215 25.482 521.268 25.239 C 521.271 25.227 521.275 25.224 521.275 25.208 C 521.326 24.956 521.27 24.695 521.122 24.485 C 521.01 24.331 510.569 10.272 493.75 20.984 C 488.404 24.389 485.106 28.727 483.962 33.888 L 483.96 33.888 Z  M 488.432 13.878 C 488.339 14.261 488.484 14.664 488.8 14.9 C 490.267 16.021 491.548 17.947 492.45 19.502 C 492.532 19.45 492.622 19.395 492.705 19.339 C 493.188 19.031 493.674 18.767 494.145 18.499 C 493.152 16.795 491.7 14.65 489.991 13.346 C 489.726 13.151 489.383 13.099 489.072 13.205 C 488.761 13.311 488.522 13.562 488.431 13.877 L 488.432 13.878 Z  M 488.311 48.897 C 490.152 56.507 497.467 60.061 497.804 60.218 C 498.092 60.352 498.409 60.352 498.687 60.195 C 498.853 60.101 502.72 57.837 503.869 52.661 C 504.19 51.213 504.245 49.678 504.073 48.068 C 503.959 47.008 503.466 44.497 502.833 42.496 C 501.027 42.475 498.65 42.238 496.294 41.452 C 493.256 45.398 489.712 47.966 488.31 48.897 L 488.311 48.897 Z  M 504.858 42.411 C 505.474 44.491 505.926 46.821 506.035 47.844 C 506.23 49.666 506.148 51.43 505.781 53.085 C 505.718 53.368 505.641 53.645 505.565 53.914 C 510.259 57.217 515.843 57.025 516.132 57.011 C 516.489 57.003 516.812 56.796 516.971 56.476 C 517.005 56.409 517.762 54.748 518.287 52.381 C 518.704 50.502 518.976 48.09 518.537 45.602 C 516.791 45.313 514.89 44.68 512.897 43.473 C 511.874 42.858 510.212 41.569 508.614 39.89 C 508.281 40.509 508.032 40.89 507.96 40.999 C 507.491 41.721 506.733 42.204 505.88 42.324 C 505.54 42.36 505.199 42.389 504.858 42.411 L 504.858 42.411 Z  M 501.074 60.88 C 504.44 66.795 510.757 67.813 511.061 67.86 C 511.42 67.922 511.784 67.77 511.993 67.471 C 512.067 67.366 513.823 64.872 514.579 61.462 C 514.769 60.607 514.889 59.752 514.921 58.937 C 512.859 58.832 508.698 58.288 504.896 55.804 C 504.026 57.766 502.719 59.502 501.073 60.88 L 501.074 60.88 Z  M 509.537 37.995 C 511.14 39.793 512.941 41.191 513.928 41.79 C 521.19 46.18 526.954 42.208 527.196 42.038 C 527.395 41.894 527.522 41.699 527.574 41.464 C 527.587 41.403 527.588 41.31 527.59 41.247 C 527.6 40.902 527.699 33.177 521.674 27.648 C 520.555 28.364 516.544 30.758 511.223 31.943 C 511.153 32.543 511.045 33.17 510.909 33.785 C 510.555 35.38 510.051 36.82 509.536 37.994 L 509.537 37.995 Z  M 514.628 66.896 C 519.085 69.448 523.573 68.986 523.793 68.961 C 524.11 68.926 524.384 68.715 524.536 68.435 C 524.577 68.354 525.596 66.484 526.167 63.908 C 526.521 62.314 526.629 60.821 526.501 59.437 C 524.15 59.652 520.326 59.489 516.811 57.193 C 516.951 58.701 516.851 60.271 516.492 61.886 C 516.035 63.948 515.262 65.696 514.629 66.896 L 514.628 66.896 Z  M 520.532 45.794 C 520.9 48.391 520.632 50.855 520.199 52.805 C 519.872 54.279 519.457 55.477 519.148 56.27 C 523.522 58.404 528.001 57.219 528.229 57.156 C 528.513 57.079 528.765 56.879 528.884 56.611 C 528.907 56.554 529.135 56.045 529.328 55.175 C 529.816 52.974 530.03 48.896 527.13 44.311 C 525.083 45.332 522.819 45.841 520.532 45.794 Z " fill="rgb(255,137,34)"/><path d=" M 56.04 182.112 C 57.735 174.468 54.802 169.04 54.644 168.763 C 54.521 168.532 54.31 168.36 54.059 168.288 C 53.805 168.224 53.536 168.267 53.313 168.405 C 53.091 168.536 48.092 171.537 44.407 176.898 C 39.91 174.882 34.614 175.58 34.38 175.614 C 34.097 175.653 33.841 175.816 33.686 176.055 C 33.609 176.176 31.808 179.009 31.003 182.639 C 30.771 183.688 30.624 184.717 30.609 185.686 C 24.188 186.761 19.358 190.022 19.147 190.164 C 18.939 190.306 18.785 190.518 18.732 190.761 C 18.729 190.773 18.725 190.776 18.725 190.792 C 18.674 191.044 18.73 191.305 18.878 191.515 C 18.99 191.669 29.431 205.728 46.25 195.016 C 51.596 191.611 54.894 187.273 56.038 182.112 L 56.04 182.112 Z  M 51.568 202.122 C 51.661 201.739 51.516 201.336 51.2 201.1 C 49.733 199.979 48.452 198.053 47.55 196.498 C 47.468 196.55 47.378 196.605 47.295 196.661 C 46.812 196.969 46.326 197.233 45.855 197.501 C 46.848 199.205 48.3 201.35 50.009 202.654 C 50.274 202.849 50.617 202.901 50.928 202.795 C 51.239 202.689 51.478 202.438 51.569 202.123 L 51.568 202.122 Z  M 51.689 167.103 C 49.848 159.493 42.533 155.939 42.196 155.782 C 41.908 155.648 41.591 155.648 41.313 155.805 C 41.147 155.899 37.28 158.163 36.131 163.339 C 35.81 164.787 35.755 166.322 35.927 167.932 C 36.041 168.992 36.534 171.503 37.167 173.504 C 38.973 173.525 41.35 173.762 43.706 174.548 C 46.744 170.602 50.288 168.034 51.69 167.103 L 51.689 167.103 Z  M 35.142 173.589 C 34.526 171.509 34.074 169.179 33.965 168.156 C 33.77 166.334 33.852 164.57 34.219 162.915 C 34.282 162.632 34.359 162.355 34.435 162.086 C 29.741 158.783 24.157 158.975 23.868 158.989 C 23.511 158.997 23.188 159.204 23.029 159.524 C 22.995 159.591 22.238 161.252 21.713 163.619 C 21.296 165.498 21.024 167.91 21.463 170.398 C 23.209 170.687 25.11 171.32 27.103 172.527 C 28.126 173.142 29.788 174.431 31.386 176.11 C 31.719 175.491 31.968 175.11 32.04 175.001 C 32.509 174.279 33.267 173.796 34.12 173.676 C 34.46 173.64 34.801 173.611 35.142 173.589 L 35.142 173.589 Z  M 38.926 155.12 C 35.56 149.205 29.243 148.187 28.939 148.14 C 28.58 148.078 28.216 148.23 28.007 148.529 C 27.933 148.634 26.177 151.128 25.421 154.538 C 25.231 155.393 25.111 156.248 25.079 157.063 C 27.141 157.168 31.302 157.712 35.104 160.196 C 35.974 158.234 37.281 156.498 38.927 155.12 L 38.926 155.12 Z  M 30.463 178.005 C 28.86 176.207 27.059 174.809 26.072 174.21 C 18.81 169.82 13.046 173.792 12.804 173.962 C 12.605 174.106 12.478 174.301 12.426 174.536 C 12.413 174.597 12.412 174.69 12.41 174.753 C 12.4 175.098 12.301 182.823 18.326 188.352 C 19.445 187.636 23.456 185.242 28.777 184.057 C 28.847 183.457 28.955 182.83 29.091 182.215 C 29.445 180.62 29.949 179.18 30.464 178.006 L 30.463 178.005 Z  M 25.372 149.104 C 20.915 146.552 16.427 147.014 16.207 147.039 C 15.89 147.074 15.616 147.285 15.464 147.565 C 15.423 147.646 14.404 149.516 13.833 152.092 C 13.479 153.686 13.371 155.179 13.499 156.563 C 15.85 156.348 19.674 156.511 23.189 158.807 C 23.049 157.299 23.149 155.729 23.508 154.114 C 23.965 152.052 24.738 150.304 25.371 149.104 L 25.372 149.104 Z  M 19.468 170.206 C 19.1 167.609 19.368 165.145 19.801 163.195 C 20.128 161.721 20.543 160.523 20.852 159.73 C 16.478 157.596 11.999 158.781 11.771 158.844 C 11.487 158.921 11.235 159.121 11.116 159.389 C 11.093 159.446 10.865 159.955 10.672 160.825 C 10.184 163.026 9.97 167.104 12.87 171.689 C 14.917 170.668 17.181 170.159 19.468 170.206 Z " fill="rgb(255,137,34)"/><path d=" M 298.928 70.762 L 298.928 91.45 L 294.787 91.45 L 294.787 70.762 L 298.928 70.762 Z  M 319.313 70.762 L 319.313 91.45 L 314.884 91.45 L 306.906 77.831 L 306.906 91.45 L 302.765 91.45 L 302.765 70.762 L 307.194 70.762 L 315.172 84.395 L 315.172 70.762 L 319.313 70.762 Z  M 321.939 76.965 L 321.939 76.965 L 321.939 76.965 Q 321.939 75.681 322.429 74.556 L 322.429 74.556 L 322.429 74.556 Q 322.92 73.431 323.764 72.587 L 323.764 72.587 L 323.764 72.587 Q 324.608 71.743 325.733 71.252 L 325.733 71.252 L 325.733 71.252 Q 326.858 70.762 328.142 70.762 L 328.142 70.762 L 337.635 70.762 L 337.635 74.902 L 328.142 74.902 L 328.142 74.902 Q 327.709 74.902 327.334 75.061 L 327.334 75.061 L 327.334 75.061 Q 326.959 75.22 326.678 75.501 L 326.678 75.501 L 326.678 75.501 Q 326.396 75.782 326.238 76.158 L 326.238 76.158 L 326.238 76.158 Q 326.079 76.533 326.079 76.965 L 326.079 76.965 L 326.079 76.965 Q 326.079 77.398 326.238 77.781 L 326.238 77.781 L 326.238 77.781 Q 326.396 78.163 326.678 78.444 L 326.678 78.444 L 326.678 78.444 Q 326.959 78.726 327.334 78.884 L 327.334 78.884 L 327.334 78.884 Q 327.709 79.043 328.142 79.043 L 328.142 79.043 L 332.283 79.043 L 332.283 79.043 Q 333.567 79.043 334.699 79.526 L 334.699 79.526 L 334.699 79.526 Q 335.832 80.01 336.676 80.853 L 336.676 80.853 L 336.676 80.853 Q 337.52 81.697 338.003 82.83 L 338.003 82.83 L 338.003 82.83 Q 338.486 83.962 338.486 85.246 L 338.486 85.246 L 338.486 85.246 Q 338.486 86.53 338.003 87.656 L 338.003 87.656 L 338.003 87.656 Q 337.52 88.781 336.676 89.625 L 336.676 89.625 L 336.676 89.625 Q 335.832 90.469 334.699 90.959 L 334.699 90.959 L 334.699 90.959 Q 333.567 91.45 332.283 91.45 L 332.283 91.45 L 323.093 91.45 L 323.093 87.309 L 332.283 87.309 L 332.283 87.309 Q 332.715 87.309 333.091 87.151 L 333.091 87.151 L 333.091 87.151 Q 333.466 86.992 333.747 86.711 L 333.747 86.711 L 333.747 86.711 Q 334.028 86.429 334.187 86.054 L 334.187 86.054 L 334.187 86.054 Q 334.346 85.679 334.346 85.246 L 334.346 85.246 L 334.346 85.246 Q 334.346 84.814 334.187 84.439 L 334.187 84.439 L 334.187 84.439 Q 334.028 84.063 333.747 83.782 L 333.747 83.782 L 333.747 83.782 Q 333.466 83.501 333.091 83.342 L 333.091 83.342 L 333.091 83.342 Q 332.715 83.183 332.283 83.183 L 332.283 83.183 L 328.142 83.183 L 328.142 83.183 Q 326.858 83.183 325.733 82.693 L 325.733 82.693 L 325.733 82.693 Q 324.608 82.202 323.764 81.358 L 323.764 81.358 L 323.764 81.358 Q 322.92 80.514 322.429 79.382 L 322.429 79.382 L 322.429 79.382 Q 321.939 78.249 321.939 76.965 Z  M 345.094 83.183 L 353.375 83.183 L 353.375 79.043 L 353.375 79.043 Q 353.375 78.192 353.05 77.434 L 353.05 77.434 L 353.05 77.434 Q 352.725 76.677 352.163 76.114 L 352.163 76.114 L 352.163 76.114 Q 351.6 75.552 350.843 75.227 L 350.843 75.227 L 350.843 75.227 Q 350.085 74.902 349.234 74.902 L 349.234 74.902 L 349.234 74.902 Q 348.383 74.902 347.626 75.227 L 347.626 75.227 L 347.626 75.227 Q 346.868 75.552 346.305 76.114 L 346.305 76.114 L 346.305 76.114 Q 345.743 76.677 345.418 77.434 L 345.418 77.434 L 345.418 77.434 Q 345.094 78.192 345.094 79.043 L 345.094 79.043 L 345.094 83.183 Z  M 357.515 79.043 L 357.515 91.45 L 353.375 91.45 L 353.375 87.309 L 345.094 87.309 L 345.094 91.45 L 340.968 91.45 L 340.968 79.043 L 340.968 79.043 Q 340.968 77.326 341.617 75.819 L 341.617 75.819 L 341.617 75.819 Q 342.266 74.311 343.384 73.186 L 343.384 73.186 L 343.384 73.186 Q 344.502 72.06 346.01 71.411 L 346.01 71.411 L 346.01 71.411 Q 347.517 70.762 349.234 70.762 L 349.234 70.762 L 349.234 70.762 Q 350.951 70.762 352.459 71.411 L 352.459 71.411 L 352.459 71.411 Q 353.966 72.06 355.091 73.186 L 355.091 73.186 L 355.091 73.186 Q 356.217 74.311 356.866 75.819 L 356.866 75.819 L 356.866 75.819 Q 357.515 77.326 357.515 79.043 L 357.515 79.043 Z  M 375.592 87.309 L 375.592 91.45 L 361.107 91.45 L 361.107 70.762 L 365.248 70.762 L 365.248 87.309 L 375.592 87.309 Z  M 381.882 70.762 L 381.882 91.45 L 377.742 91.45 L 377.742 70.762 L 381.882 70.762 Z  M 399.901 87.309 L 399.901 91.45 L 385.72 91.45 L 385.72 70.762 L 399.901 70.762 L 399.901 74.902 L 389.86 74.902 L 389.86 79.043 L 396.655 79.043 L 396.655 83.183 L 389.86 83.183 L 389.86 87.309 L 399.901 87.309 Z  M 419.349 70.762 L 419.349 91.45 L 414.92 91.45 L 406.942 77.831 L 406.942 91.45 L 402.801 91.45 L 402.801 70.762 L 407.23 70.762 L 415.208 84.395 L 415.208 70.762 L 419.349 70.762 Z  M 439.734 70.762 L 439.734 91.45 L 435.305 91.45 L 427.327 77.831 L 427.327 91.45 L 423.186 91.45 L 423.186 70.762 L 427.615 70.762 L 435.593 84.395 L 435.593 70.762 L 439.734 70.762 Z  M 457.753 87.309 L 457.753 91.45 L 443.571 91.45 L 443.571 70.762 L 457.753 70.762 L 457.753 74.902 L 447.712 74.902 L 447.712 79.043 L 454.507 79.043 L 454.507 83.183 L 447.712 83.183 L 447.712 87.309 L 457.753 87.309 Z " fill="rgb(255,114,19)"/><path d=" M 431.692 199.185 L 431.692 199.185 L 431.692 199.185 Q 431.692 199.91 431.505 200.58 L 431.505 200.58 L 431.505 200.58 Q 431.319 201.25 430.974 201.832 L 430.974 201.832 L 430.974 201.832 Q 430.63 202.415 430.154 202.894 L 430.154 202.894 L 430.154 202.894 Q 429.678 203.374 429.092 203.718 L 429.092 203.718 L 429.092 203.718 Q 428.506 204.063 427.836 204.249 L 427.836 204.249 L 427.836 204.249 Q 427.166 204.436 426.441 204.436 L 426.441 204.436 L 423.277 204.436 L 423.277 193.933 L 426.441 193.933 L 426.441 193.933 Q 427.166 193.933 427.836 194.12 L 427.836 194.12 L 427.836 194.12 Q 428.506 194.307 429.092 194.651 L 429.092 194.651 L 429.092 194.651 Q 429.678 194.995 430.154 195.475 L 430.154 195.475 L 430.154 195.475 Q 430.63 195.955 430.974 196.537 L 430.974 196.537 L 430.974 196.537 Q 431.319 197.119 431.505 197.789 L 431.505 197.789 L 431.505 197.789 Q 431.692 198.46 431.692 199.185 Z  M 429.59 199.185 L 429.59 199.185 L 429.59 199.185 Q 429.59 198.533 429.345 197.962 L 429.345 197.962 L 429.345 197.962 Q 429.099 197.39 428.671 196.962 L 428.671 196.962 L 428.671 196.962 Q 428.242 196.533 427.667 196.284 L 427.667 196.284 L 427.667 196.284 Q 427.093 196.035 426.441 196.035 L 426.441 196.035 L 425.393 196.035 L 425.393 202.334 L 426.441 202.334 L 426.441 202.334 Q 427.093 202.334 427.667 202.089 L 427.667 202.089 L 427.667 202.089 Q 428.242 201.843 428.671 201.415 L 428.671 201.415 L 428.671 201.415 Q 429.099 200.986 429.345 200.412 L 429.345 200.412 L 429.345 200.412 Q 429.59 199.837 429.59 199.185 Z  M 434.959 193.933 L 434.658 197.236 L 433.142 197.236 L 432.842 193.933 L 434.959 193.933 L 434.959 193.933 Z  M 452.083 202.334 L 452.083 204.436 L 444.883 204.436 L 444.883 203.506 L 444.883 203.506 Q 444.18 204.048 443.33 204.356 L 443.33 204.356 L 443.33 204.356 Q 442.481 204.663 441.529 204.663 L 441.529 204.663 L 441.529 204.663 Q 440.781 204.663 440.089 204.469 L 440.089 204.469 L 440.089 204.469 Q 439.397 204.275 438.793 203.92 L 438.793 203.92 L 438.793 203.92 Q 438.189 203.565 437.691 203.067 L 437.691 203.067 L 437.691 203.067 Q 437.193 202.569 436.837 201.964 L 436.837 201.964 L 436.837 201.964 Q 436.482 201.36 436.288 200.668 L 436.288 200.668 L 436.288 200.668 Q 436.094 199.976 436.094 199.229 L 436.094 199.229 L 436.094 199.229 Q 436.094 198.482 436.288 197.786 L 436.288 197.786 L 436.288 197.786 Q 436.482 197.09 436.837 196.489 L 436.837 196.489 L 436.837 196.489 Q 437.193 195.889 437.691 195.391 L 437.691 195.391 L 437.691 195.391 Q 438.189 194.893 438.793 194.541 L 438.793 194.541 L 438.793 194.541 Q 439.397 194.19 440.089 193.996 L 440.089 193.996 L 440.089 193.996 Q 440.781 193.801 441.529 193.801 L 441.529 193.801 L 441.529 193.801 Q 442.481 193.801 443.33 194.109 L 443.33 194.109 L 443.33 194.109 Q 444.18 194.417 444.883 194.973 L 444.883 194.973 L 444.883 193.933 L 452.083 193.933 L 452.083 196.035 L 446.985 196.035 L 446.985 198.137 L 450.435 198.137 L 450.435 200.239 L 446.985 200.239 L 446.985 202.334 L 452.083 202.334 L 452.083 202.334 Z  M 444.868 199.229 L 444.868 199.229 L 444.868 199.229 Q 444.868 198.54 444.605 197.929 L 444.605 197.929 L 444.605 197.929 Q 444.341 197.317 443.891 196.867 L 443.891 196.867 L 443.891 196.867 Q 443.44 196.416 442.829 196.153 L 442.829 196.153 L 442.829 196.153 Q 442.217 195.889 441.529 195.889 L 441.529 195.889 L 441.529 195.889 Q 440.833 195.889 440.225 196.153 L 440.225 196.153 L 440.225 196.153 Q 439.617 196.416 439.163 196.867 L 439.163 196.867 L 439.163 196.867 Q 438.709 197.317 438.445 197.929 L 438.445 197.929 L 438.445 197.929 Q 438.181 198.54 438.181 199.229 L 438.181 199.229 L 438.181 199.229 Q 438.181 199.917 438.445 200.521 L 438.445 200.521 L 438.445 200.521 Q 438.709 201.126 439.163 201.58 L 439.163 201.58 L 439.163 201.58 Q 439.617 202.034 440.225 202.298 L 440.225 202.298 L 440.225 202.298 Q 440.833 202.561 441.529 202.561 L 441.529 202.561 L 441.529 202.561 Q 442.217 202.561 442.829 202.298 L 442.829 202.298 L 442.829 202.298 Q 443.44 202.034 443.891 201.58 L 443.891 201.58 L 443.891 201.58 Q 444.341 201.126 444.605 200.521 L 444.605 200.521 L 444.605 200.521 Q 444.868 199.917 444.868 199.229 Z  M 461.956 193.933 L 461.956 204.436 L 459.707 204.436 L 455.657 197.522 L 455.657 204.436 L 453.555 204.436 L 453.555 193.933 L 455.803 193.933 L 459.854 200.855 L 459.854 193.933 L 461.956 193.933 L 461.956 193.933 Z  M 474.195 199.229 L 474.195 199.229 L 474.195 199.229 Q 474.195 199.976 474 200.668 L 474 200.668 L 474 200.668 Q 473.806 201.36 473.455 201.964 L 473.455 201.964 L 473.455 201.964 Q 473.103 202.569 472.605 203.067 L 472.605 203.067 L 472.605 203.067 Q 472.107 203.565 471.507 203.92 L 471.507 203.92 L 471.507 203.92 Q 470.906 204.275 470.21 204.469 L 470.21 204.469 L 470.21 204.469 Q 469.514 204.663 468.767 204.663 L 468.767 204.663 L 468.767 204.663 Q 468.02 204.663 467.328 204.469 L 467.328 204.469 L 467.328 204.469 Q 466.636 204.275 466.032 203.92 L 466.032 203.92 L 466.032 203.92 Q 465.427 203.565 464.929 203.067 L 464.929 203.067 L 464.929 203.067 Q 464.431 202.569 464.076 201.964 L 464.076 201.964 L 464.076 201.964 Q 463.721 201.36 463.527 200.668 L 463.527 200.668 L 463.527 200.668 Q 463.333 199.976 463.333 199.229 L 463.333 199.229 L 463.333 199.229 Q 463.333 198.482 463.527 197.786 L 463.527 197.786 L 463.527 197.786 Q 463.721 197.09 464.076 196.489 L 464.076 196.489 L 464.076 196.489 Q 464.431 195.889 464.929 195.391 L 464.929 195.391 L 464.929 195.391 Q 465.427 194.893 466.032 194.541 L 466.032 194.541 L 466.032 194.541 Q 466.636 194.19 467.328 193.996 L 467.328 193.996 L 467.328 193.996 Q 468.02 193.801 468.767 193.801 L 468.767 193.801 L 468.767 193.801 Q 469.514 193.801 470.21 193.996 L 470.21 193.996 L 470.21 193.996 Q 470.906 194.19 471.507 194.541 L 471.507 194.541 L 471.507 194.541 Q 472.107 194.893 472.605 195.391 L 472.605 195.391 L 472.605 195.391 Q 473.103 195.889 473.455 196.489 L 473.455 196.489 L 473.455 196.489 Q 473.806 197.09 474 197.786 L 474 197.786 L 474 197.786 Q 474.195 198.482 474.195 199.229 Z  M 472.107 199.229 L 472.107 199.229 L 472.107 199.229 Q 472.107 198.54 471.844 197.929 L 471.844 197.929 L 471.844 197.929 Q 471.58 197.317 471.129 196.867 L 471.129 196.867 L 471.129 196.867 Q 470.679 196.416 470.067 196.153 L 470.067 196.153 L 470.067 196.153 Q 469.456 195.889 468.767 195.889 L 468.767 195.889 L 468.767 195.889 Q 468.072 195.889 467.464 196.153 L 467.464 196.153 L 467.464 196.153 Q 466.856 196.416 466.402 196.867 L 466.402 196.867 L 466.402 196.867 Q 465.948 197.317 465.684 197.929 L 465.684 197.929 L 465.684 197.929 Q 465.42 198.54 465.42 199.229 L 465.42 199.229 L 465.42 199.229 Q 465.42 199.917 465.684 200.521 L 465.684 200.521 L 465.684 200.521 Q 465.948 201.126 466.402 201.58 L 466.402 201.58 L 466.402 201.58 Q 466.856 202.034 467.464 202.298 L 467.464 202.298 L 467.464 202.298 Q 468.072 202.561 468.767 202.561 L 468.767 202.561 L 468.767 202.561 Q 469.456 202.561 470.067 202.298 L 470.067 202.298 L 470.067 202.298 Q 470.679 202.034 471.129 201.58 L 471.129 201.58 L 471.129 201.58 Q 471.58 201.126 471.844 200.521 L 471.844 200.521 L 471.844 200.521 Q 472.107 199.917 472.107 199.229 Z  M 482.925 202.334 L 482.925 204.436 L 475.572 204.436 L 475.572 193.933 L 477.674 193.933 L 477.674 202.334 L 482.925 202.334 L 482.925 202.334 Z  M 493.948 199.229 L 493.948 199.229 L 493.948 199.229 Q 493.948 199.976 493.754 200.668 L 493.754 200.668 L 493.754 200.668 Q 493.56 201.36 493.208 201.964 L 493.208 201.964 L 493.208 201.964 Q 492.857 202.569 492.359 203.067 L 492.359 203.067 L 492.359 203.067 Q 491.861 203.565 491.26 203.92 L 491.26 203.92 L 491.26 203.92 Q 490.659 204.275 489.964 204.469 L 489.964 204.469 L 489.964 204.469 Q 489.268 204.663 488.521 204.663 L 488.521 204.663 L 488.521 204.663 Q 487.774 204.663 487.082 204.469 L 487.082 204.469 L 487.082 204.469 Q 486.389 204.275 485.785 203.92 L 485.785 203.92 L 485.785 203.92 Q 485.181 203.565 484.683 203.067 L 484.683 203.067 L 484.683 203.067 Q 484.185 202.569 483.83 201.964 L 483.83 201.964 L 483.83 201.964 Q 483.474 201.36 483.28 200.668 L 483.28 200.668 L 483.28 200.668 Q 483.086 199.976 483.086 199.229 L 483.086 199.229 L 483.086 199.229 Q 483.086 198.482 483.28 197.786 L 483.28 197.786 L 483.28 197.786 Q 483.474 197.09 483.83 196.489 L 483.83 196.489 L 483.83 196.489 Q 484.185 195.889 484.683 195.391 L 484.683 195.391 L 484.683 195.391 Q 485.181 194.893 485.785 194.541 L 485.785 194.541 L 485.785 194.541 Q 486.389 194.19 487.082 193.996 L 487.082 193.996 L 487.082 193.996 Q 487.774 193.801 488.521 193.801 L 488.521 193.801 L 488.521 193.801 Q 489.268 193.801 489.964 193.996 L 489.964 193.996 L 489.964 193.996 Q 490.659 194.19 491.26 194.541 L 491.26 194.541 L 491.26 194.541 Q 491.861 194.893 492.359 195.391 L 492.359 195.391 L 492.359 195.391 Q 492.857 195.889 493.208 196.489 L 493.208 196.489 L 493.208 196.489 Q 493.56 197.09 493.754 197.786 L 493.754 197.786 L 493.754 197.786 Q 493.948 198.482 493.948 199.229 Z  M 491.861 199.229 L 491.861 199.229 L 491.861 199.229 Q 491.861 198.54 491.597 197.929 L 491.597 197.929 L 491.597 197.929 Q 491.333 197.317 490.883 196.867 L 490.883 196.867 L 490.883 196.867 Q 490.432 196.416 489.821 196.153 L 489.821 196.153 L 489.821 196.153 Q 489.209 195.889 488.521 195.889 L 488.521 195.889 L 488.521 195.889 Q 487.825 195.889 487.217 196.153 L 487.217 196.153 L 487.217 196.153 Q 486.609 196.416 486.155 196.867 L 486.155 196.867 L 486.155 196.867 Q 485.701 197.317 485.437 197.929 L 485.437 197.929 L 485.437 197.929 Q 485.174 198.54 485.174 199.229 L 485.174 199.229 L 485.174 199.229 Q 485.174 199.917 485.437 200.521 L 485.437 200.521 L 485.437 200.521 Q 485.701 201.126 486.155 201.58 L 486.155 201.58 L 486.155 201.58 Q 486.609 202.034 487.217 202.298 L 487.217 202.298 L 487.217 202.298 Q 487.825 202.561 488.521 202.561 L 488.521 202.561 L 488.521 202.561 Q 489.209 202.561 489.821 202.298 L 489.821 202.298 L 489.821 202.298 Q 490.432 202.034 490.883 201.58 L 490.883 201.58 L 490.883 201.58 Q 491.333 201.126 491.597 200.521 L 491.597 200.521 L 491.597 200.521 Q 491.861 199.917 491.861 199.229 Z  M 503.682 199.229 L 503.682 203.374 L 503.682 203.374 Q 502.949 203.997 502.049 204.33 L 502.049 204.33 L 502.049 204.33 Q 501.148 204.663 500.174 204.663 L 500.174 204.663 L 500.174 204.663 Q 499.427 204.663 498.734 204.469 L 498.734 204.469 L 498.734 204.469 Q 498.042 204.275 497.442 203.92 L 497.442 203.92 L 497.442 203.92 Q 496.841 203.565 496.343 203.07 L 496.343 203.07 L 496.343 203.07 Q 495.845 202.576 495.493 201.972 L 495.493 201.972 L 495.493 201.972 Q 495.142 201.367 494.948 200.672 L 494.948 200.672 L 494.948 200.672 Q 494.754 199.976 494.754 199.229 L 494.754 199.229 L 494.754 199.229 Q 494.754 198.482 494.948 197.793 L 494.948 197.793 L 494.948 197.793 Q 495.142 197.105 495.493 196.5 L 495.493 196.5 L 495.493 196.5 Q 495.845 195.896 496.343 195.402 L 496.343 195.402 L 496.343 195.402 Q 496.841 194.907 497.442 194.556 L 497.442 194.556 L 497.442 194.556 Q 498.042 194.204 498.734 194.01 L 498.734 194.01 L 498.734 194.01 Q 499.427 193.816 500.174 193.816 L 500.174 193.816 L 500.174 193.816 Q 501.148 193.816 502.049 194.149 L 502.049 194.149 L 502.049 194.149 Q 502.949 194.483 503.682 195.105 L 503.682 195.105 L 502.583 196.936 L 502.583 196.936 Q 502.107 196.453 501.485 196.178 L 501.485 196.178 L 501.485 196.178 Q 500.862 195.903 500.174 195.903 L 500.174 195.903 L 500.174 195.903 Q 499.485 195.903 498.881 196.167 L 498.881 196.167 L 498.881 196.167 Q 498.277 196.431 497.823 196.881 L 497.823 196.881 L 497.823 196.881 Q 497.368 197.332 497.105 197.936 L 497.105 197.936 L 497.105 197.936 Q 496.841 198.54 496.841 199.229 L 496.841 199.229 L 496.841 199.229 Q 496.841 199.924 497.105 200.532 L 497.105 200.532 L 497.105 200.532 Q 497.368 201.14 497.823 201.594 L 497.823 201.594 L 497.823 201.594 Q 498.277 202.049 498.881 202.312 L 498.881 202.312 L 498.881 202.312 Q 499.485 202.576 500.174 202.576 L 500.174 202.576 L 500.174 202.576 Q 500.569 202.576 500.943 202.481 L 500.943 202.481 L 500.943 202.481 Q 501.316 202.385 501.653 202.217 L 501.653 202.217 L 501.653 199.229 L 503.682 199.229 L 503.682 199.229 Z  M 507.403 193.933 L 507.403 204.436 L 505.301 204.436 L 505.301 193.933 L 507.403 193.933 L 507.403 193.933 Z  M 516.551 202.334 L 516.551 204.436 L 509.351 204.436 L 509.351 193.933 L 516.551 193.933 L 516.551 196.035 L 511.453 196.035 L 511.453 198.137 L 514.903 198.137 L 514.903 200.239 L 511.453 200.239 L 511.453 202.334 L 516.551 202.334 L 516.551 202.334 Z  M 388.567 201.528 L 389.68 203.36 L 389.68 203.36 Q 388.948 203.989 388.04 204.326 L 388.04 204.326 L 388.04 204.326 Q 387.132 204.663 386.157 204.663 L 386.157 204.663 L 386.157 204.663 Q 385.41 204.663 384.718 204.469 L 384.718 204.469 L 384.718 204.469 Q 384.026 204.275 383.422 203.92 L 383.422 203.92 L 383.422 203.92 Q 382.818 203.565 382.32 203.067 L 382.32 203.067 L 382.32 203.067 Q 381.822 202.569 381.466 201.964 L 381.466 201.964 L 381.466 201.964 Q 381.111 201.36 380.917 200.668 L 380.917 200.668 L 380.917 200.668 Q 380.723 199.976 380.723 199.229 L 380.723 199.229 L 380.723 199.229 Q 380.723 198.482 380.917 197.786 L 380.917 197.786 L 380.917 197.786 Q 381.111 197.09 381.466 196.486 L 381.466 196.486 L 381.466 196.486 Q 381.822 195.882 382.32 195.383 L 382.32 195.383 L 382.32 195.383 Q 382.818 194.885 383.422 194.53 L 383.422 194.53 L 383.422 194.53 Q 384.026 194.175 384.718 193.981 L 384.718 193.981 L 384.718 193.981 Q 385.41 193.787 386.157 193.787 L 386.157 193.787 L 386.157 193.787 Q 387.132 193.787 388.04 194.12 L 388.04 194.12 L 388.04 194.12 Q 388.948 194.453 389.68 195.091 L 389.68 195.091 L 388.567 196.922 L 388.567 196.922 Q 388.106 196.424 387.476 196.156 L 387.476 196.156 L 387.476 196.156 Q 386.846 195.889 386.157 195.889 L 386.157 195.889 L 386.157 195.889 Q 385.462 195.889 384.854 196.153 L 384.854 196.153 L 384.854 196.153 Q 384.246 196.416 383.792 196.867 L 383.792 196.867 L 383.792 196.867 Q 383.338 197.317 383.074 197.929 L 383.074 197.929 L 383.074 197.929 Q 382.81 198.54 382.81 199.229 L 382.81 199.229 L 382.81 199.229 Q 382.81 199.917 383.074 200.521 L 383.074 200.521 L 383.074 200.521 Q 383.338 201.126 383.792 201.58 L 383.792 201.58 L 383.792 201.58 Q 384.246 202.034 384.854 202.298 L 384.854 202.298 L 384.854 202.298 Q 385.462 202.561 386.157 202.561 L 386.157 202.561 L 386.157 202.561 Q 386.846 202.561 387.476 202.294 L 387.476 202.294 L 387.476 202.294 Q 388.106 202.027 388.567 201.528 L 388.567 201.528 L 388.567 201.528 Z  M 398.25 202.334 L 398.25 204.436 L 390.896 204.436 L 390.896 193.933 L 392.998 193.933 L 392.998 202.334 L 398.25 202.334 L 398.25 202.334 Z  M 407.266 193.933 L 407.266 200.239 L 407.266 200.239 Q 407.266 201.111 406.936 201.876 L 406.936 201.876 L 406.936 201.876 Q 406.607 202.642 406.035 203.209 L 406.035 203.209 L 406.035 203.209 Q 405.464 203.777 404.699 204.107 L 404.699 204.107 L 404.699 204.107 Q 403.933 204.436 403.062 204.436 L 403.062 204.436 L 403.062 204.436 Q 402.19 204.436 401.425 204.107 L 401.425 204.107 L 401.425 204.107 Q 400.659 203.777 400.092 203.209 L 400.092 203.209 L 400.092 203.209 Q 399.524 202.642 399.195 201.876 L 399.195 201.876 L 399.195 201.876 Q 398.865 201.111 398.865 200.239 L 398.865 200.239 L 398.865 193.933 L 400.96 193.933 L 400.96 200.239 L 400.96 200.239 Q 400.96 200.672 401.125 201.052 L 401.125 201.052 L 401.125 201.052 Q 401.289 201.433 401.575 201.719 L 401.575 201.719 L 401.575 201.719 Q 401.861 202.005 402.245 202.169 L 402.245 202.169 L 402.245 202.169 Q 402.63 202.334 403.062 202.334 L 403.062 202.334 L 403.062 202.334 Q 403.494 202.334 403.878 202.169 L 403.878 202.169 L 403.878 202.169 Q 404.263 202.005 404.549 201.719 L 404.549 201.719 L 404.549 201.719 Q 404.834 201.433 404.999 201.052 L 404.999 201.052 L 404.999 201.052 Q 405.164 200.672 405.164 200.239 L 405.164 200.239 L 405.164 193.933 L 407.266 193.933 L 407.266 193.933 Z  M 417.49 201.287 L 417.49 201.287 L 417.49 201.287 Q 417.49 201.939 417.241 202.51 L 417.241 202.51 L 417.241 202.51 Q 416.992 203.081 416.564 203.51 L 416.564 203.51 L 416.564 203.51 Q 416.135 203.938 415.564 204.187 L 415.564 204.187 L 415.564 204.187 Q 414.993 204.436 414.341 204.436 L 414.341 204.436 L 409.09 204.436 L 409.09 193.933 L 414.341 193.933 L 414.341 193.933 Q 414.993 193.933 415.564 194.182 L 415.564 194.182 L 415.564 194.182 Q 416.135 194.431 416.564 194.86 L 416.564 194.86 L 416.564 194.86 Q 416.992 195.288 417.241 195.86 L 417.241 195.86 L 417.241 195.86 Q 417.49 196.431 417.49 197.083 L 417.49 197.083 L 417.49 197.083 Q 417.49 197.376 417.41 197.683 L 417.41 197.683 L 417.41 197.683 Q 417.329 197.991 417.183 198.277 L 417.183 198.277 L 417.183 198.277 Q 417.036 198.562 416.831 198.797 L 416.831 198.797 L 416.831 198.797 Q 416.626 199.031 416.377 199.185 L 416.377 199.185 L 416.377 199.185 Q 416.634 199.324 416.839 199.562 L 416.839 199.562 L 416.839 199.562 Q 417.044 199.8 417.19 200.086 L 417.19 200.086 L 417.19 200.086 Q 417.337 200.371 417.414 200.683 L 417.414 200.683 L 417.414 200.683 Q 417.49 200.994 417.49 201.287 Z  M 411.192 200.239 L 411.192 202.334 L 414.341 202.334 L 414.341 202.334 Q 414.561 202.334 414.751 202.254 L 414.751 202.254 L 414.751 202.254 Q 414.942 202.173 415.084 202.03 L 415.084 202.03 L 415.084 202.03 Q 415.227 201.887 415.308 201.697 L 415.308 201.697 L 415.308 201.697 Q 415.388 201.507 415.388 201.287 L 415.388 201.287 L 415.388 201.287 Q 415.388 201.067 415.308 200.877 L 415.308 200.877 L 415.308 200.877 Q 415.227 200.686 415.084 200.543 L 415.084 200.543 L 415.084 200.543 Q 414.942 200.401 414.751 200.32 L 414.751 200.32 L 414.751 200.32 Q 414.561 200.239 414.341 200.239 L 414.341 200.239 L 411.192 200.239 L 411.192 200.239 Z  M 411.192 196.035 L 411.192 198.137 L 414.341 198.137 L 414.341 198.137 Q 414.561 198.137 414.751 198.057 L 414.751 198.057 L 414.751 198.057 Q 414.942 197.976 415.084 197.833 L 415.084 197.833 L 415.084 197.833 Q 415.227 197.691 415.308 197.497 L 415.308 197.497 L 415.308 197.497 Q 415.388 197.302 415.388 197.083 L 415.388 197.083 L 415.388 197.083 Q 415.388 196.863 415.308 196.673 L 415.308 196.673 L 415.308 196.673 Q 415.227 196.482 415.084 196.339 L 415.084 196.339 L 415.084 196.339 Q 414.942 196.196 414.751 196.116 L 414.751 196.116 L 414.751 196.116 Q 414.561 196.035 414.341 196.035 L 414.341 196.035 L 411.192 196.035 L 411.192 196.035 Z  M 367.063 201.287 L 367.063 201.287 L 367.063 201.287 Q 367.063 201.939 366.814 202.51 L 366.814 202.51 L 366.814 202.51 Q 366.565 203.081 366.137 203.51 L 366.137 203.51 L 366.137 203.51 Q 365.708 203.938 365.137 204.187 L 365.137 204.187 L 365.137 204.187 Q 364.566 204.436 363.914 204.436 L 363.914 204.436 L 358.662 204.436 L 358.662 193.933 L 363.914 193.933 L 363.914 193.933 Q 364.566 193.933 365.137 194.182 L 365.137 194.182 L 365.137 194.182 Q 365.708 194.431 366.137 194.86 L 366.137 194.86 L 366.137 194.86 Q 366.565 195.288 366.814 195.86 L 366.814 195.86 L 366.814 195.86 Q 367.063 196.431 367.063 197.083 L 367.063 197.083 L 367.063 197.083 Q 367.063 197.376 366.983 197.683 L 366.983 197.683 L 366.983 197.683 Q 366.902 197.991 366.756 198.277 L 366.756 198.277 L 366.756 198.277 Q 366.609 198.562 366.404 198.797 L 366.404 198.797 L 366.404 198.797 Q 366.199 199.031 365.95 199.185 L 365.95 199.185 L 365.95 199.185 Q 366.206 199.324 366.411 199.562 L 366.411 199.562 L 366.411 199.562 Q 366.616 199.8 366.763 200.086 L 366.763 200.086 L 366.763 200.086 Q 366.909 200.371 366.986 200.683 L 366.986 200.683 L 366.986 200.683 Q 367.063 200.994 367.063 201.287 Z  M 360.764 200.239 L 360.764 202.334 L 363.914 202.334 L 363.914 202.334 Q 364.134 202.334 364.324 202.254 L 364.324 202.254 L 364.324 202.254 Q 364.514 202.173 364.657 202.03 L 364.657 202.03 L 364.657 202.03 Q 364.8 201.887 364.881 201.697 L 364.881 201.697 L 364.881 201.697 Q 364.961 201.507 364.961 201.287 L 364.961 201.287 L 364.961 201.287 Q 364.961 201.067 364.881 200.877 L 364.881 200.877 L 364.881 200.877 Q 364.8 200.686 364.657 200.543 L 364.657 200.543 L 364.657 200.543 Q 364.514 200.401 364.324 200.32 L 364.324 200.32 L 364.324 200.32 Q 364.134 200.239 363.914 200.239 L 363.914 200.239 L 360.764 200.239 L 360.764 200.239 Z  M 360.764 196.035 L 360.764 198.137 L 363.914 198.137 L 363.914 198.137 Q 364.134 198.137 364.324 198.057 L 364.324 198.057 L 364.324 198.057 Q 364.514 197.976 364.657 197.833 L 364.657 197.833 L 364.657 197.833 Q 364.8 197.691 364.881 197.497 L 364.881 197.497 L 364.881 197.497 Q 364.961 197.302 364.961 197.083 L 364.961 197.083 L 364.961 197.083 Q 364.961 196.863 364.881 196.673 L 364.881 196.673 L 364.881 196.673 Q 364.8 196.482 364.657 196.339 L 364.657 196.339 L 364.657 196.339 Q 364.514 196.196 364.324 196.116 L 364.324 196.116 L 364.324 196.116 Q 364.134 196.035 363.914 196.035 L 363.914 196.035 L 360.764 196.035 L 360.764 196.035 Z  M 371.355 207.439 L 370.33 207.424 L 370.33 205.41 L 371.443 205.425 L 371.443 205.425 Q 371.736 205.425 372.007 205.33 L 372.007 205.33 L 372.007 205.33 Q 372.278 205.235 372.509 205.066 L 372.509 205.066 L 372.509 205.066 Q 372.74 204.898 372.915 204.667 L 372.915 204.667 L 372.915 204.667 Q 373.091 204.436 373.201 204.165 L 373.201 204.165 L 373.201 204.165 Q 372.871 204.304 372.531 204.444 L 372.531 204.444 L 372.531 204.444 Q 372.19 204.583 371.846 204.583 L 371.846 204.583 L 371.846 204.583 Q 371.121 204.583 370.484 204.326 L 370.484 204.326 L 370.484 204.326 Q 369.846 204.07 369.367 203.598 L 369.367 203.598 L 369.367 203.598 Q 368.887 203.125 368.612 202.448 L 368.612 202.448 L 368.612 202.448 Q 368.338 201.77 368.338 200.928 L 368.338 200.928 L 368.338 196.592 L 370.33 196.592 L 370.33 200.928 L 370.33 200.928 Q 370.33 201.345 370.451 201.657 L 370.451 201.657 L 370.451 201.657 Q 370.572 201.968 370.777 202.177 L 370.777 202.177 L 370.777 202.177 Q 370.982 202.385 371.256 202.488 L 371.256 202.488 L 371.256 202.488 Q 371.531 202.591 371.846 202.591 L 371.846 202.591 L 371.846 202.591 Q 372.154 202.591 372.428 202.448 L 372.428 202.448 L 372.428 202.448 Q 372.703 202.305 372.908 202.07 L 372.908 202.07 L 372.908 202.07 Q 373.113 201.836 373.23 201.539 L 373.23 201.539 L 373.23 201.539 Q 373.347 201.243 373.347 200.928 L 373.347 200.928 L 373.347 196.592 L 375.362 196.592 L 375.362 203.447 L 375.362 203.447 Q 375.354 204.275 375.039 205 L 375.039 205 L 375.039 205 Q 374.724 205.725 374.179 206.267 L 374.179 206.267 L 374.179 206.267 Q 373.633 206.809 372.908 207.124 L 372.908 207.124 L 372.908 207.124 Q 372.183 207.439 371.355 207.439 L 371.355 207.439 L 371.355 207.439 Z " fill="rgb(255,255,255)"/><path d=" M 79.059 149.722 L 79.059 149.722 L 79.059 149.722 Q 79.059 151.173 78.686 152.513 L 78.686 152.513 L 78.686 152.513 Q 78.312 153.853 77.624 155.018 L 77.624 155.018 L 77.624 155.018 Q 76.935 156.182 75.983 157.142 L 75.983 157.142 L 75.983 157.142 Q 75.031 158.101 73.859 158.79 L 73.859 158.79 L 73.859 158.79 Q 72.687 159.478 71.347 159.852 L 71.347 159.852 L 71.347 159.852 Q 70.007 160.225 68.557 160.225 L 68.557 160.225 L 62.228 160.225 L 62.228 139.219 L 68.557 139.219 L 68.557 139.219 Q 70.007 139.219 71.347 139.593 L 71.347 139.593 L 71.347 139.593 Q 72.687 139.967 73.859 140.655 L 73.859 140.655 L 73.859 140.655 Q 75.031 141.343 75.983 142.303 L 75.983 142.303 L 75.983 142.303 Q 76.935 143.262 77.624 144.427 L 77.624 144.427 L 77.624 144.427 Q 78.312 145.592 78.686 146.932 L 78.686 146.932 L 78.686 146.932 Q 79.059 148.272 79.059 149.722 Z  M 74.855 149.722 L 74.855 149.722 L 74.855 149.722 Q 74.855 148.419 74.365 147.276 L 74.365 147.276 L 74.365 147.276 Q 73.874 146.134 73.017 145.277 L 73.017 145.277 L 73.017 145.277 Q 72.16 144.42 71.01 143.922 L 71.01 143.922 L 71.01 143.922 Q 69.86 143.424 68.557 143.424 L 68.557 143.424 L 66.462 143.424 L 66.462 156.021 L 68.557 156.021 L 68.557 156.021 Q 69.86 156.021 71.01 155.53 L 71.01 155.53 L 71.01 155.53 Q 72.16 155.04 73.017 154.183 L 73.017 154.183 L 73.017 154.183 Q 73.874 153.326 74.365 152.176 L 74.365 152.176 L 74.365 152.176 Q 74.855 151.026 74.855 149.722 Z  M 95.158 147.349 L 87.658 156.387 L 87.658 156.387 Q 87.892 156.461 88.127 156.483 L 88.127 156.483 L 88.127 156.483 Q 88.361 156.505 88.596 156.505 L 88.596 156.505 L 88.596 156.505 Q 89.182 156.505 89.724 156.343 L 89.724 156.343 L 89.724 156.343 Q 90.266 156.182 90.742 155.882 L 90.742 155.882 L 90.742 155.882 Q 91.218 155.582 91.591 155.15 L 91.591 155.15 L 91.591 155.15 Q 91.965 154.717 92.199 154.19 L 92.199 154.19 L 95.129 157.134 L 95.129 157.134 Q 94.572 157.926 93.847 158.555 L 93.847 158.555 L 93.847 158.555 Q 93.122 159.185 92.28 159.625 L 92.28 159.625 L 92.28 159.625 Q 91.437 160.064 90.507 160.291 L 90.507 160.291 L 90.507 160.291 Q 89.577 160.518 88.596 160.518 L 88.596 160.518 L 88.596 160.518 Q 86.94 160.518 85.483 159.903 L 85.483 159.903 L 85.483 159.903 Q 84.025 159.288 82.934 158.189 L 82.934 158.189 L 82.934 158.189 Q 81.843 157.091 81.213 155.574 L 81.213 155.574 L 81.213 155.574 Q 80.583 154.058 80.583 152.242 L 80.583 152.242 L 80.583 152.242 Q 80.583 150.382 81.213 148.843 L 81.213 148.843 L 81.213 148.843 Q 81.843 147.305 82.934 146.221 L 82.934 146.221 L 82.934 146.221 Q 84.025 145.137 85.483 144.537 L 85.483 144.537 L 85.483 144.537 Q 86.94 143.936 88.596 143.936 L 88.596 143.936 L 88.596 143.936 Q 89.577 143.936 90.515 144.171 L 90.515 144.171 L 90.515 144.171 Q 91.452 144.405 92.294 144.844 L 92.294 144.844 L 92.294 144.844 Q 93.137 145.284 93.869 145.921 L 93.869 145.921 L 93.869 145.921 Q 94.601 146.558 95.158 147.349 L 95.158 147.349 L 95.158 147.349 Z  M 85.051 154.322 L 89.709 148.14 L 89.709 148.14 Q 89.431 148.038 89.16 148.009 L 89.16 148.009 L 89.16 148.009 Q 88.889 147.979 88.596 147.979 L 88.596 147.979 L 88.596 147.979 Q 87.775 147.979 87.05 148.28 L 87.05 148.28 L 87.05 148.28 Q 86.325 148.58 85.79 149.136 L 85.79 149.136 L 85.79 149.136 Q 85.256 149.693 84.948 150.477 L 84.948 150.477 L 84.948 150.477 Q 84.641 151.26 84.641 152.242 L 84.641 152.242 L 84.641 152.242 Q 84.641 152.462 84.663 152.74 L 84.663 152.74 L 84.663 152.74 Q 84.684 153.018 84.736 153.304 L 84.736 153.304 L 84.736 153.304 Q 84.787 153.59 84.86 153.853 L 84.86 153.853 L 84.86 153.853 Q 84.934 154.117 85.051 154.322 L 85.051 154.322 L 85.051 154.322 Z " fill="rgb(255,114,19)"/><path d=" M 141.294 151.739 L 141.294 160.568 L 107.148 160.568 L 125.974 125.284 L 107.148 125.284 L 107.148 116.455 L 141.294 116.455 L 122.529 151.739 L 141.294 151.739 L 141.294 151.739 Z  M 166.242 146.756 L 166.242 160.568 L 157.444 160.568 L 157.444 146.756 L 157.444 146.756 Q 154.521 146.017 152.076 144.387 L 152.076 144.387 L 152.076 144.387 Q 149.63 142.756 147.877 140.496 L 147.877 140.496 L 147.877 140.496 Q 146.123 138.235 145.154 135.481 L 145.154 135.481 L 145.154 135.481 Q 144.185 132.728 144.185 129.683 L 144.185 129.683 L 144.185 116.455 L 153.014 116.455 L 153.014 129.683 L 153.014 129.683 Q 153.014 131.498 153.706 133.113 L 153.706 133.113 L 153.706 133.113 Q 154.398 134.728 155.598 135.927 L 155.598 135.927 L 155.598 135.927 Q 156.798 137.127 158.413 137.819 L 158.413 137.819 L 158.413 137.819 Q 160.028 138.511 161.843 138.511 L 161.843 138.511 L 161.843 138.511 Q 163.658 138.511 165.273 137.819 L 165.273 137.819 L 165.273 137.819 Q 166.888 137.127 168.087 135.927 L 168.087 135.927 L 168.087 135.927 Q 169.287 134.728 169.979 133.113 L 169.979 133.113 L 169.979 133.113 Q 170.671 131.498 170.671 129.683 L 170.671 129.683 L 170.671 116.455 L 179.469 116.455 L 179.469 129.683 L 179.469 129.683 Q 179.469 132.728 178.5 135.481 L 178.5 135.481 L 178.5 135.481 Q 177.531 138.235 175.778 140.496 L 175.778 140.496 L 175.778 140.496 Q 174.024 142.756 171.594 144.387 L 171.594 144.387 L 171.594 144.387 Q 169.164 146.017 166.242 146.756 L 166.242 146.756 L 166.242 146.756 Z  M 203.986 125.284 L 203.986 160.568 L 195.188 160.568 L 195.188 125.284 L 181.93 125.284 L 181.93 116.455 L 217.214 116.455 L 217.214 125.284 L 203.986 125.284 L 203.986 125.284 Z  M 230.718 142.941 L 230.718 160.568 L 221.89 160.568 L 221.89 116.455 L 230.718 116.455 L 230.718 134.112 L 248.345 134.112 L 248.345 116.455 L 257.173 116.455 L 257.173 160.568 L 248.345 160.568 L 248.345 142.941 L 230.718 142.941 L 230.718 142.941 Z  M 308.576 138.696 L 308.576 138.696 L 308.576 138.696 Q 308.576 141.834 307.761 144.741 L 307.761 144.741 L 307.761 144.741 Q 306.946 147.648 305.469 150.185 L 305.469 150.185 L 305.469 150.185 Q 303.993 152.723 301.901 154.815 L 301.901 154.815 L 301.901 154.815 Q 299.809 156.907 297.286 158.399 L 297.286 158.399 L 297.286 158.399 Q 294.764 159.891 291.842 160.706 L 291.842 160.706 L 291.842 160.706 Q 288.919 161.521 285.782 161.521 L 285.782 161.521 L 285.782 161.521 Q 282.644 161.521 279.737 160.706 L 279.737 160.706 L 279.737 160.706 Q 276.83 159.891 274.292 158.399 L 274.292 158.399 L 274.292 158.399 Q 271.754 156.907 269.662 154.815 L 269.662 154.815 L 269.662 154.815 Q 267.571 152.723 266.079 150.185 L 266.079 150.185 L 266.079 150.185 Q 264.587 147.648 263.772 144.741 L 263.772 144.741 L 263.772 144.741 Q 262.956 141.834 262.956 138.696 L 262.956 138.696 L 262.956 138.696 Q 262.956 135.558 263.772 132.636 L 263.772 132.636 L 263.772 132.636 Q 264.587 129.714 266.079 127.191 L 266.079 127.191 L 266.079 127.191 Q 267.571 124.669 269.662 122.577 L 269.662 122.577 L 269.662 122.577 Q 271.754 120.485 274.292 119.008 L 274.292 119.008 L 274.292 119.008 Q 276.83 117.532 279.737 116.717 L 279.737 116.717 L 279.737 116.717 Q 282.644 115.902 285.782 115.902 L 285.782 115.902 L 285.782 115.902 Q 288.919 115.902 291.842 116.717 L 291.842 116.717 L 291.842 116.717 Q 294.764 117.532 297.286 119.008 L 297.286 119.008 L 297.286 119.008 Q 299.809 120.485 301.901 122.577 L 301.901 122.577 L 301.901 122.577 Q 303.993 124.669 305.469 127.191 L 305.469 127.191 L 305.469 127.191 Q 306.946 129.714 307.761 132.636 L 307.761 132.636 L 307.761 132.636 Q 308.576 135.558 308.576 138.696 Z  M 299.809 138.696 L 299.809 138.696 L 299.809 138.696 Q 299.809 135.804 298.702 133.236 L 298.702 133.236 L 298.702 133.236 Q 297.594 130.667 295.702 128.775 L 295.702 128.775 L 295.702 128.775 Q 293.81 126.883 291.242 125.776 L 291.242 125.776 L 291.242 125.776 Q 288.673 124.669 285.782 124.669 L 285.782 124.669 L 285.782 124.669 Q 282.859 124.669 280.306 125.776 L 280.306 125.776 L 280.306 125.776 Q 277.753 126.883 275.846 128.775 L 275.846 128.775 L 275.846 128.775 Q 273.938 130.667 272.831 133.236 L 272.831 133.236 L 272.831 133.236 Q 271.724 135.804 271.724 138.696 L 271.724 138.696 L 271.724 138.696 Q 271.724 141.588 272.831 144.125 L 272.831 144.125 L 272.831 144.125 Q 273.938 146.663 275.846 148.57 L 275.846 148.57 L 275.846 148.57 Q 277.753 150.478 280.306 151.585 L 280.306 151.585 L 280.306 151.585 Q 282.859 152.693 285.782 152.693 L 285.782 152.693 L 285.782 152.693 Q 288.673 152.693 291.242 151.585 L 291.242 151.585 L 291.242 151.585 Q 293.81 150.478 295.702 148.57 L 295.702 148.57 L 295.702 148.57 Q 297.594 146.663 298.702 144.125 L 298.702 144.125 L 298.702 144.125 Q 299.809 141.588 299.809 138.696 Z  M 345.244 151.739 L 345.244 160.568 L 314.359 160.568 L 314.359 116.455 L 323.188 116.455 L 323.188 151.739 L 345.244 151.739 L 345.244 151.739 Z  M 391.54 138.696 L 391.54 138.696 L 391.54 138.696 Q 391.54 141.834 390.725 144.741 L 390.725 144.741 L 390.725 144.741 Q 389.91 147.648 388.433 150.185 L 388.433 150.185 L 388.433 150.185 Q 386.957 152.723 384.865 154.815 L 384.865 154.815 L 384.865 154.815 Q 382.773 156.907 380.251 158.399 L 380.251 158.399 L 380.251 158.399 Q 377.728 159.891 374.806 160.706 L 374.806 160.706 L 374.806 160.706 Q 371.884 161.521 368.746 161.521 L 368.746 161.521 L 368.746 161.521 Q 365.608 161.521 362.701 160.706 L 362.701 160.706 L 362.701 160.706 Q 359.794 159.891 357.256 158.399 L 357.256 158.399 L 357.256 158.399 Q 354.719 156.907 352.627 154.815 L 352.627 154.815 L 352.627 154.815 Q 350.535 152.723 349.043 150.185 L 349.043 150.185 L 349.043 150.185 Q 347.551 147.648 346.736 144.741 L 346.736 144.741 L 346.736 144.741 Q 345.921 141.834 345.921 138.696 L 345.921 138.696 L 345.921 138.696 Q 345.921 135.558 346.736 132.636 L 346.736 132.636 L 346.736 132.636 Q 347.551 129.714 349.043 127.191 L 349.043 127.191 L 349.043 127.191 Q 350.535 124.669 352.627 122.577 L 352.627 122.577 L 352.627 122.577 Q 354.719 120.485 357.256 119.008 L 357.256 119.008 L 357.256 119.008 Q 359.794 117.532 362.701 116.717 L 362.701 116.717 L 362.701 116.717 Q 365.608 115.902 368.746 115.902 L 368.746 115.902 L 368.746 115.902 Q 371.884 115.902 374.806 116.717 L 374.806 116.717 L 374.806 116.717 Q 377.728 117.532 380.251 119.008 L 380.251 119.008 L 380.251 119.008 Q 382.773 120.485 384.865 122.577 L 384.865 122.577 L 384.865 122.577 Q 386.957 124.669 388.433 127.191 L 388.433 127.191 L 388.433 127.191 Q 389.91 129.714 390.725 132.636 L 390.725 132.636 L 390.725 132.636 Q 391.54 135.558 391.54 138.696 Z  M 382.773 138.696 L 382.773 138.696 L 382.773 138.696 Q 382.773 135.804 381.666 133.236 L 381.666 133.236 L 381.666 133.236 Q 380.558 130.667 378.667 128.775 L 378.667 128.775 L 378.667 128.775 Q 376.775 126.883 374.206 125.776 L 374.206 125.776 L 374.206 125.776 Q 371.638 124.669 368.746 124.669 L 368.746 124.669 L 368.746 124.669 Q 365.824 124.669 363.27 125.776 L 363.27 125.776 L 363.27 125.776 Q 360.717 126.883 358.81 128.775 L 358.81 128.775 L 358.81 128.775 Q 356.903 130.667 355.795 133.236 L 355.795 133.236 L 355.795 133.236 Q 354.688 135.804 354.688 138.696 L 354.688 138.696 L 354.688 138.696 Q 354.688 141.588 355.795 144.125 L 355.795 144.125 L 355.795 144.125 Q 356.903 146.663 358.81 148.57 L 358.81 148.57 L 358.81 148.57 Q 360.717 150.478 363.27 151.585 L 363.27 151.585 L 363.27 151.585 Q 365.824 152.693 368.746 152.693 L 368.746 152.693 L 368.746 152.693 Q 371.638 152.693 374.206 151.585 L 374.206 151.585 L 374.206 151.585 Q 376.775 150.478 378.667 148.57 L 378.667 148.57 L 378.667 148.57 Q 380.558 146.663 381.666 144.125 L 381.666 144.125 L 381.666 144.125 Q 382.773 141.588 382.773 138.696 Z  M 432.423 138.696 L 432.423 156.107 L 432.423 156.107 Q 429.347 158.722 425.563 160.121 L 425.563 160.121 L 425.563 160.121 Q 421.779 161.521 417.688 161.521 L 417.688 161.521 L 417.688 161.521 Q 414.55 161.521 411.643 160.706 L 411.643 160.706 L 411.643 160.706 Q 408.736 159.891 406.214 158.399 L 406.214 158.399 L 406.214 158.399 Q 403.691 156.907 401.599 154.83 L 401.599 154.83 L 401.599 154.83 Q 399.508 152.754 398.031 150.216 L 398.031 150.216 L 398.031 150.216 Q 396.555 147.678 395.739 144.756 L 395.739 144.756 L 395.739 144.756 Q 394.924 141.834 394.924 138.696 L 394.924 138.696 L 394.924 138.696 Q 394.924 135.558 395.739 132.667 L 395.739 132.667 L 395.739 132.667 Q 396.555 129.775 398.031 127.237 L 398.031 127.237 L 398.031 127.237 Q 399.508 124.699 401.599 122.623 L 401.599 122.623 L 401.599 122.623 Q 403.691 120.547 406.214 119.07 L 406.214 119.07 L 406.214 119.07 Q 408.736 117.593 411.643 116.778 L 411.643 116.778 L 411.643 116.778 Q 414.55 115.963 417.688 115.963 L 417.688 115.963 L 417.688 115.963 Q 421.779 115.963 425.563 117.363 L 425.563 117.363 L 425.563 117.363 Q 429.347 118.762 432.423 121.377 L 432.423 121.377 L 427.808 129.068 L 427.808 129.068 Q 425.809 127.037 423.194 125.884 L 423.194 125.884 L 423.194 125.884 Q 420.579 124.73 417.688 124.73 L 417.688 124.73 L 417.688 124.73 Q 414.796 124.73 412.258 125.838 L 412.258 125.838 L 412.258 125.838 Q 409.721 126.945 407.813 128.837 L 407.813 128.837 L 407.813 128.837 Q 405.906 130.729 404.799 133.267 L 404.799 133.267 L 404.799 133.267 Q 403.691 135.804 403.691 138.696 L 403.691 138.696 L 403.691 138.696 Q 403.691 141.618 404.799 144.172 L 404.799 144.172 L 404.799 144.172 Q 405.906 146.725 407.813 148.632 L 407.813 148.632 L 407.813 148.632 Q 409.721 150.539 412.258 151.647 L 412.258 151.647 L 412.258 151.647 Q 414.796 152.754 417.688 152.754 L 417.688 152.754 L 417.688 152.754 Q 419.349 152.754 420.918 152.354 L 420.918 152.354 L 420.918 152.354 Q 422.487 151.954 423.902 151.247 L 423.902 151.247 L 423.902 138.696 L 432.423 138.696 L 432.423 138.696 Z  M 448.05 116.455 L 448.05 160.568 L 439.221 160.568 L 439.221 116.455 L 448.05 116.455 L 448.05 116.455 Z  M 486.471 151.739 L 486.471 160.568 L 456.232 160.568 L 456.232 116.455 L 486.471 116.455 L 486.471 125.284 L 465.061 125.284 L 465.061 134.112 L 479.55 134.112 L 479.55 142.941 L 465.061 142.941 L 465.061 151.739 L 486.471 151.739 L 486.471 151.739 Z " fill="rgb(0,0,0)"/><path d=" M 82.102 64.446 L 82.102 91.329 L 75.399 91.329 L 75.399 64.446 L 65.297 64.446 L 65.297 57.72 L 92.18 57.72 L 92.18 64.446 L 82.102 64.446 L 82.102 64.446 Z  M 101.063 77.9 L 114.516 77.9 L 114.516 71.173 L 114.516 71.173 Q 114.516 69.79 113.989 68.56 L 113.989 68.56 L 113.989 68.56 Q 113.461 67.329 112.547 66.415 L 112.547 66.415 L 112.547 66.415 Q 111.633 65.501 110.403 64.974 L 110.403 64.974 L 110.403 64.974 Q 109.172 64.446 107.789 64.446 L 107.789 64.446 L 107.789 64.446 Q 106.407 64.446 105.176 64.974 L 105.176 64.974 L 105.176 64.974 Q 103.946 65.501 103.032 66.415 L 103.032 66.415 L 103.032 66.415 Q 102.118 67.329 101.59 68.56 L 101.59 68.56 L 101.59 68.56 Q 101.063 69.79 101.063 71.173 L 101.063 71.173 L 101.063 77.9 L 101.063 77.9 Z  M 121.243 71.173 L 121.243 91.329 L 114.516 91.329 L 114.516 84.603 L 101.063 84.603 L 101.063 91.329 L 94.36 91.329 L 94.36 71.173 L 94.36 71.173 Q 94.36 68.384 95.414 65.935 L 95.414 65.935 L 95.414 65.935 Q 96.469 63.485 98.286 61.657 L 98.286 61.657 L 98.286 61.657 Q 100.102 59.829 102.551 58.775 L 102.551 58.775 L 102.551 58.775 Q 105 57.72 107.789 57.72 L 107.789 57.72 L 107.789 57.72 Q 110.578 57.72 113.028 58.775 L 113.028 58.775 L 113.028 58.775 Q 115.477 59.829 117.305 61.657 L 117.305 61.657 L 117.305 61.657 Q 119.133 63.485 120.188 65.935 L 120.188 65.935 L 120.188 65.935 Q 121.243 68.384 121.243 71.173 L 121.243 71.173 L 121.243 71.173 Z " fill="rgb(0,0,0)"/><path d=" M 186.172 84.603 L 186.172 91.329 L 163.133 91.329 L 163.133 57.72 L 186.172 57.72 L 186.172 64.446 L 169.86 64.446 L 169.86 71.173 L 180.899 71.173 L 180.899 77.9 L 169.86 77.9 L 169.86 84.603 L 186.172 84.603 L 186.172 84.603 Z  M 204.336 64.446 L 197.61 64.446 L 197.61 77.9 L 204.336 77.9 L 204.336 77.9 Q 205.719 77.9 206.938 77.372 L 206.938 77.372 L 206.938 77.372 Q 208.157 76.845 209.071 75.931 L 209.071 75.931 L 209.071 75.931 Q 209.985 75.017 210.512 73.786 L 210.512 73.786 L 210.512 73.786 Q 211.04 72.556 211.04 71.173 L 211.04 71.173 L 211.04 71.173 Q 211.04 69.79 210.512 68.56 L 210.512 68.56 L 210.512 68.56 Q 209.985 67.329 209.071 66.415 L 209.071 66.415 L 209.071 66.415 Q 208.157 65.501 206.938 64.974 L 206.938 64.974 L 206.938 64.974 Q 205.719 64.446 204.336 64.446 L 204.336 64.446 L 204.336 64.446 Z  M 197.61 84.603 L 197.61 91.329 L 190.883 91.329 L 190.883 57.72 L 204.336 57.72 L 204.336 57.72 Q 206.188 57.72 207.899 58.2 L 207.899 58.2 L 207.899 58.2 Q 209.61 58.681 211.098 59.56 L 211.098 59.56 L 211.098 59.56 Q 212.586 60.439 213.817 61.669 L 213.817 61.669 L 213.817 61.669 Q 215.047 62.9 215.926 64.4 L 215.926 64.4 L 215.926 64.4 Q 216.805 65.9 217.286 67.61 L 217.286 67.61 L 217.286 67.61 Q 217.766 69.321 217.766 71.173 L 217.766 71.173 L 217.766 71.173 Q 217.766 72.907 217.333 74.548 L 217.333 74.548 L 217.333 74.548 Q 216.899 76.189 216.09 77.665 L 216.09 77.665 L 216.09 77.665 Q 215.282 79.142 214.11 80.384 L 214.11 80.384 L 214.11 80.384 Q 212.938 81.626 211.485 82.54 L 211.485 82.54 L 215.211 91.329 L 208.063 91.329 L 205.133 84.556 L 197.61 84.603 L 197.61 84.603 Z  M 249.055 57.72 L 249.055 91.329 L 241.86 91.329 L 228.899 69.204 L 228.899 91.329 L 222.172 91.329 L 222.172 57.72 L 229.368 57.72 L 242.329 79.868 L 242.329 57.72 L 249.055 57.72 L 249.055 57.72 Z  M 278.329 84.603 L 278.329 91.329 L 255.29 91.329 L 255.29 57.72 L 278.329 57.72 L 278.329 64.446 L 262.016 64.446 L 262.016 71.173 L 273.055 71.173 L 273.055 77.9 L 262.016 77.9 L 262.016 84.603 L 278.329 84.603 L 278.329 84.603 Z " fill="rgb(0,0,0)"/><path d=" M 46.798 86.822 L 46.798 91.026 L 32.091 91.026 L 32.091 70.021 L 36.295 70.021 L 36.295 86.822 L 46.798 86.822 L 46.798 86.822 Z  M 63.351 75.367 L 63.351 91.026 L 62.384 91.026 L 60.831 88.873 L 60.831 88.873 Q 60.26 89.386 59.623 89.833 L 59.623 89.833 L 59.623 89.833 Q 58.986 90.279 58.282 90.609 L 58.282 90.609 L 58.282 90.609 Q 57.579 90.938 56.84 91.129 L 56.84 91.129 L 56.84 91.129 Q 56.1 91.319 55.338 91.319 L 55.338 91.319 L 55.338 91.319 Q 53.683 91.319 52.225 90.763 L 52.225 90.763 L 52.225 90.763 Q 50.768 90.206 49.677 89.144 L 49.677 89.144 L 49.677 89.144 Q 48.585 88.082 47.955 86.544 L 47.955 86.544 L 47.955 86.544 Q 47.325 85.006 47.325 83.043 L 47.325 83.043 L 47.325 83.043 Q 47.325 81.212 47.955 79.681 L 47.955 79.681 L 47.955 79.681 Q 48.585 78.15 49.677 77.052 L 49.677 77.052 L 49.677 77.052 Q 50.768 75.953 52.225 75.345 L 52.225 75.345 L 52.225 75.345 Q 53.683 74.737 55.338 74.737 L 55.338 74.737 L 55.338 74.737 Q 56.1 74.737 56.847 74.928 L 56.847 74.928 L 56.847 74.928 Q 57.594 75.118 58.297 75.455 L 58.297 75.455 L 58.297 75.455 Q 59 75.792 59.637 76.246 L 59.637 76.246 L 59.637 76.246 Q 60.275 76.7 60.831 77.228 L 60.831 77.228 L 62.384 75.367 L 63.351 75.367 L 63.351 75.367 Z  M 59.323 83.043 L 59.323 83.043 L 59.323 83.043 Q 59.323 82.223 59.008 81.454 L 59.008 81.454 L 59.008 81.454 Q 58.693 80.685 58.151 80.091 L 58.151 80.091 L 58.151 80.091 Q 57.609 79.498 56.884 79.139 L 56.884 79.139 L 56.884 79.139 Q 56.158 78.78 55.338 78.78 L 55.338 78.78 L 55.338 78.78 Q 54.518 78.78 53.793 79.059 L 53.793 79.059 L 53.793 79.059 Q 53.068 79.337 52.533 79.879 L 52.533 79.879 L 52.533 79.879 Q 51.998 80.421 51.691 81.219 L 51.691 81.219 L 51.691 81.219 Q 51.383 82.018 51.383 83.043 L 51.383 83.043 L 51.383 83.043 Q 51.383 84.068 51.691 84.867 L 51.691 84.867 L 51.691 84.867 Q 51.998 85.665 52.533 86.207 L 52.533 86.207 L 52.533 86.207 Q 53.068 86.749 53.793 87.027 L 53.793 87.027 L 53.793 87.027 Q 54.518 87.306 55.338 87.306 L 55.338 87.306 L 55.338 87.306 Q 56.158 87.306 56.884 86.947 L 56.884 86.947 L 56.884 86.947 Q 57.609 86.588 58.151 85.995 L 58.151 85.995 L 58.151 85.995 Q 58.693 85.401 59.008 84.632 L 59.008 84.632 L 59.008 84.632 Q 59.323 83.863 59.323 83.043 Z " fill="rgb(255,114,19)"/><g><path d=" M 130.177 55.906 C 129.555 60.189 128.813 65.454 129.237 71.172 C 131.357 81.664 135.296 82.371 135.454 89.167 C 135.551 93.351 134.615 95.18 133.481 100.841 C 131.993 107.054 133.424 106.418 142.239 106.415 C 151.076 106.365 152.673 106.912 151.172 100.841 C 150.27 96.064 148.964 93.364 149.024 89.167 C 149.12 82.366 153.567 81.929 155.226 71.172 C 155.493 64.429 154.984 60.282 154.301 55.906" fill="none" vector-effect="non-scaling-stroke" stroke-width="2" stroke="rgb(0,0,0)" stroke-linejoin="miter" stroke-linecap="square" stroke-miterlimit="3"/><g><g><g><g><path d=" M 155.531 68.495 C 155.373 75.928 151.521 80.734 149.507 85.983 C 148.55 89.58 149.365 91.489 149.365 92.195 C 149.365 92.995 150.145 95.004 150.411 97.546 C 150.64 99.718 151.441 102.18 151.598 104.214 C 151.644 104.782 151.465 105.344 151.103 105.762 C 150.746 106.182 150.239 106.419 149.709 106.416 L 134.822 106.416 L 134.822 106.415 C 134.286 106.415 133.791 106.183 133.428 105.761 C 133.066 105.343 132.886 104.781 132.933 104.213 C 133.09 102.179 133.962 99.717 134.191 97.544 C 134.458 95.004 135.301 92.995 135.301 92.195 C 135.301 91.489 135.939 89.58 134.983 85.983 C 133.549 80.597 129.046 76.644 129 68.495 L 155.531 68.495 L 155.531 68.495 Z " fill="rgb(255,114,19)"/><g><g><g><path d=" M 129.421 68.46 L 129.775 61.625 Q 132.854 53.008 136.198 49.422 C 138.241 47.232 141.588 44.962 142.913 44.233 C 143.801 43.745 145.253 43.228 145.773 43.986 C 146.725 45.376 141.213 46.468 138.936 48.508 C 136.365 51.315 135.408 55.934 136.198 55.972 C 136.462 55.984 137.645 54.946 138.575 55.006 C 139.69 55.079 141.1 55.466 141.068 56.727 C 141.055 57.237 140.847 57.66 140.482 58.014 C 139.746 58.727 138.738 57.793 137.834 58.058 C 137.201 58.244 136.625 58.415 136.174 58.91 C 135.244 59.93 135.58 61.324 136.164 62.492 C 137.439 65.039 142.4 64.16 142.913 63.091 C 143.544 61.998 141.654 61.799 141.588 61.766 C 140.819 61.381 138.784 61.865 138.936 60.589 C 139.044 59.686 141.399 58.866 143.256 58.91 C 144.544 58.94 145.746 59.428 146.363 60.589 C 147.298 62.35 144.176 63.339 144.427 65.149 C 144.537 65.944 144.502 66.836 145.255 67.255 C 145.81 67.564 146.75 67.796 146.988 67.255 C 147.471 66.157 146.381 65.336 146.901 64.428 C 147.626 63.162 149.164 63.309 150.507 63.383 C 152.145 63.472 153.737 63.942 154.563 65.42 C 154.929 66.075 154.995 66.729 155.076 67.468 Q 155.143 68.069 155.076 69.186 L 129.421 69.68 L 129.421 68.46 Z " fill="rgb(255,114,19)"/><path d=" M 130.584 67.364 Q 130.448 63.75 130.749 61.815 C 131.314 58.191 132.817 55.269 134.685 52.131 C 136.67 48.798 137.969 49.233 137.298 50.173 C 135.887 51.706 134.655 57.197 134.959 57.225 C 135.191 57.235 136.042 56.349 137.61 55.972 C 138.698 55.972 140.92 56.224 140.262 57.225 C 139.619 58.21 139.212 56.815 137.61 57.225 C 136.011 57.529 135.3 58.214 134.83 59.114 C 134.349 60.034 133.317 62.119 134.959 66.558 C 135.738 68.666 138.395 68.408 140.262 67.64 C 141.732 67.036 142.839 64.504 142.913 64.417 C 143.621 63.591 144.356 61.798 143.178 61.028 C 142.38 60.506 140.141 61.369 140.262 60.44 C 140.357 59.706 141.428 59.575 143.065 59.61 C 144.201 59.635 145.515 59.87 145.806 60.974 C 146.027 61.815 145.094 62.319 144.831 63.091 C 144.429 64.272 143.881 65.236 144.239 66.558 C 144.993 69.347 151.953 69.472 151.335 67.069 C 150.952 65.582 147.527 66.259 147.736 64.676 C 147.852 63.796 150.747 63.763 152.237 64.896 C 152.748 65.285 153.406 65.864 153.785 66.558 Q 154.589 68.035 153.519 71.046 L 130.981 71.046 L 130.584 67.364 Z " fill="rgb(255,137,34)"/></g></g></g><path d=" M 153.735 69.936 C 153.735 73.493 149.488 80.585 148.27 85.42 C 147.457 88.649 147.514 89.599 147.516 90.997 C 147.938 93.415 148.176 93.389 148.574 95.8 C 148.768 97.75 150.045 101.105 150.178 102.931 C 150.218 103.44 150.065 103.945 149.758 104.32 C 149.454 104.697 149.024 104.91 148.574 104.908 L 135.927 104.908 L 135.927 104.906 C 135.472 104.906 135.051 104.699 134.743 104.319 C 134.435 103.944 134.283 103.439 134.322 102.929 C 134.455 101.103 135.733 97.75 135.927 95.8 C 136.515 93.309 136.674 93.548 136.962 90.997 C 136.965 89.254 137.02 88.649 136.208 85.42 C 134.99 80.585 130.915 73.278 130.915 69.72 L 153.519 69.72 L 153.735 69.936 Z " fill="rgb(255,137,34)"/></g><circle vector-effect="non-scaling-stroke" cx="148.87921687848777" cy="61.8162312010061" r="0.6628819686066265" fill="rgb(255,137,34)"/><circle vector-effect="non-scaling-stroke" cx="146.98156567713443" cy="47.84508664704291" r="0.6628819686066265" fill="rgb(255,114,19)"/><circle vector-effect="non-scaling-stroke" cx="152.19362672152099" cy="59.11408011335541" r="1.3257639372132246" fill="rgb(255,114,19)"/><circle vector-effect="non-scaling-stroke" cx="142.9132791610282" cy="55.136788301715725" r="1.3257639372132246" fill="rgb(255,137,34)"/></g><path d=" M 154.234 55.906 C 154.856 60.189 155.598 65.454 155.174 71.172 C 153.053 81.664 149.114 82.371 148.956 89.167 C 148.86 93.351 149.795 95.18 150.929 100.841 C 152.417 107.054 150.986 106.418 142.172 106.415 C 133.335 106.365 131.737 106.912 133.238 100.841 C 134.14 96.064 135.446 93.364 135.387 89.167 C 135.291 82.366 130.843 81.929 129.184 71.172 C 128.917 64.429 129.426 60.282 130.11 55.906" fill="none" vector-effect="non-scaling-stroke" stroke-width="2" stroke="rgb(0,0,0)" stroke-linejoin="miter" stroke-linecap="square" stroke-miterlimit="3"/></g></g></g></g></svg>